<?xml version="1.0" encoding="UTF-8" standalone="no"?>
<!-- Created with Inkscape (http://www.inkscape.org/) -->
<!-- Extracted from YugiPedia (https://ms.yugipedia.com//6/68/BAM-DARK.svg) -->

<svg
   xmlns:dc="http://purl.org/dc/elements/1.1/"
   xmlns:cc="http://creativecommons.org/ns#"
   xmlns:rdf="http://www.w3.org/1999/02/22-rdf-syntax-ns#"
   xmlns:svg="http://www.w3.org/2000/svg"
   xmlns="http://www.w3.org/2000/svg"
   xmlns:xlink="http://www.w3.org/1999/xlink"
   xmlns:sodipodi="http://sodipodi.sourceforge.net/DTD/sodipodi-0.dtd"
   xmlns:inkscape="http://www.inkscape.org/namespaces/inkscape"
   width="76.901306"
   height="77.072983"
   id="svg3230"
   version="1.1"
   inkscape:version="0.48.1 "
   sodipodi:docname="New document 4">
  <defs
     id="defs3232">
    <radialGradient
       inkscape:collect="always"
       xlink:href="#linearGradient3545-1"
       id="radialGradient3934"
       gradientUnits="userSpaceOnUse"
       gradientTransform="matrix(0.67345765,0.66857784,-0.6378823,0.64254126,206.11887,177.72836)"
       cx="34.812717"
       cy="40.328773"
       fx="34.812717"
       fy="40.328773"
       r="23.549999" />
    <linearGradient
       id="linearGradient3545-1">
      <stop
         style="stop-color:#f4f6fc;stop-opacity:1;"
         offset="0"
         id="stop3547-8" />
      <stop
         style="stop-color:#b9c4ed;stop-opacity:0;"
         offset="1"
         id="stop3549-8" />
    </linearGradient>
  </defs>
  <sodipodi:namedview
     id="base"
     pagecolor="#ffffff"
     bordercolor="#666666"
     borderopacity="1.0"
     inkscape:pageopacity="0.0"
     inkscape:pageshadow="2"
     inkscape:zoom="7.9195959"
     inkscape:cx="68.74204"
     inkscape:cy="42.331197"
     inkscape:document-units="px"
     inkscape:current-layer="layer1"
     showgrid="false"
     fit-margin-top="0"
     fit-margin-left="0"
     fit-margin-right="0"
     fit-margin-bottom="0"
     inkscape:window-width="1280"
     inkscape:window-height="780"
     inkscape:window-x="-8"
     inkscape:window-y="-8"
     inkscape:window-maximized="1" />
  <metadata
     id="metadata3235">
    <rdf:RDF>
      <cc:Work
         rdf:about="">
        <dc:format>image/svg+xml</dc:format>
        <dc:type
           rdf:resource="http://purl.org/dc/dcmitype/StillImage" />
        <dc:title></dc:title>
      </cc:Work>
    </rdf:RDF>
  </metadata>
  <g
     inkscape:label="Layer 1"
     inkscape:groupmode="layer"
     id="layer1"
     transform="translate(-164.40649,-188.1114)">
    <path
       d="m 169.77057,206.68094 c 6.5375,-10.5625 18.2125,-18.575 30.9375,-18.45 10.475,-0.85 21.3,2.85 28.55,10.5625 7.2875,7.2125 12.2625,17.05 12.0375,27.475 0.3,11.25 -4.9375,22.35 -13.8,29.2875 -9.225,8.9 -23.1875,11.675 -35.3375,8.1375 -4.7625,-1.3625 -8.8875,-4.1375 -13.1125,-6.6 l -0.5125,-0.275 -4.70869,-5.3337 c -0.175,-1.35 3.59619,2.4087 2.15869,2.1212 -13.0875,-11.175 -14.9625,-32.425 -6.2125,-46.925 z"
       id="path6"
       inkscape:connector-curvature="0"
       style="fill:#d9e4e5"
       sodipodi:nodetypes="ccccccccccc" />
    <path
       style="fill:#333333"
       inkscape:connector-curvature="0"
       d="m 195.18307,193.46844 c 9.2625,-1.6 19.4875,-0.875 27.325,4.775 6.3375,4.75 11.4125,11.4875 13.425,19.2125 3.175,12.325 -0.425,26.65 -10.5875,34.75 -12.3,11.1125 -32.9,10.5625 -44.95,-0.6625 -9.675,-8.125 -12.4375,-22.0375 -9.7625,-33.975 2.9625,-11.675 12.6375,-21.625 24.55,-24.1 z"
       id="path14" />
    <path
       id="path144-6"
       d="m 206.01432,252.55281 c -3.4875,-4.3 -9.9125,-10.2 -5.2,-15.8625 1.1125,3.75 2.3375,7.8125 5.625,10.2625 4.575,3.875 11.125,4.375 16.5625,2.1875 -2.875,2.15 -7.975,3.4625 -11.1125,5.2 -0.525,-0.125 0.4375,0.1375 -0.0875,0.0125 -1.9625,-0.5125 -3.8875,-1.1 -5.7875,-1.8 z m 9.9375,-18.225 c 1.8375,0.15 3.675,0.325 5.525,0.425 -2.7125,2.825 -5.45,5.6125 -8.425,8.1625 -2.275,-0.7375 -4.4875,-1.725 -6.4625,-3.1 3.4,-1.3375 6.6,-3.1125 9.3625,-5.4875 z m 5.525,0.425 c 3.1875,-1.45 6.4,-2.9 9.375,-4.775 -2.75,7.35 -9.9125,12.6875 -17.8,12.9375 2.975,-2.55 5.7125,-5.3375 8.425,-8.1625 z m -13.62091,-9.52074 c 1.3625,-1.3375 4.17091,-6.81676 5.49591,-8.19176 2.0125,2.9375 3.475,6.1875 4.5375,9.575 -2.05,1.2625 -4.175,2.4125 -6.275,3.6125 0.325,0.3125 0.975,0.925 1.3,1.2375 1.0125,0.95 2.025,1.9 3.0375,2.8625 -2.7625,2.375 -5.9625,4.15 -9.3625,5.4875 -1.275,-1.3 -2.86751,-2.46624 -4.10501,-3.81624 -0.4875,0.025 -1.10749,-0.0962 -1.58249,-0.0837 -4.275,0.9375 -7.3625,-3.6125 -7.2,-7.45 l 4.12351,-9.72907 c 2.125,2.925 2.03626,7.42589 6.28626,7.40089 6.275,0.65 8.56932,3.70743 3.74432,-0.90507 z m -10.60409,-8.40426 c 0.85,-4.9125 5.975,-5.1875 9.925,-6.0125 0.45,1.3875 0.85,2.7875 1.1875,4.2125 -2.37629,19.36736 -7.1681,3.34306 -13.2,11.1 -0.825,0.2 -2.4875,0.6 -3.325,0.8 -0.1125,-3.7125 0.9,-7.3 2.5875,-10.575 l 1.15,0.1875 c 0.425,0.075 1.2625,0.2125 1.675,0.2875 z m -6.85,-1.05 c 1.0125,0.1375 3.025,0.425 4.025,0.575 -1.6875,3.275 -2.7,6.8625 -2.5875,10.575 -8.95,3.5625 -11.725,15.8 -6.0125,23.2875 -3.1375,-2.3 -6,-5.1125 -7.725,-8.65 0.1375,-1.7125 0.3125,-3.425 0.5125,-5.125 1.275,-3.35 3.125,-6.5 5.7875,-8.9375 3.5,-2.975 4.275,-7.7 6,-11.725 z m -7.1625,-6.5625 c 3.225,0.05 6.4625,0.2625 9.7,0.2375 1.6875,1.7 3.6625,3.3625 4.1125,5.8625 -7.9,-3.3875 -18.475,-1.925 -22.675,6.35 0.875,-3.5 1.0125,-8.0125 4.375,-10.1375 1.4875,-0.8 2.9875,-1.55 4.4875,-2.3125 z m 9.7,0.2375 c 2.7,-1.8625 5.7125,-3.2875 9.0125,-3.725 2.0875,1.3 3.75,3.15 5.225,5.0875 -3.95,0.825 -9.075,1.1 -9.925,6.0125 -0.4125,-0.075 -1.25,-0.2125 -1.675,-0.2875 0.375,-0.3125 1.1125,-0.9125 1.475,-1.225 -0.45,-2.5 -2.425,-4.1625 -4.1125,-5.8625 z m -9.7,-0.2375 c 5.375,-3.85 12.275,-5.7 18.7125,-3.4875 -3.3,0.4375 -6.3125,1.8625 -9.0125,3.725 -3.2375,0.025 -6.475,-0.1875 -9.7,-0.2375 z m 47.7875,5.425 c 1.1375,3.3125 2.2125,6.725 2.225,10.2625 -0.725,1.725 -1.525,3.425 -2.4,5.075 -2.975,1.875 -6.1875,3.325 -9.375,4.775 -1.85,-0.1 -3.6875,-0.275 -5.525,-0.425 -1.0125,-0.9625 -2.025,-1.9125 -3.0375,-2.8625 9.7875,1.775 19,-7.025 18.1125,-16.825 z m -16.075,-12.65 c 6.2875,4.6875 10.05,13.225 6.725,20.8 -1.15,-3.3625 -2.875,-6.475 -5.175,-9.175 -0.3375,-3.9 -0.725,-7.8 -1.55,-11.625 z m -24.3625,39.6 c -2.0375,-4.6 0.4125,-9.4125 3.1125,-13.125 -0.1625,3.8375 2.925,8.3875 7.2,7.45 l -0.0875,0.775 c -4.7125,5.6625 1.7125,11.5625 5.2,15.8625 -6.1875,-1.675 -12.5625,-4.9125 -15.425,-10.9625 z m -11.0875,-15.375 c 1.4875,-5.0125 5.2125,-10.1875 10.9,-10.4375 -1.725,4.025 -2.5,8.75 -6,11.725 -2.6625,2.4375 -4.5125,5.5875 -5.7875,8.9375 0.3625,-3.4 0.15,-6.875 0.8875,-10.225 z m 37,-12.6 c 2.3,2.7 4.025,5.8125 5.175,9.175 -1.2,1.325 -2.4375,2.6375 -3.7875,3.825 -1.0625,-3.3875 -2.525,-6.6375 -4.5375,-9.575 1.075,-1.125 2.1125,-2.275 3.15,-3.425 z m -15.8875,-16.675 c 3.85,0.4125 8.6125,-0.9125 11.6625,2.05 0.9,0.9875 1.7875,1.9875 2.675,3 0.825,3.825 1.2125,7.725 1.55,11.625 -2.26951,5.55008 -4.93064,14.49383 -6.74556,16.21295 -0.47543,-0.55786 -8.10037,1.8687 -10.4573,-5.27173 0.25,-1.35 8.87786,-8.16622 9.06536,-9.52872 0.425,1.725 0.8375,3.45 1.2375,5.1875 6.075,-8.275 1.075,-21.1875 -8.9875,-23.275 z"
       inkscape:connector-curvature="0"
       sodipodi:nodetypes="cccccccccccccccccccccccccccccccccccccccccccccccccccccccccccccccccccccccccccccccccccccccccccccccccc"
       style="fill:#4a5db1;fill-opacity:1" />
    <path
       id="path144-5"
       style="fill:url(#radialGradient3934);fill-opacity:1"
       d="m 206.08073,252.51766 c -3.4875,-4.3 -9.9125,-10.2 -5.2,-15.8625 1.1125,3.75 2.3375,7.8125 5.625,10.2625 4.575,3.875 11.125,4.375 16.5625,2.1875 -2.875,2.15 -8.06875,3.525 -11.20625,5.2625 -3.17445,-0.68701 0.52328,0.0733 0.006,-0.05 -1.9625,-0.5125 -3.8875,-1.1 -5.7875,-1.8 z m 9.9375,-18.225 c 1.8375,0.15 3.675,0.325 5.525,0.425 -2.7125,2.825 -5.45,5.6125 -8.425,8.1625 -2.275,-0.7375 -4.4875,-1.725 -6.4625,-3.1 3.4,-1.3375 6.6,-3.1125 9.3625,-5.4875 z m 5.525,0.425 c 3.1875,-1.45 6.4,-2.9 9.375,-4.775 -2.75,7.35 -9.9125,12.6875 -17.8,12.9375 2.975,-2.55 5.7125,-5.3375 8.425,-8.1625 z m -13.62091,-9.52075 c 1.3625,-1.3375 4.17091,-6.81675 5.49591,-8.19175 2.0125,2.9375 3.475,6.1875 4.5375,9.575 -2.05,1.2625 -4.175,2.4125 -6.275,3.6125 0.325,0.3125 0.975,0.925 1.3,1.2375 1.0125,0.95 2.025,1.9 3.0375,2.8625 -2.7625,2.375 -5.9625,4.15 -9.3625,5.4875 -1.275,-1.3 -2.69626,-2.22871 -3.93376,-3.57871 -0.4875,0.025 -1.27874,-0.33379 -1.75374,-0.32129 -4.275,0.9375 -7.3625,-3.6125 -7.2,-7.45 l 4.12351,-9.72907 c 2.125,2.925 2.03626,7.42589 6.28626,7.40089 6.275,0.65 8.56932,3.70743 3.74432,-0.90507 z m -10.60409,-8.40425 c 0.85,-4.9125 5.975,-5.1875 9.925,-6.0125 0.45,1.3875 0.85,2.7875 1.1875,4.2125 -2.37629,19.36735 -7.1681,3.34306 -13.2,11.1 -0.825,0.2 -2.4875,0.6 -3.325,0.8 -0.1125,-3.7125 0.9,-7.3 2.5875,-10.575 l 1.15,0.1875 c 0.425,0.075 1.2625,0.2125 1.675,0.2875 z m -6.85,-1.05 c 1.0125,0.1375 3.025,0.425 4.025,0.575 -1.6875,3.275 -2.7,6.8625 -2.5875,10.575 -8.95,3.5625 -11.725,15.8 -6.0125,23.2875 -3.1375,-2.3 -6,-5.1125 -7.725,-8.65 0.1375,-1.7125 0.3125,-3.425 0.5125,-5.125 1.275,-3.35 3.125,-6.5 5.7875,-8.9375 3.5,-2.975 4.275,-7.7 6,-11.725 z m -7.1625,-6.5625 c 3.225,0.05 6.4625,0.2625 9.7,0.2375 1.6875,1.7 3.6625,3.3625 4.1125,5.8625 -7.9,-3.3875 -18.475,-1.925 -22.67501,6.35 0.875,-3.5 1.0125,-8.0125 4.37501,-10.1375 1.4875,-0.8 2.9875,-1.55 4.4875,-2.3125 z m 9.7,0.2375 c 2.7,-1.8625 5.7125,-3.2875 9.0125,-3.725 2.0875,1.3 3.75,3.15 5.225,5.0875 -3.95,0.825 -9.075,1.1 -9.925,6.0125 -0.4125,-0.075 -1.25,-0.2125 -1.675,-0.2875 0.375,-0.3125 1.1125,-0.9125 1.475,-1.225 -0.45,-2.5 -2.425,-4.1625 -4.1125,-5.8625 z m -9.7,-0.2375 c 5.375,-3.85 12.275,-5.7 18.7125,-3.4875 -3.3,0.4375 -6.3125,1.8625 -9.0125,3.725 -3.2375,0.025 -6.475,-0.1875 -9.7,-0.2375 z m 47.7875,5.425 c 1.1375,3.3125 2.2125,6.725 2.225,10.2625 -0.725,1.725 -1.525,3.425 -2.4,5.075 -2.975,1.875 -6.1875,3.325 -9.375,4.775 -1.85,-0.1 -3.6875,-0.275 -5.525,-0.425 -1.0125,-0.9625 -2.025,-1.9125 -3.0375,-2.8625 9.7875,1.775 19,-7.025 18.1125,-16.825 z m -16.075,-12.65 c 6.2875,4.6875 10.05,13.225 6.725,20.8 -1.15,-3.3625 -2.875,-6.475 -5.175,-9.175 -0.3375,-3.9 -0.725,-7.8 -1.55,-11.625 z m -24.3625,39.6 c -2.0375,-4.6 0.4125,-9.4125 3.1125,-13.125 -0.1625,3.8375 2.925,8.3875 7.2,7.45 l -0.0875,0.775 c -4.7125,5.6625 1.7125,11.5625 5.2,15.8625 -6.1875,-1.675 -12.5625,-4.9125 -15.425,-10.9625 z m -11.0875,-15.375 c 1.4875,-5.0125 5.2125,-10.1875 10.9,-10.4375 -1.725,4.025 -2.5,8.75 -6,11.725 -2.6625,2.4375 -4.5125,5.5875 -5.7875,8.9375 0.3625,-3.4 0.15,-6.875 0.8875,-10.225 z m 37,-12.6 c 2.3,2.7 4.025,5.8125 5.175,9.175 -1.2,1.325 -2.4375,2.6375 -3.7875,3.825 -1.0625,-3.3875 -2.525,-6.6375 -4.5375,-9.575 1.075,-1.125 2.1125,-2.275 3.15,-3.425 z m -15.8875,-16.675 c 3.85,0.4125 8.6125,-0.9125 11.6625,2.05 0.9,0.9875 1.7875,1.9875 2.675,3 0.825,3.825 1.2125,7.725 1.55,11.625 -2.26952,5.55007 -4.93064,14.49382 -6.74556,16.21294 -0.47544,-0.55786 -8.10037,1.86871 -10.4573,-5.27173 0.25,-1.35 8.87786,-8.16621 9.06536,-9.52871 0.425,1.725 0.8375,3.45 1.2375,5.1875 6.075,-8.275 1.075,-21.1875 -8.9875,-23.275 z"
       inkscape:connector-curvature="0"
       sodipodi:nodetypes="cccccccccccccccccccccccccccccccccccccccccccccccccccccccccccccccccccccccccccccccccccccccccccccccccc" />
    <path
       sodipodi:type="arc"
       style="fill:#0b1138;fill-opacity:1"
       id="path3149"
       sodipodi:cx="48.5"
       sodipodi:cy="54.1875"
       sodipodi:rx="8.25"
       sodipodi:ry="8.0625"
       d="m 56.75,54.1875 c 0,4.452796 -3.693651,8.0625 -8.25,8.0625 -4.556349,0 -8.25,-3.609704 -8.25,-8.0625 0,-4.452796 3.693651,-8.0625 8.25,-8.0625 4.556349,0 8.25,3.609704 8.25,8.0625 z"
       transform="matrix(1,0,0,-1,154.97057,280.96843)" />
    <path
       style="fill:#4a5db1;fill-opacity:1"
       d="m 183.05181,208.11865 c -0.16954,0.17791 -0.66706,0.4075 -0.16197,0.02 2.93401,-2.25079 5.61076,-3.27044 8.98329,-3.57893 0.99037,-0.0906 3.50133,-0.0497 4.57195,0.0744 l 0.89553,0.17173 -1.30525,0.01 c -2.45708,0.0179 -3.8386,0.33154 -6.07067,1.12701 -1.76205,0.62796 -3.75696,1.67663 -5.24802,2.7023 -0.79234,0.39334 -4.97821,3.31264 -5.80198,3.46389 -0.63527,0.13659 1.38127,-1.8391 2.32516,-2.57577 z"
       id="path4101"
       inkscape:connector-curvature="0"
       sodipodi:nodetypes="cssscssccsc" />
    <path
       style="fill:#101b5b"
       inkscape:connector-curvature="0"
       d="m 178.79766,211.51488 c 3.0625,-8.8125 13.0125,-13.675 21.8625,-14.5875 10.0625,2.0875 15.0625,15 8.9875,23.275 -1.05552,-5.57434 -3.12171,-11.63762 -9.2125,-14.3625 -12.01901,-3.54167 -16.65686,2.22628 -21.6375,5.675 z"
       id="path24"
       sodipodi:nodetypes="ccccc" />
    <path
       d="m 212.32266,198.97738 c 6.4,0.15 15.0375,8.4375 18.75,15.65 0.8875,9.8 -8.325,18.6 -18.1125,16.825 -0.325,-0.3125 -0.975,-0.925 -1.3,-1.2375 6.54683,-4.03484 6.99022,-3.90654 10.0625,-7.4375 3.325,-7.575 -0.4375,-16.1125 -6.725,-20.8 -0.8875,-1.0125 -1.775,-2.0125 -2.675,-3 z"
       id="path32"
       inkscape:connector-curvature="0"
       style="fill:#101b5b"
       sodipodi:nodetypes="ccccccc" />
    <path
       d="m 174.42266,221.65238 c 4.2,-8.275 14.775,-9.7375 22.675,-6.35 -0.3625,0.3125 2.93125,1.31875 3.0875,3.5375 -6.72447,-3.53107 -7.6919,-2.49792 -10.55,-2.5125 -8.25,3.0625 -8.0375,5.08125 -10.0875,9.875 -0.7375,3.35 -0.525,6.825 -0.8875,10.225 -0.2,1.7 -0.375,3.4125 -0.5125,5.125 -3.8625,-5.775 -5.1375,-13.1375 -3.725,-19.9 z"
       id="path90"
       inkscape:connector-curvature="0"
       style="fill:#101b5b"
       sodipodi:nodetypes="cccccccc" />
    <path
       style="fill:#101b5b"
       inkscape:connector-curvature="0"
       d="m 230.89766,229.96488 c 0.875,-1.65 1.675,-3.35 2.4,-5.075 0.55,9.2 -3.4875,18.1125 -10.25,24.2375 -5.4375,2.1875 -11.9875,1.6875 -16.5625,-2.1875 -3.02233,-1.56611 -5.13122,-5.34135 -5.77968,-9.26813 l 0.48525,-2.32179 c 2.26416,0.83364 5.15134,3.74438 5.75379,4.27565 1.975,1.375 3.92233,2.71605 7.47897,2.43709 7.8875,-0.25 13.72417,-4.74782 16.47417,-12.09782 z"
       id="path118"
       sodipodi:nodetypes="ccccccccc" />
    <path
       style="fill:#101b5b"
       inkscape:connector-curvature="0"
       d="m 191.88516,226.91488 c 0.8375,-0.2 2.5,-0.6 3.325,-0.8 l -0.3,0.475 -1.1625,1.8625 c -2.7,3.7125 -5.15,8.525 -3.1125,13.125 2.8625,6.05 9.2375,9.2875 15.425,10.9625 1.9,0.7 5.575,1.06875 7.5375,1.58125 -8.375,4.05 -20.6125,1.64375 -27.725,-3.91875 -5.7125,-7.4875 -2.9375,-19.725 6.0125,-23.2875 z"
       id="path120"
       sodipodi:nodetypes="ccccccccc" />
    <path
       style="fill:#939bcb"
       inkscape:connector-curvature="0"
       d="m 186.09274,208.83357 c 3.02234,0.0803 4.76872,0.65267 6.91339,1.78484 1.94378,1.32814 5.11164,3.66611 6.04778,6.07772 -8.74375,-5.45 -20.44375,-3.2375 -24.64375,5.0375 1.3125,-7.8125 1.39508,-6.75047 3.91475,-10.23531 2.18887,-2.76783 6.45533,-2.40225 7.76783,-2.66475 z"
       id="path74-9"
       sodipodi:nodetypes="cccccc" />
    <path
       d="m 231.0318,214.61028 c 1.1375,3.3125 2.5875,7.2875 2.2875,11.575 -1.86253,3.75591 -4.86243,7.24729 -9.77499,7.975 -4.3108,0.1925 -7.84279,-0.11449 -10.625,-2.725 9.78749,1.775 18.99999,-7.025 18.11249,-16.825 z"
       id="path98"
       inkscape:connector-curvature="0"
       style="fill:#939bcb"
       sodipodi:nodetypes="ccccc" />
    <path
       d="m 205.77734,251.45403 c -3.01875,-1.45625 -9.41809,-10.12026 -4.70559,-15.78276 1.1125,3.75 2.12434,8.88901 5.41184,11.33901 4.575,3.875 11.125,4.375 16.5625,2.1875 -2.875,2.15 -5.19375,3.93125 -9.14375,4.91875 -0.36875,0.0625 -0.75,0.41875 -2.55625,0.2625 -1.9625,-0.5125 -3.85625,-1.81875 -5.56875,-2.925 z"
       id="path144"
       inkscape:connector-curvature="0"
       style="fill:#939bcb"
       sodipodi:nodetypes="ccccccc" />
    <path
       d="m 191.87399,227.01184 c -8.95,3.5625 -11.725,15.8 -6.0125,23.2875 -3.1375,-2.3 -6,-5.1125 -7.725,-8.65 0.1375,-1.7125 0.3125,-3.425 0.5125,-5.125 1.275,-3.35 3.5,-7.96875 13.06875,-9.5"
       id="path102"
       inkscape:connector-curvature="0"
       style="fill:#939bcb"
       sodipodi:nodetypes="ccccc" />
    <path
       d="m 200.50536,196.9857 c 3.85,0.4125 9.20912,-0.77991 12.25912,2.18259 1.09887,0.83282 1.89799,1.32458 4.08921,5.05503 1.79727,2.76434 0.96944,7.10628 0.0695,9.15012 -1.4488,3.20766 -5.0796,4.6696 -7.38637,6.88798 -0.41,-1.83364 -0.73813,-3.13167 -1.28146,-5.18822 0.425,1.725 0.8375,3.45 1.2375,5.1875 6.075,-8.275 1.075,-21.1875 -8.9875,-23.275 z"
       id="path22"
       inkscape:connector-curvature="0"
       style="fill:#939bcb"
       sodipodi:nodetypes="cccccccc" />
  </g>
</svg>
