<?xml version="1.0" encoding="UTF-8" standalone="no"?>
<!-- Created with Inkscape (http://www.inkscape.org/) -->
<!-- Extracted from YugiPedia (https://ms.yugipedia.com//6/6c/BAM-EARTH.svg) -->

<svg
   xmlns:dc="http://purl.org/dc/elements/1.1/"
   xmlns:cc="http://creativecommons.org/ns#"
   xmlns:rdf="http://www.w3.org/1999/02/22-rdf-syntax-ns#"
   xmlns:svg="http://www.w3.org/2000/svg"
   xmlns="http://www.w3.org/2000/svg"
   xmlns:xlink="http://www.w3.org/1999/xlink"
   xmlns:sodipodi="http://sodipodi.sourceforge.net/DTD/sodipodi-0.dtd"
   xmlns:inkscape="http://www.inkscape.org/namespaces/inkscape"
   width="76.916885"
   height="76.349487"
   id="svg3426"
   version="1.1"
   inkscape:version="0.48.1 "
   sodipodi:docname="New document 9">
  <defs
     id="defs3428">
    <radialGradient
       inkscape:collect="always"
       xlink:href="#linearGradient4568"
       id="radialGradient4574"
       cx="285.08704"
       cy="33.394352"
       fx="285.08704"
       fy="33.394352"
       r="23.585466"
       gradientTransform="matrix(1.4749425,-1.1124823,0.79604669,1.055409,-75.679837,810.35047)"
       gradientUnits="userSpaceOnUse" />
    <linearGradient
       inkscape:collect="always"
       id="linearGradient4568">
      <stop
         style="stop-color:#ffffff;stop-opacity:1"
         offset="0"
         id="stop4570" />
      <stop
         style="stop-color:#a9af9a;stop-opacity:0;"
         offset="1"
         id="stop4572" />
    </linearGradient>
  </defs>
  <sodipodi:namedview
     id="base"
     pagecolor="#ffffff"
     bordercolor="#666666"
     borderopacity="1.0"
     inkscape:pageopacity="0.0"
     inkscape:pageshadow="2"
     inkscape:zoom="1.979899"
     inkscape:cx="65.899695"
     inkscape:cy="-16.300712"
     inkscape:document-units="px"
     inkscape:current-layer="layer1"
     showgrid="false"
     fit-margin-top="0"
     fit-margin-left="0"
     fit-margin-right="0"
     fit-margin-bottom="0"
     inkscape:window-width="469"
     inkscape:window-height="455"
     inkscape:window-x="161"
     inkscape:window-y="161"
     inkscape:window-maximized="0" />
  <metadata
     id="metadata3431">
    <rdf:RDF>
      <cc:Work
         rdf:about="">
        <dc:format>image/svg+xml</dc:format>
        <dc:type
           rdf:resource="http://purl.org/dc/dcmitype/StillImage" />
        <dc:title></dc:title>
      </cc:Work>
    </rdf:RDF>
  </metadata>
  <g
     inkscape:label="Layer 1"
     inkscape:groupmode="layer"
     id="layer1"
     transform="translate(-335.35034,-492.98187)">
    <path
       d="m 360.89213,494.40754 c 13.35,-4.3375 34.39375,1.59063 43.75625,12.79063 0.95016,1.47966 0.94565,0.70668 -1.91875,-0.90625 0.35,-0.1875 -2.4,-2.34375 -2.5625,-2.98125 l 3.44687,3.23437 c 0.0937,0.12188 1.56563,1.1125 1.86563,1.8125 l -0.825,-0.7875 c 9.475,12.975 10.5375,31.95 0.7375,45.0375 -5.3,6.5125 -11.9375,12.3625 -20.025,15.0625 -5.3875,2.0375 -11.2625,1.75 -16.9125,1.45 -6.6,-0.625 -12.3,-4.2125 -18.0125,-7.2625 l -0.7875,-0.4125 -3.51545,-3.53068 c -0.8484,-4.26504 4.14104,-1.26143 1.00295,0.11818 l -1.025,-0.0875 c -5.9625,-7 -10.525,-15.5375 -10.65,-24.9375 -1.3875,-16.65 9.7375,-33.15 25.425,-38.6 z"
       id="path10"
       inkscape:connector-curvature="0"
       style="fill:#d9e4e5"
       sodipodi:nodetypes="ccccccccccccccccc" />
    <path
       style="fill:#333333"
       inkscape:connector-curvature="0"
       d="m 367.55463,497.47004 c 7.4375,-0.875 15.375,-0.75 22.1625,2.8125 11.7625,6.1125 19.5375,19.5375 18.1875,32.85 -0.35,10.1125 -5.825,19.6875 -14.1625,25.3625 -13.35,9.7625 -33.7,7.3625 -44.7,-4.925 -7.7875,-8.2125 -9.7,-20.4125 -7.5625,-31.2 2.9,-12.3875 13.375,-22.8875 26.075,-24.9 z"
       id="path18" />
    <path
       style="fill:#e3f7fc"
       inkscape:connector-curvature="0"
       d="m 363.31713,504.02004 c 5.7125,-2.225 12.175,-2.525 18.125,-1.175 -6.05,-0.3 -12.2375,-0.475 -18.125,1.175 z"
       id="path28" />
    <path
       style="fill:#4f5444"
       inkscape:connector-curvature="0"
       d="m 371.84213,514.35754 c 4.4375,-0.725 9.9375,-4.125 13.5,0.4125 1.725,4.325 3.7875,8.525 7.45,11.575 1.325,-0.15 2.6625,-0.2875 4,-0.425 1.325,0.8625 2.6625,1.7 4.0375,2.5125 0.7125,0.4125 2.1375,1.25 2.85,1.675 1.1875,9.5875 -3.9125,18.7625 -11.325,24.525 -9,8.6375 -24.05,9.225 -34.0875,2.075 -4.3125,-3.275 -8.45,-7.2125 -10.8125,-12.1625 0.325,-2.0625 0.75,-4.1 1.1375,-6.15 0.8875,-3.9375 1.9875,-7.9625 4.4625,-11.2375 1.9125,-1.6375 3.8875,-3.2 5.8375,-4.7875 3.275,-0.0125 6.55,0.125 9.825,0.2125 1.075,-2.725 2.1125,-5.475 3.125,-8.225 z"
       id="path72" />
    <path
       inkscape:connector-curvature="0"
       id="path80"
       style="fill:#00ae00;fill-opacity:1"
       d="m 358.89213,522.37004 c 3.3125,-4.1125 7.2875,-8 12.95,-8.0125 -1.0125,2.75 -2.05,5.5 -3.125,8.225 -3.275,-0.0875 -6.55,-0.225 -9.825,-0.2125 z m -5.8375,4.7875 c 1.3625,-10.2 11.3375,-17.8125 21.45,-17.5 10,-0.4375 19.4875,6.725 22.2875,16.2625 -1.3375,0.1375 -2.675,0.275 -4,0.425 -3.6625,-3.05 -5.725,-7.25 -7.45,-11.575 -3.5625,-4.5375 -9.0625,-1.1375 -13.5,-0.4125 -5.6625,0.0125 -9.6375,3.9 -12.95,8.0125 -1.95,1.5875 -3.925,3.15 -5.8375,4.7875 z m 12.25,-19.6375 c 14.9,-6.4375 34.375,4.4875 35.525,20.9125 -1.375,-0.8125 -2.7125,-1.65 -4.0375,-2.5125 -2.8,-9.5375 -12.2875,-16.7 -22.2875,-16.2625 -10.1125,-0.3125 -20.0875,7.3 -21.45,17.5 -2.475,3.275 -3.575,7.3 -4.4625,11.2375 -3,-12.6625 4.5,-26.475 16.7125,-30.875 z m -1.9875,-3.5 c 4.60587,-1.95936 9.95367,-2.88921 18.125,-1.175 l 4.4161,1.18211 c 9.15471,4.88618 -0.92351,0.92636 0.41399,0.81386 4.18685,1.04106 7.03241,4.42903 10.04491,7.65403 4.4125,4.825 6.9,11.1125 7.3625,17.6125 -0.7125,-0.425 -2.1375,-1.2625 -2.85,-1.675 -1.15,-16.425 -20.625,-27.35 -35.525,-20.9125 -12.2125,4.4 -19.7125,18.2125 -16.7125,30.875 -0.3875,2.05 -0.8125,4.0875 -1.1375,6.15 -7.1875,-14.9 0.35,-34.5875 15.8625,-40.525 z" />
    <path
       style="fill:#a9af9a"
       inkscape:connector-curvature="0"
       d="m 374.06713,517.17004 c 2.25,-0.625 4.5125,-1.2375 6.7625,-1.8625 4.225,3.7375 5.5875,9.7125 5.75,15.1375 0.5625,-1.45 1.1625,-2.8875 1.8,-4.3125 1.2625,1.6875 2.1,3.6125 2.6625,5.65 -1.55,3.3125 -2.9375,6.7 -4.425,10.025 -0.375,0.7875 -1.125,2.3625 -1.5,3.15 -0.3125,-3.25 -0.275,-6.525 -0.0125,-9.7625 -3.025,-2.1875 -6.8,-4.4375 -7.275,-8.5125 -0.4625,-3.45 -1.6625,-6.725 -3.7625,-9.5125 z"
       id="path84" />
    <path
       style="fill:#8a917a"
       inkscape:connector-curvature="0"
       d="m 373.97963,517.03254 0.0875,0.1375 c 2.1,2.7875 3.3,6.0625 3.7625,9.5125 0.475,4.075 4.25,6.325 7.275,8.5125 -0.2625,3.2375 -0.3,6.5125 0.0125,9.7625 -0.2,0.425 -0.6,1.275 -0.8,1.7 -0.7875,0.075 -2.3375,0.2125 -3.125,0.2875 -1.9,-2.9 -3.6,-6.7125 -7.6875,-6.625 -0.4875,0.25 -1.45,0.75 -1.9375,1 -4.1125,2.2 -7.8625,5.0125 -11.2625,8.2 -0.65,-5.6125 -4.675,-10.875 -2.525,-16.6125 1.4125,0.825 2.8,1.6875 4.15,2.6 2.3625,-2.0375 4.525,-4.3 6.3625,-6.8375 2.9375,-3.3 4.3875,-7.4875 5.6875,-11.6375 z"
       id="path86" />
    <path
       style="fill:#a9af9a"
       inkscape:connector-curvature="0"
       d="m 359.37963,525.38254 c 3.375,-0.1375 6.6875,0.4875 8.9125,3.2875 -1.8375,2.5375 -4,4.8 -6.3625,6.8375 -1.35,-0.9125 -2.7375,-1.775 -4.15,-2.6 0.375,-1.7 0.725,-3.4125 1.0875,-5.1125 0.125,-0.6 0.3875,-1.8125 0.5125,-2.4125 z"
       id="path114" />
    <path
       style="fill:#727b5d"
       inkscape:connector-curvature="0"
       d="m 350.80463,544.28254 c 1.1125,-5.925 1.3,-14.15 8.0625,-16.4875 -0.3625,1.7 -0.7125,3.4125 -1.0875,5.1125 -2.15,5.7375 1.875,11 2.525,16.6125 3.4,-3.1875 7.15,-6 11.2625,-8.2 1.2125,3.775 2.675,7.4875 4.5875,10.975 1.725,-1.7375 3.375,-3.55 5.0375,-5.35 0.7875,-0.075 2.3375,-0.2125 3.125,-0.2875 0.2,-0.425 0.6,-1.275 0.8,-1.7 0.375,-0.7875 1.125,-2.3625 1.5,-3.15 1.5125,0.6875 3.05,1.35 4.55,2.075 1.075,-0.3125 3.2375,-0.9375 4.3125,-1.2375 2.0875,-3.75 2.7125,-7.9875 2.9125,-12.2125 3.6375,1.675 2.15,5.8625 1.3375,8.8375 -2.25,8.4 -9.1875,15.0625 -17.2,18.05 -7.65,1.975 -16.4625,1.6125 -23.0625,-3.175 -3.525,-2.55 -7.2375,-5.6125 -8.6625,-9.8625 z"
       id="path116" />
    <path
       style="fill:#a9af9a"
       inkscape:connector-curvature="0"
       d="m 395.00463,531.19504 c 0.85,-0.1875 2.5375,-0.575 3.3875,-0.7625 -0.2,4.225 -0.825,8.4625 -2.9125,12.2125 -1.075,0.3 -3.2375,0.925 -4.3125,1.2375 0.4125,-4.1625 2.25,-7.9625 3.5625,-11.8875 l 0.275,-0.8 z"
       id="path122" />
    <path
       style="fill:#8a917a"
       inkscape:connector-curvature="0"
       d="m 391.04213,531.78254 c 0.925,0.05 2.7625,0.1625 3.6875,0.2125 -1.3125,3.925 -3.15,7.725 -3.5625,11.8875 -1.5,-0.725 -3.0375,-1.3875 -4.55,-2.075 1.4875,-3.325 2.875,-6.7125 4.425,-10.025 z"
       id="path126" />
    <path
       style="fill:#a9af9a"
       inkscape:connector-curvature="0"
       d="m 371.56713,541.32004 c 0.4875,-0.25 1.45,-0.75 1.9375,-1 4.0875,-0.0875 5.7875,3.725 7.6875,6.625 -1.6625,1.8 -3.3125,3.6125 -5.0375,5.35 -1.9125,-3.4875 -3.375,-7.2 -4.5875,-10.975 z"
       id="path142" />
    <path
       inkscape:connector-curvature="0"
       id="path80-0"
       style="fill:url(#radialGradient4574);fill-opacity:1"
       d="m 358.88334,522.34132 c 3.3125,-4.1125 7.2875,-8 12.95,-8.0125 -1.0125,2.75 -2.05,5.5 -3.125,8.225 -3.275,-0.0875 -6.55,-0.225 -9.825,-0.2125 z m -5.8375,4.7875 c 1.3625,-10.2 11.3375,-17.8125 21.45,-17.5 10,-0.4375 19.4875,6.725 22.2875,16.2625 -1.3375,0.1375 -2.675,0.275 -4,0.425 -3.6625,-3.05 -5.725,-7.25 -7.45,-11.575 -3.5625,-4.5375 -9.0625,-1.1375 -13.5,-0.4125 -5.6625,0.0125 -9.6375,3.9 -12.95,8.0125 -1.95,1.5875 -3.925,3.15 -5.8375,4.7875 z m 12.25,-19.6375 c 14.9,-6.4375 34.375,4.4875 35.525,20.9125 -1.375,-0.8125 -2.7125,-1.65 -4.0375,-2.5125 -2.8,-9.5375 -12.2875,-16.7 -22.2875,-16.2625 -10.1125,-0.3125 -20.0875,7.3 -21.45,17.5 -2.475,3.275 -3.575,7.3 -4.4625,11.2375 -3,-12.6625 4.5,-26.475 16.7125,-30.875 z m -1.9875,-3.5 c 4.60588,-1.95936 9.95368,-2.88921 18.125,-1.175 l 4.4161,1.18211 c 9.15471,4.88618 -0.92351,0.92636 0.41399,0.81386 4.18685,1.04105 7.03241,4.42903 10.04491,7.65403 4.4125,4.825 6.9,11.1125 7.3625,17.6125 -0.7125,-0.425 -2.1375,-1.2625 -2.85,-1.675 -1.15,-16.425 -20.625,-27.35 -35.525,-20.9125 -12.2125,4.4 -19.7125,18.2125 -16.7125,30.875 -0.3875,2.05 -0.8125,4.0875 -1.1375,6.15 -7.1875,-14.9 0.35,-34.5875 15.8625,-40.525 z" />
  </g>
</svg>
