<?xml version="1.0" encoding="UTF-8" standalone="no"?>
<!-- Created with Inkscape (http://www.inkscape.org/) -->
<!-- Extracted from YugiPedia (https://ms.yugipedia.com//e/e1/BAM-LIGHT.svg) -->

<svg
   xmlns:dc="http://purl.org/dc/elements/1.1/"
   xmlns:cc="http://creativecommons.org/ns#"
   xmlns:rdf="http://www.w3.org/1999/02/22-rdf-syntax-ns#"
   xmlns:svg="http://www.w3.org/2000/svg"
   xmlns="http://www.w3.org/2000/svg"
   xmlns:xlink="http://www.w3.org/1999/xlink"
   xmlns:sodipodi="http://sodipodi.sourceforge.net/DTD/sodipodi-0.dtd"
   xmlns:inkscape="http://www.inkscape.org/namespaces/inkscape"
   width="76.931061"
   height="76.967583"
   id="svg3531"
   version="1.1"
   inkscape:version="0.48.1 "
   sodipodi:docname="New document 12">
  <defs
     id="defs3533">
    <radialGradient
       inkscape:collect="always"
       xlink:href="#linearGradient5851"
       id="radialGradient5857"
       cx="476.125"
       cy="49.375"
       fx="476.125"
       fy="49.375"
       r="1.6875"
       gradientTransform="matrix(-1.920442,-0.03703734,0.01919856,-0.59240749,1277.6758,578.1421)"
       gradientUnits="userSpaceOnUse" />
    <linearGradient
       inkscape:collect="always"
       id="linearGradient5851">
      <stop
         style="stop-color:#ffffff;stop-opacity:1;"
         offset="0"
         id="stop5853" />
      <stop
         style="stop-color:#ffffff;stop-opacity:0;"
         offset="1"
         id="stop5855" />
    </linearGradient>
    <radialGradient
       inkscape:collect="always"
       xlink:href="#linearGradient5835"
       id="radialGradient5841"
       cx="496.375"
       cy="49.142994"
       fx="496.375"
       fy="49.142994"
       r="1.625"
       gradientTransform="matrix(1.8431915,-6.4226252e-7,6.4777786e-7,0.63461537,-530.43283,499.58551)"
       gradientUnits="userSpaceOnUse" />
    <linearGradient
       inkscape:collect="always"
       id="linearGradient5835">
      <stop
         style="stop-color:#ffffff;stop-opacity:1;"
         offset="0"
         id="stop5837" />
      <stop
         style="stop-color:#ffffff;stop-opacity:0;"
         offset="1"
         id="stop5839" />
    </linearGradient>
    <radialGradient
       inkscape:collect="always"
       xlink:href="#linearGradient5843"
       id="radialGradient5849"
       cx="486.5"
       cy="59.568752"
       fx="486.5"
       fy="59.568752"
       r="1.21875"
       gradientTransform="matrix(-0.0809448,2.3988215,-0.97385351,-0.04732018,471.84095,-622.69826)"
       gradientUnits="userSpaceOnUse" />
    <linearGradient
       inkscape:collect="always"
       id="linearGradient5843">
      <stop
         style="stop-color:#ffffff;stop-opacity:1;"
         offset="0"
         id="stop5845" />
      <stop
         style="stop-color:#ffffff;stop-opacity:0;"
         offset="1"
         id="stop5847" />
    </linearGradient>
    <radialGradient
       inkscape:collect="always"
       xlink:href="#linearGradient5821"
       id="radialGradient5827"
       cx="485.42041"
       cy="39.520592"
       fx="485.42041"
       fy="39.520592"
       r="1.09375"
       gradientTransform="matrix(0.03470425,-4.2229944,0.99821281,0.01653528,317.18141,2571.2189)"
       gradientUnits="userSpaceOnUse" />
    <linearGradient
       inkscape:collect="always"
       id="linearGradient5821">
      <stop
         style="stop-color:#ffffff;stop-opacity:1;"
         offset="0"
         id="stop5823" />
      <stop
         style="stop-color:#ffffff;stop-opacity:0;"
         offset="1"
         id="stop5825" />
    </linearGradient>
    <radialGradient
       inkscape:collect="always"
       xlink:href="#linearGradient4568"
       id="radialGradient5683"
       cx="527.47852"
       cy="54.43079"
       fx="527.47852"
       fy="54.43079"
       r="13"
       gradientUnits="userSpaceOnUse"
       gradientTransform="matrix(0.99338934,0.0289106,-0.02810659,0.91321506,5.0090606,-10.606475)" />
    <linearGradient
       inkscape:collect="always"
       id="linearGradient4568">
      <stop
         style="stop-color:#ffffff;stop-opacity:1"
         offset="0"
         id="stop4570" />
      <stop
         style="stop-color:#a9af9a;stop-opacity:0;"
         offset="1"
         id="stop4572" />
    </linearGradient>
  </defs>
  <sodipodi:namedview
     id="base"
     pagecolor="#ffffff"
     bordercolor="#666666"
     borderopacity="1.0"
     inkscape:pageopacity="0.0"
     inkscape:pageshadow="2"
     inkscape:zoom="1.979899"
     inkscape:cx="39.163503"
     inkscape:cy="71.829979"
     inkscape:document-units="px"
     inkscape:current-layer="layer1"
     showgrid="false"
     fit-margin-top="0"
     fit-margin-left="0"
     fit-margin-right="0"
     fit-margin-bottom="0"
     inkscape:window-width="469"
     inkscape:window-height="455"
     inkscape:window-x="92"
     inkscape:window-y="92"
     inkscape:window-maximized="0" />
  <metadata
     id="metadata3536">
    <rdf:RDF>
      <cc:Work
         rdf:about="">
        <dc:format>image/svg+xml</dc:format>
        <dc:type
           rdf:resource="http://purl.org/dc/dcmitype/StillImage" />
        <dc:title></dc:title>
      </cc:Work>
    </rdf:RDF>
  </metadata>
  <g
     inkscape:label="Layer 1"
     inkscape:groupmode="layer"
     id="layer1"
     transform="translate(-335.40011,-492.65614)">
    <path
       d="m 362.92507,494.07209 c 12.9125,-3.45 27.9125,-0.6875 37.275,9.3 8.1875,7.95 13.1625,19.3375 11.95,30.8375 -0.6125,14.5375 -11.3125,26.875 -24.1125,32.75 -6.2375,3.05 -13.3875,2.875 -20.1375,2.3875 -6.55,-0.6625 -12.175,-4.325 -17.8,-7.425 l -0.67701,-0.50379 -0.79462,-0.78193 c -1.09146,-1.21073 -0.76161,-0.87708 -2.17991,-2.15895 -2.67683,-2.61202 -5.17346,-6.86783 -7.29846,-10.39283 -5.2625,-11.1125 -5,-24.7 0.875,-35.525 4.8625,-8.8125 13.2625,-15.5875 22.9,-18.4875 z"
       id="path12"
       inkscape:connector-curvature="0"
       style="fill:#d9e4e5"
       sodipodi:nodetypes="cccccccccccc" />
    <path
       style="fill:#333333"
       inkscape:connector-curvature="0"
       d="m 363.43757,498.82209 c 10.4125,-2.8125 22.5875,-1.9625 31.2875,4.9625 6.225,5.2 11.2125,12.2875 12.675,20.3875 1.725,9.7 -0.175,20.3375 -6.525,28.0625 -6.2375,7.4375 -15.5625,12.9125 -25.5,12.475 -8.5375,0.6 -17.1,-2.5 -23.5,-8.1125 -7.6375,-6.1875 -11.5,-16.2125 -11.1625,-25.9125 -0.5375,-14.0625 9.2875,-27.75 22.725,-31.8625 z"
       id="path20" />
    <path
       sodipodi:type="arc"
       style="fill:#fbbb02;fill-opacity:1"
       id="path5515"
       sodipodi:cx="487.625"
       sodipodi:cy="48.5"
       sodipodi:rx="25.875"
       sodipodi:ry="25.875"
       d="m 513.5,48.5 c 0,14.290368 -11.58463,25.875 -25.875,25.875 -14.29037,0 -25.875,-11.584632 -25.875,-25.875 0,-14.290368 11.58463,-25.875 25.875,-25.875 14.29037,0 25.875,11.584632 25.875,25.875 z"
       transform="matrix(1.1449275,0,0,1.1449275,-183.97022,475.8056)" />
    <path
       sodipodi:type="arc"
       style="fill:url(#radialGradient5683);fill-opacity:1"
       id="path5521"
       sodipodi:cx="527.625"
       sodipodi:cy="54.875"
       sodipodi:rx="13"
       sodipodi:ry="13"
       d="m 540.625,54.875 c 0,7.179702 -5.8203,13 -13,13 -7.1797,0 -13,-5.820298 -13,-13 0,-7.179702 5.8203,-13 13,-13 7.1797,0 13,5.820298 13,13 z"
       transform="matrix(2.4965597,0,0,2.2924529,-943.17219,405.78624)" />
    <path
       inkscape:connector-curvature="0"
       id="path146"
       d="m 359.85856,548.34709 c 1.9625,-2.3625 4.64928,-6.3968 6.58678,-8.7843 0.7375,0.1375 4.37512,2.53382 5.11262,2.67132 -0.6407,2.75434 -3.73888,12.69162 -5.0494,17.62548 -4.53998,-1.06213 -8.95142,-3.43681 -11.475,-5.9875 1.625,-1.9625 3.2,-3.55 4.825,-5.525 z m 17.39016,-6.60622 c 2.8125,-1.71694 3.62062,-2.80895 6.51434,-4.61878 3.57365,4.4392 7.94603,9.60841 11.94816,14.65983 -3.18893,3.49989 -7.4617,6.11757 -11.20266,7.34017 -2.425,-5.5875 -4.85438,-11.63128 -7.25984,-17.38122 z m -32.02766,-16.51878 c 5.02941,1.07742 11.93762,1.7476 16.8625,2.6375 0.26317,2.70285 0.0914,4.1869 0.5125,6.2 -5.50307,2.218 -11.87572,3.12025 -17.075,4.4625 -0.92223,-5.11391 -1.06353,-8.65409 -0.3,-13.3 z m 40.7125,2.975 c 5.1125,-2.125 11.1375,-3.8125 16.9125,-4.975 1.05,3.7375 1.5125,8.775 0.6875,12.9 -5.8,-0.975 -11.6,-1.7875 -17.45,-2.7 -0.7622,-2.34318 -0.34464,-1.20266 -0.15,-5.225 z m -32.6625,-17.925 c 3.63296,-3.30958 6.06147,-5.44476 10.375,-6.7125 2.19571,5.34803 5.0455,10.98347 6.7,15.33125 -1.675,1.025 -3.2375,2.46875 -4.7625,3.69375 -1.8,-1.8625 -4.1375,-4.2625 -5.975,-6.075 -2.37469,-2.42732 -4.55762,-3.83634 -6.3375,-6.2375 z m 23.483,8.64194 c 0.8125,-2.7375 3.75135,-11.21048 5.93885,-16.02298 3.93525,1.25693 6.98317,2.7239 10.73803,5.78434 -2.95,4.8625 -7.22375,9.50114 -10.83625,13.85114 -2.25902,-2.41406 -4.08886,-2.03254 -5.84063,-3.6125 z"
       style="fill:#f2f2f2"
       sodipodi:nodetypes="cccccccccccccccccccccccccccccccc" />
    <path
       sodipodi:type="arc"
       style="fill:#c24000;fill-opacity:1"
       id="path5768"
       sodipodi:cx="486"
       sodipodi:cy="49"
       sodipodi:rx="12.5"
       sodipodi:ry="12.875"
       d="m 498.5,49 c 0,7.110666 -5.59644,12.875 -12.5,12.875 -6.90356,0 -12.5,-5.764334 -12.5,-12.875 0,-7.110666 5.59644,-12.875 12.5,-12.875 6.90356,0 12.5,5.764334 12.5,12.875 z"
       transform="translate(-112.04993,482.20959)" />
    <path
       d="m 373.24159,509.49531 c 0.86857,3.09324 2.06914,6.33858 2.73348,9.48477 2.3375,0.6125 4.18214,0.88754 5.95714,2.62504 1.4375,2.2875 3.09863,5.07855 4.24863,7.52855 4.51428,0.4532 8.72637,0.62909 13.35137,1.52909 -4.67855,0.65355 -8.5692,1.27941 -13.03795,1.69816 l -0.64955,1.6442 c -0.55,1.225 -1,2.475 -1.525,3.7 -2.275,2.075 -4.7625,3.9625 -7.575,5.2375 l -0.40495,0.63391 c -0.5625,3.05 -1.04557,6.29553 -1.67682,9.50803 -0.77048,-2.91185 -1.62872,-6.62319 -2.22872,-9.64194 -1.82193,0.0697 -2.89716,0.0183 -4.16451,-1.2 -2.725,-2.2625 -4.675,-5.2 -6.35,-8.275 l -0.35625,-1.26875 c -4.9125,-0.525 -8.40625,-0.58125 -12.76875,-0.99375 4.1125,-0.725 8.2375,-1.2875 12.3625,-1.8875 0.45,-1.2125 0.9125,-2.4125 1.4125,-3.6125 0.7125,-1.225 1.475,-2.425 2.275,-3.6 1.525,-1.225 3.15,-2.2625 4.825,-3.2875 1.48125,0.69062 3.1,1.65 4.225,3.025 -4.9875,0.25 -7.9,4.3375 -9.425,8.6 1.3625,4.2875 3.5375,9.025 8.65,9.475 0.3625,0.7625 0.7375,1.5375 1.1125,2.3125 0.9125,-3.15 4.6,-3.725 6.5625,-6 1.275,-1.6875 2.2125,-3.6 3.2375,-5.45 -1.875,-4.3 -6.22813,-7.4375 -10.92813,-8.7625 -2.49904,-2.28766 -4.52102,-2.12505 -1.98944,-2.92053 0.4625,-3.0375 1.52342,-6.91696 2.12695,-10.10178 z"
       id="path68"
       inkscape:connector-curvature="0"
       style="fill:#c24000"
       sodipodi:nodetypes="ccccccccccccccccccccccccccccc" />
    <path
       transform="translate(-112.04993,481.83459)"
       sodipodi:type="arc"
       style="fill:#c24000;fill-opacity:1"
       id="path5801"
       sodipodi:cx="485.9375"
       sodipodi:cy="48.9375"
       sodipodi:rx="0.3125"
       sodipodi:ry="0.5625"
       d="m 486.25,48.9375 c 0,0.31066 -0.13991,0.5625 -0.3125,0.5625 -0.17259,0 -0.3125,-0.25184 -0.3125,-0.5625 0,-0.31066 0.13991,-0.5625 0.3125,-0.5625 0.17259,0 0.3125,0.25184 0.3125,0.5625 z" />
    <path
       transform="translate(-112.04993,481.83459)"
       sodipodi:type="arc"
       style="fill:#c24000;fill-opacity:1"
       id="path5803"
       sodipodi:cx="488.69919"
       sodipodi:cy="51.595516"
       sodipodi:rx="3.6239223"
       sodipodi:ry="3.8890872"
       d="m 492.32311,51.595516 c 0,2.147884 -1.62248,3.889087 -3.62392,3.889087 -2.00144,0 -3.62392,-1.741203 -3.62392,-3.889087 0,-2.147883 1.62248,-3.889087 3.62392,-3.889087 2.00144,0 3.62392,1.741204 3.62392,3.889087 z" />
    <path
       sodipodi:type="arc"
       style="fill:#ffffff;fill-opacity:1"
       id="path5807"
       sodipodi:cx="482.33521"
       sodipodi:cy="45.6735"
       sodipodi:rx="8.1317282"
       sodipodi:ry="8.1317282"
       d="m 490.46693,45.6735 c 0,4.49103 -3.6407,8.131728 -8.13172,8.131728 -4.49103,0 -8.13173,-3.640698 -8.13173,-8.131728 0,-4.491029 3.6407,-8.131728 8.13173,-8.131728 4.49102,0 8.13172,3.640699 8.13172,8.131728 z"
       transform="matrix(1.2826088,0,0,-1.2826088,-244.64974,589.80163)" />
    <rect
       style="fill:url(#radialGradient5827);fill-opacity:1"
       id="rect5811"
       width="2.1875"
       height="7.1875"
       x="372.29004"
       y="517.41919"
       ry="0" />
    <rect
       style="fill:url(#radialGradient5849);fill-opacity:1"
       id="rect5813"
       width="2.4375"
       height="4.5"
       x="373.20007"
       y="539.70959" />
    <rect
       style="fill:url(#radialGradient5841);fill-opacity:1"
       id="rect5817"
       width="5.5625"
       height="2.0625"
       x="381.70007"
       y="529.70959" />
    <rect
       style="fill:url(#radialGradient5857);fill-opacity:1"
       id="rect5819"
       width="4.375"
       height="2"
       x="361.01257"
       y="530.25757" />
  </g>
</svg>
