<?xml version="1.0" encoding="UTF-8" standalone="no"?>
<!-- Created with Inkscape (http://www.inkscape.org/) -->
<!-- Extracted from YugiPedia (https://ms.yugipedia.com//6/6c/BAM-WATER.svg) -->

<svg
   xmlns:dc="http://purl.org/dc/elements/1.1/"
   xmlns:cc="http://creativecommons.org/ns#"
   xmlns:rdf="http://www.w3.org/1999/02/22-rdf-syntax-ns#"
   xmlns:svg="http://www.w3.org/2000/svg"
   xmlns="http://www.w3.org/2000/svg"
   xmlns:xlink="http://www.w3.org/1999/xlink"
   xmlns:sodipodi="http://sodipodi.sourceforge.net/DTD/sodipodi-0.dtd"
   xmlns:inkscape="http://www.inkscape.org/namespaces/inkscape"
   width="76.935242"
   height="77.054573"
   id="svg3663"
   version="1.1"
   inkscape:version="0.48.1 "
   sodipodi:docname="New document 15">
  <defs
     id="defs3665">
    <linearGradient
       gradientTransform="matrix(1.25,0,0,1.25,-47.048022,399.60822)"
       inkscape:collect="always"
       xlink:href="#linearGradient6009"
       id="linearGradient6015"
       x1="340.75476"
       y1="81.440079"
       x2="349.80573"
       y2="93.460892"
       gradientUnits="userSpaceOnUse" />
    <linearGradient
       inkscape:collect="always"
       id="linearGradient6009">
      <stop
         style="stop-color:#f9f9f9;stop-opacity:1"
         offset="0"
         id="stop6011" />
      <stop
         style="stop-color:#83cbeb;stop-opacity:1"
         offset="1"
         id="stop6013" />
    </linearGradient>
    <linearGradient
       gradientTransform="matrix(1.25,0,0,1.25,-47.048022,399.60822)"
       inkscape:collect="always"
       xlink:href="#linearGradient5968"
       id="linearGradient5960"
       x1="344.21957"
       y1="83.985664"
       x2="348.25009"
       y2="89.783943"
       gradientUnits="userSpaceOnUse" />
    <linearGradient
       inkscape:collect="always"
       id="linearGradient5968">
      <stop
         style="stop-color:#83cbeb;stop-opacity:1;"
         offset="0"
         id="stop5970" />
      <stop
         style="stop-color:#83cbeb;stop-opacity:0;"
         offset="1"
         id="stop5972" />
    </linearGradient>
    <linearGradient
       gradientTransform="matrix(1.25,0,0,1.25,-47.048022,399.60822)"
       inkscape:collect="always"
       xlink:href="#linearGradient6052"
       id="linearGradient6058"
       x1="323.29999"
       y1="94.099998"
       x2="330.10001"
       y2="82.5"
       gradientUnits="userSpaceOnUse" />
    <linearGradient
       inkscape:collect="always"
       id="linearGradient6052">
      <stop
         style="stop-color:#83cbeb;stop-opacity:1"
         offset="0"
         id="stop6054" />
      <stop
         style="stop-color:#f9f9f9;stop-opacity:1"
         offset="1"
         id="stop6056" />
    </linearGradient>
  </defs>
  <sodipodi:namedview
     id="base"
     pagecolor="#ffffff"
     bordercolor="#666666"
     borderopacity="1.0"
     inkscape:pageopacity="0.0"
     inkscape:pageshadow="2"
     inkscape:zoom="2.8"
     inkscape:cx="87.66431"
     inkscape:cy="46.73876"
     inkscape:document-units="px"
     inkscape:current-layer="layer1"
     showgrid="false"
     fit-margin-top="0"
     fit-margin-left="0"
     fit-margin-right="0"
     fit-margin-bottom="0"
     inkscape:window-width="469"
     inkscape:window-height="455"
     inkscape:window-x="138"
     inkscape:window-y="138"
     inkscape:window-maximized="0" />
  <metadata
     id="metadata3668">
    <rdf:RDF>
      <cc:Work
         rdf:about="">
        <dc:format>image/svg+xml</dc:format>
        <dc:type
           rdf:resource="http://purl.org/dc/dcmitype/StillImage" />
        <dc:title></dc:title>
      </cc:Work>
    </rdf:RDF>
  </metadata>
  <g
     inkscape:label="Layer 1"
     inkscape:groupmode="layer"
     id="layer1"
     transform="translate(-335.39503,-492.67891)">
    <path
       d="m 362.56447,494.03322 c 13.0375,-3.2625 28.2,-0.8125 37.675,9.3375 7.95,7.7625 12.925,18.7375 11.975,29.975 -0.3125,11.0875 -6.325,21.3625 -15.0875,27.9375 -12.9125,11.475 -33.675,10.975 -46.9,0.25 l 0.5375,0.575 -0.25786,-0.29126 -1.16714,-1.12124 c -0.94062,-0.87969 -1.15447,-0.98752 -2.3625,-1.93797 -12.4625,-10.5125 -14.725,-30.92453 -7.475,-45.18703 4.675,-9.2125 13.2125,-16.425 23.0625,-19.5375 z"
       id="path162"
       inkscape:connector-curvature="0"
       style="fill:#d9e4e5"
       sodipodi:nodetypes="ccccccccccc" />
    <path
       style="fill:#333333"
       inkscape:connector-curvature="0"
       d="m 366.12697,498.04572 c 9.2625,-1.625 19.525,-0.8625 27.375,4.8 7.3375,5.4625 12.95,13.6875 14.1625,22.8875 1.1375,8.725 -0.525,18.0625 -5.85,25.2375 -6.3625,8.45 -16.7,14.45 -27.5125,13.7 -10.5375,0.55 -20.825,-4.9125 -27.225,-13.125 -6.1125,-7.9875 -7.4375,-18.675 -5.7,-28.35 2.6125,-12.125 12.5,-22.5625 24.75,-25.15 z"
       id="path168" />
    <path
       d="m 372.7653,498.36222 c 4.45942,-0.0416 5.73541,3.22261 7.61167,6.4335 0.675,2.075 1.375,4.125 2.1875,6.15 0.575,1.5375 1.275,3.0375 2,4.5125 0.8,1.675 1.6125,3.35 2.425,5.025 1.075,2.2125 2.175,4.4125 3.2875,6.6125 1.125,2.2125 2.2875,4.4125 3.35,6.6625 3.0375,7.2125 1.4875,15.7375 -3.4,21.75 -4.2875,4.1625 -9.1875,7.3375 -16.05,7.55 -6.43125,-0.25625 -12.025,-3.5875 -16.375,-7.9625 -4.2375,-5.4875 -5.7375,-12.8125 -3.225,-19.3875 1.025,-3.125 2.1625,-6.2125 3.475,-9.2375 0.9625,-2.175 1.95,-4.35 2.8875,-6.5375 0.2875,-0.6875 0.85,-2.0625 1.1375,-2.75 0.9125,-2.225 1.85,-4.45 2.7,-6.6875 0.6375,-1.85 1.175,-3.7375 1.75,-5.6 0.8671,-2.01872 2.01504,-5.86512 6.23833,-6.5335 z"
       id="path170"
       inkscape:connector-curvature="0"
       style="fill:#ffffff"
       sodipodi:nodetypes="ccccccccccccccccc" />
    <path
       style="fill:#00608a"
       inkscape:connector-curvature="0"
       d="m 373.23947,504.20822 c 4.925,10.5375 9.275,21.35 14.9625,31.525 4.325,9.35 -3.4375,21.75 -13.925,21.125 -10.1875,0.7 -18.2125,-11 -14.1,-20.375 4.8,-10.5625 9.25,-21.3 13.0625,-32.275 z"
       id="path190" />
    <path
       style="fill:#83d8ff"
       inkscape:connector-curvature="0"
       d="m 373.42697,509.25822 c 3.275,6.0375 5.6625,12.5 8.9625,18.5375 2.1375,4.1875 4.9375,8.325 5.275,13.1625 -0.25,6.7 -6.7375,12.5875 -13.4375,12.15 -7.9875,0.6125 -15.8875,-8.125 -12.7375,-15.9875 3.4125,-9.5125 9.1,-18.0875 11.9375,-27.8625 z"
       id="path206" />
    <path
       inkscape:connector-curvature="0"
       id="path220"
       style="fill:url(#linearGradient6058);fill-opacity:1"
       d="m 347.05989,518.85242 0.005,0.006 c 4.5875,0.7625 9.2375,1.0375 13.875,1.075 -0.9375,2.1875 -1.925,4.3625 -2.8875,6.5375 -4.0625,-1.3625 -8.225,-2.5625 -12.55,-2.6875 0.29063,-1.67617 0.62967,-3.34371 1.55791,-4.93081 z m 2.69128,-4.925 0.0132,-0.007 c 3.825,0.4125 7.675,0.5875 11.525,0.9625 0.1875,0.575 0.5875,1.725 0.7875,2.3 -0.2875,0.6875 -0.85,2.0625 -1.1375,2.75 -4.6375,-0.0375 -9.2875,-0.3125 -13.875,-1.075 0.7375,-1.675 1.3992,-3.24956 2.6867,-4.93081 z m 0.0133,-0.007 c 1.2125,-1.7125 2.4625,-3.4125 3.7,-5.125 3.775,0.475 7.5625,0.975 11.3125,1.7 -0.85,2.2375 -1.7875,4.4625 -2.7,6.6875 -0.2,-0.575 -0.6,-1.725 -0.7875,-2.3 -3.85,-0.375 -7.7,-0.55 -11.525,-0.9625 z m 3.7,-5.125 c 3.70564,-3.91635 10.44767,-8.17652 15.15625,-7.9625 -0.94426,1.45533 -1.01875,1 -3.84375,9.6625 -3.75,-0.725 -7.5375,-1.225 -11.3125,-1.7 z" />
    <path
       inkscape:connector-curvature="0"
       id="path226"
       style="fill:url(#linearGradient5960);fill-opacity:1"
       d="m 386.98947,520.48322 c 4.975,-1.0625 10.075,-1.2375 15.1375,-1.075 0.60848,1.3625 0.85089,2.29556 1.15,4.1125 -4.3,1.3375 -8.6375,2.5125 -13,3.575 -1.1125,-2.2 -2.2125,-4.4 -3.2875,-6.6125 z m 10.8625,-7.875 0.0156,0.0172 c 1.83614,2.64106 2.98437,4.44532 4.25937,6.78282 -5.0625,-0.1625 -10.1625,0.0125 -15.1375,1.075 -0.8125,-1.675 -1.625,-3.35 -2.425,-5.025 4.3625,-1.2875 9.3,-0.4125 13.2875,-2.85 z m -14.425,-3.725 c 3.4625,-0.4375 6.95,-0.725 10.425,-1.1375 2.04462,2.05444 3.02855,3.45847 4,4.8625 -3.9875,2.4375 -8.925,1.5625 -13.2875,2.85 -0.725,-1.475 -1.425,-2.975 -2,-4.5125 0.2125,-0.5125 0.65,-1.5375 0.8625,-2.0625 z m -5.475,-8.06875 c 5.3125,0.6125 12.6375,4.41875 15.9,6.93125 -3.475,0.4125 -6.9625,0.7 -10.425,1.1375 -0.2125,0.525 -0.65,1.55 -0.8625,2.0625 -2.12215,-5.4758 -2.20278,-6.02291 -4.6125,-10.13125 z" />
    <path
       style="fill:#a8e4ff"
       inkscape:connector-curvature="0"
       d="m 345.50197,523.78322 c 4.325,0.125 8.4875,1.325 12.55,2.6875 -1.3125,3.025 -2.45,6.1125 -3.475,9.2375 l 0.1,-1.825 c -3.175,0.65 -6.3,1.5375 -9.4,2.4375 -0.5125,-4.175 -0.3,-8.375 0.225,-12.5375 z"
       id="path242" />
    <path
       d="m 390.27697,527.09572 c 4.3625,-1.0625 8.7,-2.2375 13,-3.575 1.16962,6.63826 0.87098,8.2192 0.3875,12.275 -3.25,-1.075 -6.6,-1.8875 -10.0375,-2.0375 -1.0625,-2.25 -2.225,-4.45 -3.35,-6.6625 z"
       id="path244"
       inkscape:connector-curvature="0"
       style="fill:#a8e4ff"
       sodipodi:nodetypes="ccccc" />
    <path
       style="fill:#cbeaf8"
       inkscape:connector-curvature="0"
       d="m 374.41447,532.42072 c -1.35,-3.275 4.4375,-3.575 3.35,-0.1875 -1.125,0.075 -2.2375,0.15 -3.35,0.1875 z"
       id="path254" />
    <path
       d="m 374.41447,532.42072 c 1.1125,-0.0375 2.225,-0.1125 3.35,-0.1875 5.79959,-0.59959 10.375,8.6375 5.65,12.7375 -2.2125,3.075 -8.55977,3.4237 -11.05977,0.2362 l 1.7138,-0.0688 c 5.925,-1.85 1.65949,-9.86161 -3.72801,-10.78661 0.425,-0.4875 2.7651,-1.56339 4.07398,-1.9308 z"
       id="path258"
       inkscape:connector-curvature="0"
       style="fill:#289cd0"
       sodipodi:nodetypes="ccccccc" />
    <path
       style="fill:#41a9d7"
       inkscape:connector-curvature="0"
       d="m 393.62697,533.75822 c 3.4375,0.15 6.7875,0.9625 10.0375,2.0375 -1.575,8.05 -6.4875,15.325 -13.4375,19.7125 4.8875,-6.0125 6.4375,-14.5375 3.4,-21.75 z"
       id="path260" />
    <path
       style="fill:#41a9d7"
       inkscape:connector-curvature="0"
       d="m 345.27697,536.32072 c 3.1,-0.9 6.225,-1.7875 9.4,-2.4375 l -0.1,1.825 c -2.5125,6.575 -1.0125,13.9 3.225,19.3875 -6.925,-3.9375 -10.75,-11.2625 -12.525,-18.775 z"
       id="path262" />
    <path
       d="m 367.15641,537.27291 c 1.3054,-3.52263 3.77904,-3.6289 5.57056,-3.5401 5.3875,0.925 7.4875,9.68791 1.5625,11.53791 -5.1875,1.275 -8.04556,-3.39781 -7.13306,-7.99781 z"
       id="path264"
       inkscape:connector-curvature="0"
       style="fill:#fcfeff"
       sodipodi:nodetypes="cccc" />
    <path
       inkscape:connector-curvature="0"
       id="path226-8"
       style="fill:url(#linearGradient6015);fill-opacity:1"
       d="m 386.95979,520.4876 c 4.975,-1.0625 10.075,-1.2375 15.1375,-1.075 0.60847,1.3625 0.85088,2.29555 1.15,4.1125 -4.3,1.3375 -8.6375,2.5125 -13,3.575 -1.1125,-2.2 -2.2125,-4.4 -3.2875,-6.6125 z m 10.8625,-7.87501 0.0156,0.0172 c 1.83613,2.64106 2.98436,4.44532 4.25936,6.78282 -5.0625,-0.1625 -10.1625,0.0125 -15.1375,1.075 -0.8125,-1.675 -1.625,-3.35 -2.425,-5.025 4.3625,-1.2875 9.3,-0.4125 13.2875,-2.85 z m -14.425,-3.725 c 3.4625,-0.4375 6.95,-0.725 10.425,-1.1375 2.04461,2.05444 3.02855,3.45847 4,4.8625 -3.9875,2.4375 -8.925,1.5625 -13.2875,2.85 -0.725,-1.475 -1.425,-2.975 -2,-4.5125 0.2125,-0.5125 0.65,-1.5375 0.8625,-2.0625 z m -5.475,-8.06875 c 5.3125,0.6125 12.6375,4.41875 15.9,6.93125 -3.475,0.4125 -6.9625,0.7 -10.425,1.1375 -0.2125,0.525 -0.65,1.55 -0.8625,2.0625 -2.12215,-5.4758 -2.20279,-6.02291 -4.6125,-10.13125 z" />
  </g>
</svg>
