<?xml version="1.0" encoding="UTF-8" standalone="no"?>
<!-- Created with Inkscape (http://www.inkscape.org/) -->
<!-- Extracted from YugiPedia (https://ms.yugipedia.com//6/6c/BAM-WIND.svg) -->

<svg
   xmlns:dc="http://purl.org/dc/elements/1.1/"
   xmlns:cc="http://creativecommons.org/ns#"
   xmlns:rdf="http://www.w3.org/1999/02/22-rdf-syntax-ns#"
   xmlns:svg="http://www.w3.org/2000/svg"
   xmlns="http://www.w3.org/2000/svg"
   xmlns:sodipodi="http://sodipodi.sourceforge.net/DTD/sodipodi-0.dtd"
   xmlns:inkscape="http://www.inkscape.org/namespaces/inkscape"
   width="76.85199"
   height="77.151932"
   id="svg3760"
   version="1.1"
   inkscape:version="0.48.1 "
   sodipodi:docname="New document 18">
  <defs
     id="defs3762" />
  <sodipodi:namedview
     id="base"
     pagecolor="#ffffff"
     bordercolor="#666666"
     borderopacity="1.0"
     inkscape:pageopacity="0.0"
     inkscape:pageshadow="2"
     inkscape:zoom="0.98994949"
     inkscape:cx="2.1122067"
     inkscape:cy="3.3101933"
     inkscape:document-units="px"
     inkscape:current-layer="layer1"
     showgrid="false"
     fit-margin-top="0"
     fit-margin-left="0"
     fit-margin-right="0"
     fit-margin-bottom="0"
     inkscape:window-width="469"
     inkscape:window-height="455"
     inkscape:window-x="23"
     inkscape:window-y="23"
     inkscape:window-maximized="0" />
  <metadata
     id="metadata3765">
    <rdf:RDF>
      <cc:Work
         rdf:about="">
        <dc:format>image/svg+xml</dc:format>
        <dc:type
           rdf:resource="http://purl.org/dc/dcmitype/StillImage" />
        <dc:title></dc:title>
      </cc:Work>
    </rdf:RDF>
  </metadata>
  <g
     inkscape:label="Layer 1"
     inkscape:groupmode="layer"
     id="layer1"
     transform="translate(-288.98475,-535.52559)">
    <path
       d="m 314.53935,537.56085 c 13.3,-4.3875 29.375,-1.775 39.1375,8.75 7.425,7.25 12.4125,17.275 12.15,27.8 0.5,21.3 -20.05,40.4875 -41.275,38.4125 -7.4375,0.1125 -13.8625,-3.85 -20.25,-7.1 l -0.825,-0.4 -5.68008,-6.26983 c 0.0375,-1.9125 3.79258,2.11983 2.23008,1.49483 -3.3125,-1.35 -4.7,-4.975 -6.4875,-7.8 -4.9125,-8.4 -5.4625,-18.7 -3.4875,-28.05 3.1,-12.2 12.525,-22.75 24.4875,-26.8375 z"
       id="path164"
       inkscape:connector-curvature="0"
       style="fill:#d9e4e5"
       sodipodi:nodetypes="ccccccccccc" />
    <path
       style="fill:#333333"
       inkscape:connector-curvature="0"
       d="m 321.01435,540.72335 c 7.925,-0.9625 16.45,-0.6625 23.5,3.5 10.2875,6.0875 17.425,17.775 16.975,29.875 0.1375,9.6375 -3.95,19.35 -11.5,25.4625 -12.3125,11.35 -33.2125,10.775 -45.275,-0.65 -9.7125,-8.275 -12.35,-22.375 -9.4625,-34.3625 3.25,-11.8875 13.4375,-21.8625 25.7625,-23.825 z"
       id="path174" />
    <path
       d="m 311.18935,549.41085 c 6.5875,-5.5125 15.7125,-5.325 23.75,-4.25 4.7625,1.6125 10.625,3.55 12.9875,8.35 0.6125,0.4 1.49687,1.27812 2.10937,1.69062 -0.1625,0.5625 0.20663,0.39694 0.0441,0.97194 2.85048,0.73962 5.66683,9.69334 5.87933,11.75584 -0.71513,-2.36864 -7.20612,-16.289 -2.14538,-7.1059 4.45,9.7625 3.55,21.9125 -3.1,30.4875 -5.1375,5.4875 -11.7125,11.1125 -19.6875,10.9375 -6.475,-4.0125 -15.4875,-5.8125 -18.375,-13.8375 -2.55,-5.4 0.4625,-11 4,-15.075 -1.0125,3.875 -2.875,7.8875 -1.525,11.925 1.4375,6.35 8.125,10.4125 14.425,9.8625 5.1875,0.0875 10.1375,-2.35 13.6625,-6.0625 5.6875,-5.825 9.5,-14.175 7.925,-22.4125 -0.8875,-5.4375 -4.7,-9.625 -7.9625,-13.8125 0.8,0.35 2.4,1.0375 3.2125,1.375 l 0.6375,0.35 0.525,-0.3375 c 0.6,1.1625 0.6,1.1625 0,0 l -0.6,-0.4875 -0.5625,0.475 0.85,-1.975 c -4.2375,-2.8875 -8.6375,-6.1125 -13.9,-6.6625 -7.05,-0.5625 -15.3125,-1.20625 -21.2625,3.35625 7.2625,-1.375 15.5125,-2.73125 22.675,0.0312 6.3,2.55 12.89318,11.21415 14.38068,17.68915 -5.1,-5.225 -12.68068,-14.56415 -20.64318,-14.86415 -8.225,0.175 -17.0125,1.1 -23.9625,5.9 -2.8375,1.725 -3.675,5.1375 -4.8375,8.0125 l 0.0625,-0.525 c 0.9125,-6.675 6.2125,-12 11.4375,-15.7625 z"
       id="path184"
       inkscape:connector-curvature="0"
       style="fill:#e3f7fc"
       sodipodi:nodetypes="ccccccccccccccccccccccccccccccccc" />
    <path
       d="m 311.32777,549.26798 c 5.95,-4.5625 12.48605,-5.63945 22.94214,-4.18456 6.32316,0.46161 13.37095,6.32015 15.26615,9.517 l 2.70622,3.6023 c -4.17126,-3.51948 -6.95293,-4.20437 -7.75293,-4.55437 3.2625,4.1875 5.7,7.5625 6.5875,13 1.575,8.2375 -2.2375,16.5875 -7.925,22.4125 -3.525,3.7125 -8.475,6.15 -13.6625,6.0625 -6.3,0.55 -12.9875,-3.5125 -14.425,-9.8625 -1.35,-4.0375 0.5125,-8.05 1.525,-11.925 -3.5375,4.075 -6.55,9.675 -4,15.075 2.8875,8.025 11.9,9.825 18.375,13.8375 -3.75,0.0625 -7.6875,0.6875 -11.2875,-0.625 -3.0625,-1.4375 -6.45,-2.5375 -8.9125,-4.9375 -5.625,-6.7875 -4.85,-17.6 1.0125,-24 3.1,-3.8125 7.6625,-7.0125 12.85,-6.1 4.05,-0.175 9.84851,5.61687 9.76101,9.35437 -1.2125,2.3625 -7.21836,2.22684 -9.39336,3.45184 0.375,-1.2625 1.71985,-3.47184 1.89485,-5.64371 -1.8125,-0.475 -3.975,-2.2375 -5.625,-0.4125 -1.6125,1.85 -2.525,4.425 -1.9125,6.875 1.8375,3.675 6.65,6.7875 10.6625,4.425 8.725,-4.2375 8.15,-18.975 -0.925,-22.45 -8.725,-3.1125 -20.2375,-0.825 -25.1875,7.575 -3.0875,4.9625 -2.85,11.075 -1.2375,16.4875 -0.3375,0.125 -0.775,1.2 -1.1125,1.3375 -1.24402,-3.25873 -2.53288,-5.78343 -2.87373,-9.41737 -0.36125,-3.85145 0.47139,-10.13352 1.10812,-13.75452 1.1625,-2.87501 1.90311,-5.00311 5.67811,-7.91561 9.825,-6.3 17.6125,-5.4125 22.9625,-4.7125 8.5875,0.675 14.3,8.05 19.4,13.275 -1.4875,-6.475 -6.8375,-13.55 -13.1375,-16.1 -7.1625,-2.7625 -16.09908,-1.06787 -23.36158,0.30713 z"
       id="path192"
       inkscape:connector-curvature="0"
       style="fill:#007dec"
       sodipodi:nodetypes="ccccccccccccccccccccccccccscccccc" />
    <path
       style="fill:#097ee6"
       inkscape:connector-curvature="0"
       d="m 347.55185,554.22335 c 0.6,1.1625 0.6,1.1625 0,0 z"
       id="path216" />
    <path
       d="m 303.96435,569.3631 c 4.95,-8.4 16.4625,-10.28975 25.1875,-7.17725 9.075,3.475 9.65,18.2125 0.925,22.45 -4.0125,2.3625 -8.825,-0.75 -10.6625,-4.425 -0.6125,-2.45 0.3,-5.025 1.9125,-6.875 1.68125,-1.52813 3.07812,-1.20313 4.89062,-0.72813 0.42006,0.2498 1.47329,0.34093 1.44825,2.13645 -0.0113,0.80938 0.0862,1.6771 -2.18887,4.02918 3.78808,-0.4074 5.70597,-1.95113 5.92411,-3.69492 0.59574,-3.64911 -2.66161,-8.66758 -6.71161,-8.49258 -5.1875,-0.9125 -9.75,2.2875 -12.85,6.1 -5.8625,6.4 -6.6375,17.2125 -1.0125,24 2.4625,2.4 5.85,3.5 8.9125,4.9375 -5.375,-0.775 -10.9875,-4.725 -14.6125,-8.5375 -1.5875,-1.775 -2.62616,-2.83625 -3.82473,-5.38884 -0.74334,-1.85423 -1.12527,-3.56116 -1.88777,-5.61116 -1.39375,-6.3375 -0.6625,-11.90625 0.44375,-17.85 l -0.10625,0.9375 -0.5,3.15 c -1.3567,7.71293 -0.6098,13.3244 2.30758,18.0259 2.32624,1.32091 -0.34196,1.30535 -0.005,1.18035 -0.37506,-6.38478 -0.67813,-13.204 2.40937,-18.1665 z"
       id="path234"
       inkscape:connector-curvature="0"
       style="fill:#f3fcff"
       sodipodi:nodetypes="ccccccsccccccccccccccc" />
  </g>
</svg>
