<svg width="31" height="31" xmlns="http://www.w3.org/2000/svg">

 <g>
  <title>background</title>
  <rect fill="none" id="canvas_background" height="33" width="33" y="-1" x="-1"/>
 </g>
 <g>
  <title>Layer 1</title>
  <path id="svg_16" fill="#2f7ed8" d="m28.243807,4.659548c-4.500999,0.5352 -8.204769,-0.81942 -11.28495,-3.63849c-0.790199,-0.72327 -1.975262,-0.72327 -2.765461,0c-3.080189,2.81913 -6.783958,4.17368 -11.285019,3.63849c-1.215681,-0.1445 -2.283201,0.8556 -2.210711,2.0777c0.95237,16.05049 10.979401,22.00384 14.013441,23.445621c0.551029,0.261789 1.179008,0.261789 1.73003,0c3.03405,-1.44178 13.06102,-7.39513 14.013378,-23.445621c0.072491,-1.2221 -0.995029,-2.2222 -2.210709,-2.0777z"/>
  <path id="svg_17" fill="#3ba5fc" d="m15.571848,27.186995c-2.841011,-1.444469 -10.581671,-6.53286 -11.784571,-19.516919c0.341309,0.019071 0.679689,0.028851 1.015129,0.028851c4.01556,0 7.627211,-1.33493 10.773352,-3.975461c3.146137,2.64053 6.75877,3.975461 10.77335,3.975461c0.334469,0 0.672848,-0.00978 1.01416,-0.02836c-1.211712,12.958628 -8.991482,18.079789 -11.79142,19.516428z"/>
 </g>
</svg>