<svg width="512" height="512" xmlns="http://www.w3.org/2000/svg">

 <g>
  <title>background</title>
  <rect fill="none" id="canvas_background" height="402" width="582" y="-1" x="-1"/>
 </g>
 <g>
  <title>Layer 1</title>
  <path fill="#3ba5fc" id="XMLID_13814_" d="m190.100998,250.132996l26.359009,-26.358994l-83.811005,-83.811005c-1.820007,-1.819992 -1.820007,-4.770996 0,-6.589996c1.819992,-1.819 4.770004,-1.819 6.589996,0l83.811005,83.811005l26.358994,-26.359009l-89.49501,-89.49501l-75.624985,-19.189987l16.392998,78.574997l89.418999,89.417999z"/>
  <rect fill="#3ba5fc" y="300.187" x="279.477" width="37.278" transform="matrix(0.7071 -0.7071 0.7071 0.7071 -147.2936 307.9705)" id="XMLID_13815_" height="63.204"/>
  <path fill="#3ba5fc" id="XMLID_13816_" d="m90.43,389.343994c-4.709,4.708984 -7.393997,10.863007 -7.557999,17.325989c-0.163002,6.375 2.153,12.291016 6.521996,16.660004c4.211006,4.210999 9.908005,6.528992 16.042,6.528992c6.692001,0 13.065002,-2.685974 17.943001,-7.565979l22.029007,-22.029022l-32.949005,-32.948975l-22.028999,22.028992z"/>
  <path fill="#3ba5fc" id="XMLID_13817_" d="m429.128998,406.670013c-0.165009,-6.463013 -2.850006,-12.617004 -7.55899,-17.324005l-22.029022,-22.031006l-32.948975,32.949005l22.028992,22.028992c4.878998,4.881012 11.251007,7.56601 17.941986,7.56601c6.13501,0 11.832001,-2.317993 16.042999,-6.528992c4.369019,-4.369019 6.684998,-10.285004 6.52301,-16.660004z"/>
  <rect fill="#3ba5fc" y="361.29" x="118.815" width="46.597" transform="matrix(-0.7071 -0.7071 0.7071 -0.7071 -19.4581 733.1609)" id="XMLID_13818_" height="18.641"/>
  <rect fill="#3ba5fc" y="341.523" x="138.585" width="46.596" transform="matrix(-0.7071 -0.7071 0.7071 -0.7071 28.2824 713.3979)" id="XMLID_13819_" height="18.638"/>
  <path fill="#3ba5fc" id="XMLID_13820_" d="m427.710999,82.139999l-75.626984,19.189003l-92.790009,92.790001l-65.89801,65.897995l-47.987991,47.988007l26.360001,26.359009l200.993988,-200.993011c1.817993,-1.819 4.770996,-1.819 6.58902,0c1.819977,1.819992 1.819977,4.770996 0,6.589996l-200.993011,200.993988l26.360001,26.359009l206.600998,-206.598999l16.391998,-78.574997z"/>
  <rect fill="#3ba5fc" y="341.521" x="326.819" width="46.599" transform="matrix(0.7071 -0.7071 0.7071 0.7071 -145.5347 350.3372)" id="XMLID_13821_" height="18.64"/>
  <rect fill="#3ba5fc" y="361.29" x="346.589" width="46.597" transform="matrix(0.7071 -0.7071 0.7071 0.7071 -153.7236 370.099)" id="XMLID_13822_" height="18.641"/>
  <rect fill="#3ba5fc" y="267.237" x="312.427" width="37.278" transform="matrix(-0.7071 0.7071 -0.7071 -0.7071 776.4762 276.0517)" id="XMLID_13823_" height="63.205"/>
 </g>
</svg>