<svg width="512" height="512" xmlns="http://www.w3.org/2000/svg">

 <g>
  <title>background</title>
  <rect fill="none" id="canvas_background" height="402" width="582" y="-1" x="-1"/>
 </g>
 <g>
  <title>Layer 1</title>
  <ellipse ry="208.979541" rx="213.061194" id="svg_6" cy="251.047611" cx="260.408198" stroke-opacity="null" stroke-width="null" stroke="null" fill="#3ba5fc"/>
  <path fill="#4424b8" id="svg_2" d="m221.992004,154.309998l0.019989,-0.018997c16.101013,-11.727997 35.924011,-18.647003 57.367004,-18.647003c11.985016,0 23.380005,1.863998 33.965027,5.848007c0.686981,0.248001 1.595978,0.403992 2.008972,0.403992c2.531006,0 4.389008,-1.737 4.403992,-4.196991c0.006012,-1.672012 -0.822998,-3.06601 -1.893982,-4.055008c-28.040009,-25.818001 -57.826996,-36.478996 -57.826996,-36.478996c-66.473007,26.581001 -115.355011,90.861992 -116.755005,164.324989c-0.600998,20.89801 4.389008,42.210999 15.611008,61.645996c6.655991,11.534027 14.98999,21.503998 24.5,29.776001c-18.201004,-8.10199 -34.096008,-21.807983 -44.822006,-40.373993c-5.994995,-10.384003 -10.084991,-21.179993 -11.929001,-32.330994c-0.121994,-0.71701 -0.434998,-1.587006 -0.645996,-1.940002c-1.258003,-2.190002 -3.696999,-2.938995 -5.833,-1.707001c-1.459,0.819 -2.243004,2.242981 -2.556,3.656982c-8.348,37.19101 -2.681999,68.322021 -2.681999,68.322021c57.074005,44.917999 138.729004,54.744995 203.519989,17.352997c30.475006,-17.605011 50.029999,-46.867004 56.252014,-78.897003l0.020996,0.040985c2.10199,19.817017 -1.82901,40.423004 -12.54599,59.009003c-5.990021,10.373993 -13.296997,19.312012 -22.03302,26.503021c-0.566986,0.465973 -1.15799,1.172974 -1.363983,1.524994c-1.263,2.182983 -0.688019,4.667999 1.43399,5.908997c1.450012,0.850006 3.065002,0.816986 4.450012,0.373993c36.388,-11.362 60.507996,-31.826996 60.507996,-31.826996c10.191986,-70.646027 -20.837006,-144.910995 -83.388,-182.956009c-29.374023,-18.241989 -66.080017,-22.923981 -99.786011,-11.262985zm133.067993,88.746002c0.938995,4.686996 1.459991,9.505005 1.459991,14.403992c0,46.098999 -43.190002,83.451996 -96.479004,83.451996c-53.291992,0 -96.481979,-37.353973 -96.481979,-83.451996c0,-4.898987 0.514999,-9.716995 1.459,-14.403992c20.024994,-20.535004 55.080002,-34.181 95.022003,-34.181c39.934998,0 74.994995,13.645996 95.019989,34.181z"/>
  <path fill="#4424b8" id="svg_3" d="m242.218994,222.641998c7.417999,2.604996 12.741989,9.667007 12.741989,17.979004c0,10.524994 -8.514999,19.040985 -19.039993,19.040985c-8.311996,0 -15.378006,-5.312988 -17.973999,-12.747986c-2.328995,5.483994 -3.606003,11.505005 -3.606003,17.828003c0,25.252991 20.464005,45.695007 45.701004,45.695007c25.242004,0 45.700012,-20.442017 45.700012,-45.695007c0,-25.242004 -20.463013,-45.706009 -45.700012,-45.706009c-6.322998,0 -12.347992,1.292999 -17.822998,3.606003z"/>
  <path fill="#4424b8" id="svg_4" d="m256,0c-141.385002,0 -256,114.614998 -256,256s114.614998,256 256,256s256,-114.61499 256,-256s-114.61499,-256 -256,-256zm172.542999,362.639008c0,0 -65.761993,59.160004 -168.506989,59.160004c-102.745026,0 -168.506012,-59.160004 -168.506012,-59.160004c-20.326996,-126.765015 58.468002,-252.277008 168.510986,-292.508011c110.038025,40.231003 188.824005,165.742996 168.502014,292.508011z"/>
  <ellipse ry="0.816326" id="svg_7" cy="162.884375" cx="359.183681" stroke-opacity="null" stroke-width="null" stroke="null" fill="#d3d332"/>
  <ellipse rx="0.408163" id="svg_8" cy="149.006826" cx="376.734698" stroke-opacity="null" stroke-width="null" stroke="null" fill="#d3d332"/>
 </g>
</svg>