<!-- Extracted from https://www.iconfinder.com/icons/216456/arrow_icon -->
<svg width="17.727" height="26.062" xmlns="http://www.w3.org/2000/svg">

 <g>
  <title>background</title>
  <rect fill="none" id="canvas_background" height="402" width="582" y="-1" x="-1"/>
 </g>
 <g>
  <title>Layer 1</title>
  <path fill="#6f31fd" id="svg_1" d="m16.539,10.028l-8.835,-8.835c-0.769,-0.769 -1.794,-1.193 -2.887,-1.193c-1.092,0 -2.117,0.424 -2.886,1.193l-0.738,0.738c-0.769,0.767 -1.193,1.793 -1.193,2.885s0.424,2.117 1.193,2.887l5.328,5.328l-5.328,5.327999c-0.769,0.77 -1.193,1.794001 -1.193,2.887001s0.424,2.118 1.194,2.886999l0.736,0.736c0.77,0.771 1.794,1.193001 2.887,1.193001s2.117,-0.424 2.887,-1.193001l8.835,-8.835999c0.787001,-0.785001 1.216,-1.875001 1.186001,-3.002001c0.029999,-1.126 -0.397001,-2.215 -1.186001,-3.003zm-1.414,4.591001l-8.835,8.835999c-0.403,0.403999 -0.938,0.607 -1.473,0.607s-1.068,-0.203001 -1.474,-0.607l-0.736,-0.737c-0.811,-0.809 -0.811,-2.135 0,-2.943001l6.742,-6.742l-6.742,-6.744c-0.811,-0.81 -0.811,-2.136 0,-2.943l0.736,-0.737c0.406,-0.406 0.94,-0.609 1.474,-0.609c0.535,0 1.069,0.203 1.473,0.607l8.835,8.835c0.436,0.434999 0.628,1.018 0.598,1.589c0.030001,0.571 -0.162999,1.154 -0.598,1.588z"/>
 </g>
</svg>