<svg width="1662.0000000000002" height="1792" xmlns="http://www.w3.org/2000/svg">

 <g>
  <title>background</title>
  <rect fill="none" id="canvas_background" height="1794" width="1664" y="-1" x="-1"/>
 </g>
 <g>
  <title>Layer 1</title>
  <path fill="#4424b8" id="svg_1" d="m384,1536q0,-53 -37.5,-90.5t-90.5,-37.5t-90.5,37.5t-37.5,90.5t37.5,90.5t90.5,37.5t90.5,-37.5t37.5,-90.5zm384,0q0,-53 -37.5,-90.5t-90.5,-37.5t-90.5,37.5t-37.5,90.5t37.5,90.5t90.5,37.5t90.5,-37.5t37.5,-90.5zm-384,-384q0,-53 -37.5,-90.5t-90.5,-37.5t-90.5,37.5t-37.5,90.5t37.5,90.5t90.5,37.5t90.5,-37.5t37.5,-90.5zm768,384q0,-53 -37.5,-90.5t-90.5,-37.5t-90.5,37.5t-37.5,90.5t37.5,90.5t90.5,37.5t90.5,-37.5t37.5,-90.5zm-384,-384q0,-53 -37.5,-90.5t-90.5,-37.5t-90.5,37.5t-37.5,90.5t37.5,90.5t90.5,37.5t90.5,-37.5t37.5,-90.5zm-384,-384q0,-53 -37.5,-90.5t-90.5,-37.5t-90.5,37.5t-37.5,90.5t37.5,90.5t90.5,37.5t90.5,-37.5t37.5,-90.5zm768,384q0,-53 -37.5,-90.5t-90.5,-37.5t-90.5,37.5t-37.5,90.5t37.5,90.5t90.5,37.5t90.5,-37.5t37.5,-90.5zm-384,-384q0,-53 -37.5,-90.5t-90.5,-37.5t-90.5,37.5t-37.5,90.5t37.5,90.5t90.5,37.5t90.5,-37.5t37.5,-90.5zm768,768l0,-384q0,-52 -38,-90t-90,-38t-90,38t-38,90l0,384q0,52 38,90t90,38t90,-38t38,-90zm-384,-768q0,-53 -37.5,-90.5t-90.5,-37.5t-90.5,37.5t-37.5,90.5t37.5,90.5t90.5,37.5t90.5,-37.5t37.5,-90.5zm384,-320l0,-256q0,-26 -19,-45t-45,-19l-1280,0q-26,0 -45,19t-19,45l0,256q0,26 19,45t45,19l1280,0q26,0 45,-19t19,-45zm0,320q0,-53 -37.5,-90.5t-90.5,-37.5t-90.5,37.5t-37.5,90.5t37.5,90.5t90.5,37.5t90.5,-37.5t37.5,-90.5zm128,-640l0,1536q0,52 -38,90t-90,38l-1408,0q-52,0 -90,-38t-38,-90l0,-1536q0,-52 38,-90t90,-38l1408,0q52,0 90,38t38,90z"/>
 </g>
</svg>