<svg width="58" height="58" xmlns="http://www.w3.org/2000/svg">

 <g>
  <title>background</title>
  <rect fill="none" id="canvas_background" height="402" width="582" y="-1" x="-1"/>
 </g>
 <g>
  <title>Layer 1</title>
  <path fill="#4221c6" id="svg_2" d="m32,0c-1.021,0 -2.025,0.076 -3.014999,0.21c-1.032001,-0.138 -2.013,-0.21 -2.985001,-0.21c-7.362,0 -14.001,3.571 -18.66,9.264c-0.047,0.042 -0.081,0.092 -0.119,0.142c-1.485,1.839 -2.761,3.898 -3.793,6.125999c-0.026,0.049001 -0.049,0.097 -0.068,0.150001c-0.711,1.557 -1.304,3.193 -1.76,4.897c-0.045,0.095999 -0.065,0.201 -0.078,0.309999c-0.661,2.576 -1.022,5.296 -1.022,8.111c0,4.403999 0.872,8.578999 2.423,12.320999c0.014,0.040001 0.027,0.077999 0.046,0.116001c0.93,2.217999 2.1,4.279999 3.473,6.145c0.035,0.048 0.064,0.098999 0.107,0.139999c1.39,1.865002 2.983,3.526001 4.74,4.942001c0.05,0.055 0.110001,0.095997 0.172001,0.139c4.127,3.271999 9.138,5.196999 14.539,5.196999c0.972,0 1.952999,-0.071999 2.985001,-0.209999c0.99,0.133999 1.993999,0.209999 3.014999,0.209999c14.061001,0 25.5,-13.008999 25.5,-29s-11.438999,-29 -25.5,-29zm-10.559999,2.614c-0.331001,0.172 -0.658001,0.352 -0.981001,0.539c-0.181,0.105 -0.362999,0.206 -0.541,0.316c-0.276999,0.17 -0.547998,0.35 -0.817999,0.531l-1.925001,0c1.462,-0.684 2.988001,-1.223 4.579,-1.558c-0.107,0.053 -0.208,0.117 -0.313999,0.172zm-10.080001,43.386l-3.585999,0c-0.882,-1.245998 -1.665,-2.584999 -2.345,-4l3.788,0c0.157,0.354 0.318,0.705002 0.487,1.050999c0.073,0.149002 0.148999,0.296001 0.224999,0.444c0.205,0.402 0.417,0.797001 0.638,1.186001c0.082,0.145 0.160999,0.292 0.245999,0.436001c0.176001,0.299 0.361,0.591 0.547,0.882999zm-6.392,-29l3.827,0c-0.175,0.437 -0.341,0.879 -0.498,1.327c-0.043,0.124001 -0.087,0.247 -0.129,0.371c-0.144,0.43 -0.278,0.864 -0.405,1.302l-3.906,0c0.318,-1.031 0.69,-2.031 1.111,-3zm-2.468,12c0,-0.674 0.036,-1.337999 0.078,-2l3.987,0c-0.001,0.016001 -0.001,0.032 -0.002,0.048c-0.037,0.646 -0.063,1.295 -0.063,1.952c0,0.334999 0.012,0.667 0.022,1l-3.983,0c-0.011,-0.334 -0.039,-0.663 -0.039,-1zm4.136,3c0.038,0.421001 0.087,0.839001 0.141,1.255001c0.004,0.029999 0.006,0.061001 0.01,0.091999c0.074,0.556 0.164,1.106998 0.265,1.653l-3.944,0c-0.195,-0.981998 -0.349,-1.980999 -0.448,-3l3.976,0zm0.62,-10c-0.026,0.118 -0.048,0.238001 -0.072,0.356001c-0.027,0.132 -0.055,0.262999 -0.081,0.394999c-0.122,0.627001 -0.23,1.26 -0.315,1.902c-0.004,0.030001 -0.006,0.061001 -0.01,0.092001c-0.012,0.084999 -0.019,0.17 -0.03,0.254999l-3.969,0c0.132,-1.018 0.299,-2.021999 0.528,-3l3.949,0zm0.239,15c0.031,0.122002 0.06,0.245998 0.092,0.367001c0.012,0.043999 0.022,0.09 0.034,0.133999c0.165,0.609001 0.35,1.208 0.548,1.799999c0.042001,0.125 0.086,0.247002 0.129001,0.371002c0.037,0.110001 0.073999,0.219997 0.113,0.327999l-3.853,0c-0.379,-0.971001 -0.705,-1.973 -0.983,-3l3.92,0zm3.317,-24.116c-0.084001,0.143001 -0.164001,0.291 -0.246,0.436c-0.221,0.389 -0.434,0.785 -0.638,1.186c-0.075001,0.148001 -0.152,0.294001 -0.225,0.444c-0.008,0.016 -0.017,0.033 -0.025,0.05l-3.749001,0c0.757,-1.427 1.629,-2.762 2.596,-4l3.503,0c-0.122,0.175 -0.245,0.349 -0.364,0.527c-0.294999,0.443 -0.579,0.895 -0.851999,1.356999zm2.92,-6.884l2.761999,0c-0.247999,0.217 -0.495999,0.435 -0.737,0.662c-0.201,0.19 -0.396,0.387 -0.592,0.584c-0.198,0.199 -0.394,0.401 -0.585999,0.606c-0.185,0.197 -0.370001,0.393 -0.55,0.596c-0.16,0.18 -0.313001,0.367 -0.468,0.552l-3.302,0c1.074,-1.117 2.233,-2.124 3.473001,-3zm-4.408,42l3.431999,0c0.113001,0.147999 0.225,0.296001 0.341001,0.441002c0.302,0.379997 0.613,0.75 0.932,1.110996c0.179,0.203003 0.365,0.399002 0.55,0.596001c0.193,0.206001 0.389,0.408001 0.587999,0.607002c0.08,0.079998 0.156,0.166 0.237,0.244999l-3.008,0c-1.099,-0.898998 -2.125999,-1.903 -3.072,-3zm12.429,7.557999c-2.293001,-0.482998 -4.460001,-1.368999 -6.47,-2.557999l2.419,0c0.128,0.098999 0.26,0.192001 0.389,0.287998c0.207001,0.154003 0.414,0.309002 0.625,0.456001c0.393,0.274002 0.794001,0.536999 1.201,0.786999c0.177999,0.109001 0.360001,0.211002 0.541,0.316002c0.323,0.187 0.65,0.367001 0.980999,0.539001c0.107,0.055 0.208,0.118999 0.314001,0.171997zm10.247,0.442001c-0.795,0 -1.58,-0.047001 -2.354,-0.136002l-0.386999,-0.053997c-0.054001,-0.007 -0.107,-0.016003 -0.16,-0.023003c-0.346001,-0.049 -0.689001,-0.105999 -1.029001,-0.171997c-0.028999,-0.006001 -0.056999,-0.012001 -0.084999,-0.018002c-0.331001,-0.064999 -0.659,-0.138 -0.984001,-0.219002c-0.049,-0.011997 -0.098,-0.025997 -0.146999,-0.038998c-0.302999,-0.077999 -0.605,-0.16 -0.903,-0.250999c-0.091,-0.028 -0.182001,-0.060001 -0.273001,-0.089001c-0.254999,-0.081001 -0.508999,-0.164001 -0.76,-0.255001c-0.203999,-0.074001 -0.404999,-0.155998 -0.605999,-0.236c-0.137001,-0.054001 -0.276001,-0.105 -0.411001,-0.161999c-5.376999,-2.275002 -9.835999,-6.748001 -12.548999,-12.466c-0.025001,-0.052002 -0.048,-0.107002 -0.072001,-0.159c-0.145,-0.311001 -0.285999,-0.625 -0.421,-0.943001c-0.054,-0.126999 -0.104,-0.256001 -0.156,-0.383999c-0.101,-0.248001 -0.201,-0.497002 -0.295,-0.749001c-0.061,-0.161999 -0.118,-0.327 -0.176,-0.491001c-0.079,-0.222 -0.157001,-0.445 -0.23,-0.669998c-0.059999,-0.184002 -0.117,-0.370003 -0.174,-0.555c-0.065001,-0.211002 -0.128,-0.423 -0.188,-0.636002c-0.056001,-0.195 -0.109,-0.392998 -0.160001,-0.59c-0.054,-0.209 -0.106,-0.419998 -0.155999,-0.631001c-0.048,-0.202 -0.094001,-0.403999 -0.138,-0.607998c-0.046,-0.213001 -0.088,-0.427002 -0.129,-0.642002c-0.039001,-0.204998 -0.078,-0.41 -0.114,-0.616997c-0.038,-0.221001 -0.071,-0.443001 -0.104,-0.666c-0.03,-0.202 -0.061,-0.403 -0.087,-0.607002c-0.031,-0.239998 -0.055,-0.482998 -0.08,-0.724998c-0.02,-0.188999 -0.042,-0.377001 -0.058,-0.567001c-0.024,-0.278 -0.04,-0.557999 -0.056001,-0.838999c-0.009,-0.158001 -0.021999,-0.314001 -0.028999,-0.472c-0.018001,-0.440001 -0.029,-0.883001 -0.029,-1.329s0.011,-0.889 0.029,-1.33c0.007,-0.158001 0.02,-0.315001 0.028999,-0.472c0.016001,-0.280001 0.032001,-0.561001 0.056001,-0.839001c0.016,-0.189999 0.038,-0.377998 0.058,-0.566999c0.025,-0.242001 0.05,-0.483999 0.08,-0.725c0.026,-0.202999 0.057,-0.404999 0.087,-0.607c0.033,-0.223 0.066,-0.445 0.104,-0.665998c0.035,-0.207001 0.074,-0.412001 0.114,-0.617001c0.040999,-0.215 0.084,-0.429001 0.129,-0.642c0.044,-0.204 0.09,-0.406 0.138,-0.608c0.049999,-0.211 0.101999,-0.422001 0.155999,-0.631001c0.051001,-0.198 0.104,-0.395 0.159,-0.591c0.06,-0.212999 0.123,-0.424999 0.188,-0.636c0.057,-0.186001 0.114,-0.371 0.174001,-0.555c0.073999,-0.225 0.151999,-0.448 0.231,-0.671c0.058,-0.164 0.115,-0.328001 0.176,-0.49c0.095,-0.252001 0.194,-0.501001 0.295,-0.749001c0.052,-0.128 0.102,-0.257 0.156,-0.384001c0.135,-0.317999 0.276,-0.632 0.421,-0.942999c0.025001,-0.052999 0.047,-0.107 0.072001,-0.159c2.712999,-5.718 7.172,-10.19 12.548999,-12.466c0.136002,-0.057 0.274,-0.108 0.411001,-0.162c0.201,-0.08 0.402,-0.162 0.605999,-0.236c0.251001,-0.091 0.505001,-0.173 0.76,-0.255c0.091,-0.029 0.181,-0.061 0.273001,-0.089c0.298,-0.091 0.6,-0.174 0.903,-0.251c0.048,-0.011 0.097,-0.026 0.146,-0.038c0.325001,-0.081 0.653,-0.153 0.983999,-0.219c0.029001,-0.006 0.057001,-0.012 0.085001,-0.018c0.34,-0.066 0.683001,-0.123 1.028999,-0.172c0.052999,-0.008 0.107,-0.016 0.16,-0.023l0.387001,-0.054c0.775,-0.088 1.559999,-0.135 2.355,-0.135c12.958,0 23.5,12.112 23.5,27s-10.542,27 -23.5,27z"/>
  <path fill="#4221c6" id="svg_3" d="m14.167,29c0,-0.629 0.025001,-1.261 0.074,-1.879c0.043,-0.550001 -0.367001,-1.032 -0.918,-1.076c-0.552999,-0.040001 -1.032,0.368 -1.076,0.917999c-0.052999,0.669001 -0.08,1.355001 -0.08,2.037001l0,0.021c0,0.552 0.448,0.989 1,0.989s1,-0.458 1,-1.01z"/>
  <path fill="#4221c6" id="svg_4" d="m49.041527,23.292c0.114002,0.454 0.521,0.756001 0.969002,0.756001c0.080997,0 0.162998,-0.01 0.244999,-0.030001c0.535,-0.135 0.860001,-0.677999 0.726002,-1.213999c-0.168003,-0.668001 -0.365002,-1.334002 -0.587002,-1.980001c-0.179001,-0.521999 -0.746998,-0.802999 -1.27,-0.622c-0.521999,0.179001 -0.800999,0.748001 -0.621998,1.27c0.202999,0.593 0.383999,1.205999 0.538998,1.82z"/>
  <path fill="#4221c6" id="svg_5" d="m44.929527,42.926529c-0.399998,0.492001 -0.822998,0.962997 -1.257,1.402c-0.389,0.391998 -0.385998,1.024998 0.006001,1.413998c0.195,0.193001 0.450001,0.290001 0.703999,0.290001c0.257,0 0.515003,-0.098999 0.710003,-0.296001c0.480999,-0.484997 0.947998,-1.005997 1.389,-1.548c0.348999,-0.428997 0.282997,-1.058998 -0.145,-1.406998c-0.428001,-0.348999 -1.058002,-0.283001 -1.407001,0.145z"/>
  <path fill="#4221c6" id="svg_6" d="m14.856,34.668999c-0.133,-0.535999 -0.677999,-0.863998 -1.212,-0.729c-0.536,0.133003 -0.862,0.676003 -0.729,1.212002c0.166,0.667 0.362,1.334 0.583,1.981998c0.142,0.416 0.53,0.678001 0.946,0.678001c0.106999,0 0.216,-0.018002 0.323,-0.054001c0.521999,-0.177998 0.802,-0.745998 0.624,-1.269001c-0.202,-0.593998 -0.382,-1.206997 -0.535,-1.82z"/>
  <path fill="#4221c6" id="svg_7" d="m41.76553,9.449c-0.584003,-0.381001 -1.194,-0.732 -1.812,-1.043c-0.494003,-0.25 -1.094002,-0.049 -1.343002,0.441999c-0.249001,0.493 -0.050999,1.095 0.442001,1.343c0.553001,0.279 1.098,0.593 1.620998,0.934c0.167999,0.11 0.358002,0.162 0.545002,0.162c0.327,0 0.646999,-0.16 0.839001,-0.454c0.300999,-0.462 0.170998,-1.082 -0.292,-1.384z"/>
  <path fill="#4221c6" id="svg_8" d="m39.16153,47.660526c-0.556,0.285 -1.130001,0.540001 -1.706001,0.757c-0.517002,0.194 -0.778,0.771 -0.583,1.288002c0.151001,0.401001 0.530998,0.647999 0.936001,0.647999c0.117001,0 0.236,-0.021 0.353001,-0.064999c0.646999,-0.243999 1.290997,-0.528999 1.913998,-0.848999c0.491001,-0.252003 0.686001,-0.855003 0.433002,-1.346001c-0.253002,-0.491001 -0.856003,-0.686001 -1.347,-0.433002z"/>
  <path fill="#4221c6" id="svg_9" d="m47.637527,15.277c-0.389,-0.575001 -0.806999,-1.134001 -1.243,-1.663c-0.350998,-0.426001 -0.981998,-0.488 -1.408001,-0.136001c-0.425999,0.351001 -0.487,0.981 -0.135998,1.408c0.396,0.481 0.776001,0.990001 1.130001,1.512001c0.192997,0.285999 0.507999,0.438999 0.828999,0.438999c0.193001,0 0.388,-0.056 0.560001,-0.171999c0.457996,-0.310001 0.577999,-0.931001 0.267998,-1.388z"/>
  <path fill="#4221c6" id="svg_10" d="m50.740528,27.968c-0.552002,0 -1,0.48 -1,1.032c0,0.613001 -0.024002,1.232 -0.070999,1.837999c-0.042,0.551001 0.368999,1.032001 0.919998,1.073999c0.026001,0.001999 0.052002,0.003002 0.077999,0.003002c0.517002,0 0.956001,-0.398001 0.996002,-0.923c0.050999,-0.658001 0.077,-1.328001 0.077,-1.993l0,-0.065001c0,-0.551001 -0.446999,-0.966 -1,-0.966z"/>
  <path fill="#4221c6" id="svg_11" d="m49.808529,35.689529c-0.524002,-0.176003 -1.09,0.105999 -1.267002,0.628998c-0.202,0.598999 -0.431,1.194 -0.681,1.769001c-0.219997,0.506001 0.011002,1.096001 0.518002,1.315998c0.130001,0.057003 0.265999,0.083 0.398998,0.083c0.386002,0 0.753002,-0.224998 0.917,-0.600998c0.273003,-0.626999 0.523003,-1.277 0.743,-1.93c0.177002,-0.522999 -0.105,-1.09 -0.628998,-1.265999z"/>
  <path fill="#4221c6" id="svg_12" d="m33.956528,6.595c-0.678001,-0.079 -1.367001,-0.119 -2.049,-0.119l-0.042,0c-0.552,0 -0.979,0.448 -0.979,1s0.469,1 1.021,1c0.605,0 1.216999,0.035 1.819,0.105c0.039001,0.005 0.077999,0.007 0.117001,0.007c0.5,0 0.932999,-0.375 0.992001,-0.885c0.063,-0.549 -0.330002,-1.045 -0.879002,-1.108z"/>
  <path fill="#4221c6" id="svg_13" d="m17.810528,41.475529c-0.309,-0.459 -0.931,-0.579002 -1.388,-0.27c-0.457999,0.308998 -0.578999,0.93 -0.269999,1.388c0.387999,0.575001 0.804998,1.134998 1.238998,1.665001c0.198,0.240997 0.485001,0.365997 0.774,0.365997c0.223001,0 0.448,-0.073997 0.634001,-0.226997c0.427,-0.351002 0.489,-0.980003 0.139,-1.408001c-0.395,-0.48 -0.775,-0.990002 -1.128,-1.514z"/>
  <path fill="#4221c6" id="svg_14" d="m15.639471,18.465c-0.507,-0.219999 -1.095,0.009001 -1.317,0.516001c-0.275,0.629 -0.525999,1.278 -0.747,1.927999c-0.177,0.522999 0.103001,1.091 0.626,1.268999c0.106,0.036001 0.215,0.053001 0.321,0.053001c0.417,0 0.806,-0.263 0.947,-0.679001c0.202001,-0.597 0.433001,-1.191999 0.685001,-1.77c0.223,-0.506001 -0.007999,-1.095999 -0.515001,-1.316999z"/>
  <path fill="#4221c6" id="svg_15" d="m31.907528,49.431526c-0.622,0 -1.247,-0.036999 -1.858,-0.109997c-0.545,-0.058002 -1.046,0.326 -1.112,0.875c-0.065001,0.548 0.326,1.045998 0.875,1.112c0.689999,0.082001 1.396,0.124001 2.095999,0.124001l0.086002,0c0.551998,0 0.956997,-0.448002 0.956997,-1s-0.492001,-1.001003 -1.043999,-1.001003z"/>
  <path fill="#4221c6" id="svg_16" d="m18.846001,12.046529c-0.481001,0.485 -0.950001,1.004 -1.391001,1.545c-0.35,0.428 -0.285999,1.058 0.142,1.407c0.186001,0.152 0.41,0.226001 0.632,0.226001c0.289999,0 0.577,-0.125 0.775,-0.367001c0.401001,-0.491 0.825001,-0.962 1.261,-1.4c0.389,-0.392 0.387001,-1.025001 -0.004,-1.415c-0.392,-0.389 -1.024,-0.386001 -1.414999,0.004z"/>
  <path fill="#4221c6" id="svg_17" d="m25.696527,7.602c-0.647999,0.243 -1.292999,0.526999 -1.916,0.844999c-0.491999,0.25 -0.688,0.853001 -0.436998,1.345c0.175999,0.347 0.526999,0.546 0.891998,0.546c0.153002,0 0.308001,-0.035 0.453001,-0.109c0.556,-0.283 1.131001,-0.537 1.708,-0.753c0.517,-0.194 0.779999,-0.77 0.586,-1.287c-0.192001,-0.519 -0.77,-0.781 -1.286001,-0.587z"/>
  <path fill="#4221c6" id="svg_18" d="m24.726528,47.698528c-0.550001,-0.278999 -1.094999,-0.595001 -1.618999,-0.938c-0.463001,-0.302002 -1.081001,-0.172001 -1.385,0.288998c-0.302,0.462002 -0.173,1.082001 0.289,1.384003c0.584999,0.382999 1.194,0.736 1.809,1.048c0.145,0.073997 0.299999,0.107998 0.452,0.107998c0.365,0 0.716,-0.200001 0.893,-0.547001c0.25,-0.491997 0.053001,-1.093998 -0.438999,-1.343998z"/>
 </g>
</svg>