<?xml version="1.0" encoding="UTF-8" standalone="no"?>
<!-- Created with Inkscape (http://www.inkscape.org/) -->
<!-- Extracted from YugiPedia (https://ms.yugipedia.com//6/6c/BAM-FIRE.svg) -->

<svg
   xmlns:dc="http://purl.org/dc/elements/1.1/"
   xmlns:cc="http://creativecommons.org/ns#"
   xmlns:rdf="http://www.w3.org/1999/02/22-rdf-syntax-ns#"
   xmlns:svg="http://www.w3.org/2000/svg"
   xmlns="http://www.w3.org/2000/svg"
   xmlns:xlink="http://www.w3.org/1999/xlink"
   xmlns:sodipodi="http://sodipodi.sourceforge.net/DTD/sodipodi-0.dtd"
   xmlns:inkscape="http://www.inkscape.org/namespaces/inkscape"
   width="77.017303"
   height="77.103447"
   id="svg3335"
   version="1.1"
   inkscape:version="0.48.1 "
   sodipodi:docname="FIRE.svg">
  <defs
     id="defs3337">
    <linearGradient
       gradientTransform="matrix(1.25,0,0,1.25,185.16358,482.15033)"
       inkscape:collect="always"
       xlink:href="#linearGradient3259"
       id="linearGradient3265"
       x1="129.77322"
       y1="41.585354"
       x2="129.86465"
       y2="39.917156"
       gradientUnits="userSpaceOnUse" />
    <linearGradient
       inkscape:collect="always"
       id="linearGradient3259">
      <stop
         style="stop-color:#c20000;stop-opacity:1;"
         offset="0"
         id="stop3261" />
      <stop
         style="stop-color:#c20000;stop-opacity:0;"
         offset="1"
         id="stop3263" />
    </linearGradient>
    <linearGradient
       gradientTransform="matrix(1.25,0,0,1.25,185.16358,482.15033)"
       inkscape:collect="always"
       xlink:href="#linearGradient3281"
       id="linearGradient3287"
       x1="137.75"
       y1="33"
       x2="137.95001"
       y2="28.949999"
       gradientUnits="userSpaceOnUse" />
    <linearGradient
       inkscape:collect="always"
       id="linearGradient3281">
      <stop
         style="stop-color:#da0000;stop-opacity:1;"
         offset="0"
         id="stop3283" />
      <stop
         style="stop-color:#da0000;stop-opacity:0;"
         offset="1"
         id="stop3285" />
    </linearGradient>
    <linearGradient
       gradientTransform="matrix(1.25,0,0,1.25,185.16358,482.15033)"
       inkscape:collect="always"
       xlink:href="#linearGradient3289"
       id="linearGradient3295"
       x1="156.20001"
       y1="31.200003"
       x2="159.05"
       y2="23.450001"
       gradientUnits="userSpaceOnUse" />
    <linearGradient
       inkscape:collect="always"
       id="linearGradient3289">
      <stop
         style="stop-color:#d00000;stop-opacity:1;"
         offset="0"
         id="stop3291" />
      <stop
         style="stop-color:#d00000;stop-opacity:0;"
         offset="1"
         id="stop3293" />
    </linearGradient>
  </defs>
  <sodipodi:namedview
     id="base"
     pagecolor="#ffffff"
     bordercolor="#666666"
     borderopacity="1.0"
     inkscape:pageopacity="0.0"
     inkscape:pageshadow="2"
     inkscape:zoom="2.8"
     inkscape:cx="52.246787"
     inkscape:cy="27.796271"
     inkscape:document-units="px"
     inkscape:current-layer="layer1"
     showgrid="false"
     fit-margin-top="0"
     fit-margin-left="0"
     fit-margin-right="0"
     fit-margin-bottom="0"
     inkscape:window-width="469"
     inkscape:window-height="455"
     inkscape:window-x="115"
     inkscape:window-y="115"
     inkscape:window-maximized="0" />
  <metadata
     id="metadata3340">
    <rdf:RDF>
      <cc:Work
         rdf:about="">
        <dc:format>image/svg+xml</dc:format>
        <dc:type
           rdf:resource="http://purl.org/dc/dcmitype/StillImage" />
        <dc:title />
      </cc:Work>
    </rdf:RDF>
  </metadata>
  <g
     inkscape:label="Layer 1"
     inkscape:groupmode="layer"
     id="layer1"
     transform="translate(-335.40232,-492.75592)">
    <path
       style="fill:#d9e4e5"
       inkscape:connector-curvature="0"
       d="m 336.13858,523.43783 c 3.175,-17.4 19.875,-31.7 37.8125,-30.625 10.3625,-0.625 20.325,4.2125 27.4625,11.4875 6.2125,7 10.875,15.7625 10.95,25.3125 0.65,11.4875 -4.3875,23.0125 -13.3625,30.225 -9.7375,9.675 -25.025,12.425 -37.8,7.9 -5.6375,-1.9625 -10.3875,-5.6625 -14.775,-9.6 -9.1125,-8.775 -12.7125,-22.425 -10.2875,-34.7 z"
       id="path8" />
    <path
       style="fill:#333333"
       inkscape:connector-curvature="0"
       d="m 366.92608,497.93783 c 8.9625,-1.3375 18.7625,-0.625 26.375,4.775 7.5125,5.5125 13.275,13.9125 14.4125,23.2875 1.55,11.075 -2.0875,23.1125 -10.85,30.375 -12.25,11.575 -33.3125,11.175 -45.525,-0.2625 -9.9625,-8.4375 -12.5875,-22.975 -9.3625,-35.1875 3.4375,-11.35 13.125,-20.85 24.95,-22.9875 z"
       id="path16" />
    <path
       d="m 345.11358,523.46283 c 2.8,-13.4 16.6875,-21.7625 27.45,-21.375 7.925,-0.7 15.7125,2.2 21.6125,7.4375 -3.2375,-0.05 -8.6,16.5375 -11.1125,18.8875 -0.55,-0.6375 -49.42434,61.56508 0.2,-18.375 l -1.575,-1.2125 c -4.8,2.05 -12.3375,10.875 -14.6,15.8125 -7.525,-0.825 -14.4125,-0.9 -21.975,-1.175 z"
       id="path26"
       inkscape:connector-curvature="0"
       style="fill:#f40000"
       sodipodi:nodetypes="cccccccc" />
    <path
       d="m 369.83858,518.70033 c 2.2625,-4.9375 7.18189,-8.004 11.98189,-10.054 2.64315,-0.79009 3.36124,-1.28793 -0.15914,3.8277 -2.675,5.35 -4.86025,7.8763 -5.77275,13.9513 -1,5.45 -1.6875,11.875 2.8875,15.9625 2,-3.95 3.8125,-8.1625 3.7625,-12.675 0.075,-5.9875 -0.875,-12.4 2.4,-17.8 2.5125,-2.35 6,-2.4375 9.2375,-2.3875 1.375,0.6 2.0375,1.975 3.0125,3.0125 -1.575,2.325 -3.55,4.55 -4.2,7.3375 0.3375,8.3375 9.25,13.225 9.0875,21.65 -1.2375,3.7125 -3.77719,8.80485 -7.51469,10.61735 1.2375,-1.475 3.28969,-4.06735 4.53969,-5.52985 -0.6125,-3.95 -0.0375,-8.4875 -2.7375,-11.8 -2.975,-4.2125 -6.05,-8.6625 -6.8,-13.9 -0.5125,-3.0625 1.9,-5.4625 3.1875,-8 -1.925,0.3125 -3.825,0.6875 -5.7125,1.1125 -3.0625,7.4 0.15,15.5375 -2.375,23.025 -0.9875,3.7 -3.1875,6.9 -5.5375,9.8625 -2.4875,-2.4375 -5.5,-4.625 -7.0375,-7.8125 -1.4,-8.0125 1.0375,-16.05 4.025,-23.425 -3.3375,7.4875 -10.7,12.525 -12.7,20.6625 -0.6375,2.325 -1.0125,4.7125 -1.425,7.0875 -0.675,-0.05 -2.05,-0.15 -2.7375,-0.2 -1.9375,-5.675 -2.4,-11.725 -1.3375,-17.625 -1.9875,2.1875 -3.175,4.9 -3.2,7.8875 -0.1125,4.025 -1.9375,7.625 -3.8,11.0875 -0.7125,1.2125 -1.45,2.4125 -2.2125,3.6 -0.3125,-1.025 -1.37944,-2.24491 -1.69194,-3.25741 2,-3.8125 4.40444,-8.58009 4.52944,-12.98009 0.4125,-3.0625 0.8125,-6.7 3.6375,-8.5625 2.1625,-1.5125 4.9375,-0.9125 7.4125,-1.075 -1.1,3.7 -1.9375,7.475 -2.375,11.325 2.775,-5.2625 6.5875,-9.85 9.625,-14.925 z"
       id="path60"
       inkscape:connector-curvature="0"
       style="fill:#4a0000"
       sodipodi:nodetypes="cccccccccccccccccccccccccccccccccc" />
    <path
       inkscape:connector-curvature="0"
       d="m 383.26358,510.03783 c 0.5625,0.6125 1.125,1.2375 1.675,1.875 -3.275,5.4 -2.325,11.8125 -2.4,17.8 0.05,4.5125 -1.7625,8.725 -3.7625,12.675 -4.575,-4.0875 -3.8875,-10.5125 -2.8875,-15.9625 0.9125,-6.075 4.7,-11.0375 7.375,-16.3875 z"
       id="path62"
       style="fill:url(#linearGradient3295);fill-opacity:1" />
    <path
       style="fill:#ffd200"
       inkscape:connector-curvature="0"
       d="m 387.03858,514.02533 c 1.8875,-0.425 3.7875,-0.8 5.7125,-1.1125 -1.2875,2.5375 -3.7,4.9375 -3.1875,8 0.75,5.2375 3.825,9.6875 6.8,13.9 2.7,3.3125 2.125,7.85 2.7375,11.8 -3.5625,-2.2 -2.4125,-6.9 -4.475,-10.05 -2.2,-3.475 -4.625,-6.825 -6.45,-10.525 0.475,7.325 -1.1625,15.0375 -5.9625,20.7625 -1.1625,1.6625 -3.675,2.2375 -5.2875,0.9 -2.5375,-1.9125 -5.05,-4.1375 -6.425,-7.0375 -1.0125,-3.7625 -0.7,-7.7125 -0.8625,-11.575 -3.3125,4.2125 -4.4125,9.4375 -5.55,14.5375 -0.525,2.9375 -4.6125,2.8625 -6.05,0.725 -1.025,-1.4125 -1.725,-3.0125 -2.525,-4.55 -1.1,3.1875 -2.475,6.2875 -4.225,9.1625 -0.0875,-1.0875 -0.275,-3.2875 -0.375,-4.3875 1.8625,-3.4625 3.6875,-7.0625 3.8,-11.0875 0.025,-2.9875 1.2125,-5.7 3.2,-7.8875 -1.0625,5.9 -0.6,11.95 1.3375,17.625 0.6875,0.05 2.0625,0.15 2.7375,0.2 0.4125,-2.375 0.7875,-4.7625 1.425,-7.0875 2,-8.1375 9.3625,-13.175 12.7,-20.6625 -2.9875,7.375 -5.425,15.4125 -4.025,23.425 1.5375,3.1875 4.55,5.375 7.0375,7.8125 2.35,-2.9625 4.55,-6.1625 5.5375,-9.8625 2.525,-7.4875 -0.6875,-15.625 2.375,-23.025 z"
       id="path76" />
    <path
       style="fill:#db0000"
       inkscape:connector-curvature="0"
       d="m 392.98858,519.87533 c 0.65,-2.7875 2.625,-5.0125 4.2,-7.3375 6.2125,8.2375 8.0375,19.15 4.8875,28.9875 0.1625,-8.425 -8.75,-13.3125 -9.0875,-21.65 z"
       id="path78" />
    <path
       d="m 344.31358,534.23783 c -0.3875,-7.825 0.675,-11.9 2.8625,-16.275 7.5625,0.275 15.1375,-0.0875 22.6625,0.7375 -3.0375,5.075 -6.85,9.6625 -9.625,14.925 0.4375,-3.85 1.275,-7.625 2.375,-11.325 -2.475,0.1625 -5.25,-0.4375 -7.4125,1.075 -2.825,1.8625 -3.49844,8.07031 -3.91094,11.13281 -2.4875,0.0375 -4.46406,-0.30781 -6.95156,-0.27031 z"
       id="path94"
       inkscape:connector-curvature="0"
       style="fill:url(#linearGradient3287);fill-opacity:1"
       sodipodi:nodetypes="cccccccc" />
    <path
       d="m 388.17608,526.03783 c 1.825,3.7 4.25,7.05 6.45,10.525 2.0625,3.15 0.9125,7.85 4.475,10.05 -1.25,1.4625 -2.4625,2.95 -3.7,4.425 -0.2375,0.2 -0.7,0.625 -0.9375,0.8375 -9.825,9.0125 -25.71954,11.16406 -36.69454,2.97656 l 1.45662,0.42041 c -1.7,-2.9875 -3.78162,-5.75791 -7.43162,-5.80791 -0.1375,-0.125 -0.4,-0.3875 -0.525,-0.525 1.75,-2.875 3.125,-5.975 4.225,-9.1625 0.8,1.5375 1.5,3.1375 2.525,4.55 1.4375,2.1375 5.54454,2.23594 6.06954,-0.70156 1.1375,-5.1 2.2375,-10.325 5.55,-14.5375 0.1625,3.8625 -0.15,7.8125 0.8625,11.575 1.375,2.9 3.8875,5.125 6.425,7.0375 1.6125,1.3375 4.125,0.7625 5.2875,-0.9 4.8,-5.725 6.4375,-13.4375 5.9625,-20.7625 z"
       id="path112"
       inkscape:connector-curvature="0"
       style="fill:#f16900"
       sodipodi:nodetypes="ccccccccccccccccc" />
    <path
       inkscape:connector-curvature="0"
       d="m 344.06358,532.05033 c 2.4875,-0.0375 4.9875,-0.075 7.475,-0.1125 -0.125,4.4 -2.0875,8.35 -4.0875,12.1625 l -0.4375,0.8375 c -1.65,-4.1125 -2.6,-8.475 -2.95,-12.8875 z"
       id="path124"
       style="fill:url(#linearGradient3265);fill-opacity:1" />
    <path
       d="m 348.70108,548.17533 c 0.7625,-1.1875 1.5,-2.3875 2.2125,-3.6 0.1,1.1 0.2875,3.3 0.375,4.3875 0.125,0.1375 0.3875,0.4 0.525,0.525 1.8875,1.9 3.725,3.8875 5.975,5.3875 10.975,8.1875 28.26421,4.77506 38.08921,-4.23744 -4.5625,7.125 -15.15171,11.11244 -23.23921,10.67494 -9.6625,0.2375 -18.35,-5.6375 -23.9375,-13.1375 z"
       id="path150"
       inkscape:connector-curvature="0"
       style="fill:#991c07"
       sodipodi:nodetypes="cccccccc" />
    <path
       d="m 351.81358,549.48783 c 3.65,0.05 5.72056,2.80936 7.42056,5.79686 l -1.44556,-0.40936 c -2.25,-1.5 -4.0875,-3.4875 -5.975,-5.3875 z"
       id="path152"
       inkscape:connector-curvature="0"
       style="fill:#f8bc00"
       sodipodi:nodetypes="cccc" />
  </g>
</svg>
