<svg width="458" height="461" xmlns="http://www.w3.org/2000/svg">

 <g>
  <title>background</title>
  <rect fill="none" id="canvas_background" height="463" width="460" y="-1" x="-1"/>
 </g>
 <g>
  <title>Layer 1</title>
  <ellipse ry="180.459637" rx="164.091416" id="svg_3" cy="219.714575" cx="223.537863" stroke-width="1.5" stroke="#000" fill="#3ba5fc"/>
  <path fill="#1a5f97" id="svg_2" d="m227.999237,5.999281c-123.700012,0 -224.000011,100.299997 -224.000011,224.000002s100.299999,224.000015 224.000011,224.000015c123.700012,0 224,-100.299988 224,-224.000015s-100.299988,-224.000002 -224,-224.000002zm20.200012,326.700029c-0.5,17.799988 -13.700012,28.799988 -30.800003,28.299988c-16.399994,-0.5 -29.300003,-12.199982 -28.800003,-30.099976c0.5,-17.800018 14.100006,-29.100006 30.5,-28.600006c17.199982,0.499969 29.699982,12.599976 29.100006,30.399994zm48.699982,-127.300034c-4.200012,5.899994 -13.600006,13.5 -25.399994,22.699997l-13.100006,8.999985c-6.399994,4.900024 -10.399994,10.700012 -12.5,17.300018c-1.100006,3.499985 -1.899994,12.600021 -2.100006,18.699997c-0.100006,1.200012 -0.799988,3.900024 -4.5,3.900024c-3.700012,0 -35,0 -39.099991,0c-4.099991,0 -4.599991,-2.400024 -4.5,-3.600006c0.600006,-16.600037 3,-30.300003 9.900009,-41.300003c9.299988,-14.800003 35.5,-30.400009 35.5,-30.400009c4,-3 7.100006,-6.199997 9.5,-9.699997c4.399994,-6 8,-12.699997 8,-19.899994c0,-8.300003 -2,-16.200012 -7.300018,-22.800003c-6.199982,-7.699997 -12.899994,-11.400009 -25.799988,-11.400009c-12.699997,0 -20.100006,6.400009 -25.399994,14.800003c-5.300003,8.400009 -4.400009,18.300003 -4.400009,27.300003l-48.699997,0c0,-34 8.899994,-55.700005 27.699997,-68.500008c12.699997,-8.699997 28.900009,-12.5 47.800003,-12.5c24.799988,0 44.5,4.600006 61.899994,17.800003c16.100006,12.200005 24.600006,29.400002 24.600006,52.599998c0,14.300003 -5,26.300003 -12.100006,36z"/>
 </g>
</svg>