<svg width="24" height="34" xmlns="http://www.w3.org/2000/svg">

 <g>
  <title>background</title>
  <rect fill="none" id="canvas_background" height="36" width="26" y="-1" x="-1"/>
 </g>
 <g>
  <title>Layer 1</title>
  <path id="svg_3" fill="#4424b8" d="m12.050796,31.854696c-1.753002,0 -3.278002,-0.710999 -4.320002,-2.024002c-0.970999,-1.221996 -1.383999,-2.832996 -1.135,-4.420998l1.196001,-7.618l-0.276001,0.141998c-1.382999,0.711002 -3.080999,0.166 -3.792,-1.216999c-0.711,-1.382998 -0.166,-3.080998 1.217001,-3.791999l5.205,-2.676001c0.942999,-0.484999 2.078001,-0.399 2.936998,0.222c0.859001,0.621 1.297001,1.672001 1.132,2.719l-2.044998,13.024001c0.41,-0.043003 1.466999,-0.301003 3.434998,-1.668003c1.276999,-0.887997 3.032001,-0.571999 3.919002,0.705002c0.888,1.277 0.571999,3.032001 -0.705002,3.918999c-2.459,1.710003 -4.568,2.585003 -6.445998,2.677002c-0.108002,0.006001 -0.216,0.007999 -0.321999,0.007999z"/>
  <circle id="svg_5" fill="#4424b8" r="3.143" cy="4.761697" cx="12.522794"/>
 </g>
</svg>