<svg width="128" height="128" xmlns="http://www.w3.org/2000/svg">

 <g>
  <title>background</title>
  <rect fill="none" id="canvas_background" height="402" width="582" y="-1" x="-1"/>
 </g>
 <g>
  <title>Layer 1</title>
  <circle fill="#4424b8" id="svg_1" r="64" cy="64" cx="64"/>
  <path fill="#3ba5fc" id="svg_3" d="m32.5,43l71.5,0c0,-2.200001 -1.800003,-4 -4,-4l-52.5,0l-1.299999,-2.099998c-0.700001,-1.200001 -2,-1.900002 -3.400002,-1.900002l-14.799999,0c-2.200001,0 -4,1.799999 -4,4l0,20l0,25.699997l4.6,-38.099998c0.199999,-2.099998 1.9,-3.599998 3.9,-3.599998z" class="st0"/>
  <path fill="#3ba5fc" id="svg_4" d="m108.5,47l-72,0c-2,0 -3.700001,1.5 -4,3.5l-5,42c-0.299999,2.400002 1.6,4.5 4,4.5l71.900002,0c2,0 3.699997,-1.5 4,-3.5l5,-42c0.299995,-2.400002 -1.5,-4.5 -3.900002,-4.5z" class="st0"/>
 </g>
</svg>