<svg width="64" height="64" xmlns="http://www.w3.org/2000/svg">

 <g>
  <title>background</title>
  <rect fill="none" id="canvas_background" height="402" width="582" y="-1" x="-1"/>
 </g>
 <g>
  <title>Layer 1</title>
  <circle id="svg_2" r="32" fill="#4424b8" cy="32" cx="32"/>
  <path opacity="0.2" id="svg_5" fill="#3ba5fc" d="m54.083,21.25c-0.882,-1.528 -2.937,-3.35 -7.716999,-3.35c-1.643002,0 -3.471001,0.225 -5.414001,0.646c-1.986,-6.181999 -5.195,-10.046 -8.952,-10.046s-6.966,3.864 -8.952999,10.047001c-1.943001,-0.421001 -3.771002,-0.646002 -5.414001,-0.646002c-4.78,0 -6.834999,1.821001 -7.716999,3.35c-1.875,3.247 -0.141001,7.947001 4.200999,12.749001c-4.342999,4.801998 -6.075999,9.501999 -4.200999,12.75c0.882,1.528 2.936999,3.349998 7.716999,3.349998c1.643,0 3.471001,-0.224998 5.414001,-0.646c1.987,6.182003 5.195999,10.046001 8.952999,10.046001s6.966,-3.863998 8.952999,-10.047001c1.943001,0.421001 3.771,0.646 5.414001,0.646c4.779999,0 6.834999,-1.820999 7.716999,-3.349998c1.875,-3.248001 0.142002,-7.948002 -4.201,-12.75c4.341999,-4.801001 6.076,-9.501001 4.200001,-12.749001zm-7.716,-0.35c2.612,0 4.43,0.656 5.118999,1.85c1.071999,1.857 -0.297001,5.281 -3.722,9.097c-1.463001,-1.378 -3.129002,-2.747 -4.973,-4.077c-0.229,-2.253 -0.580002,-4.373001 -1.039001,-6.322001c1.657001,-0.347 3.220001,-0.548 4.615002,-0.548zm-10.317001,20.115c-1.344997,0.777 -2.700001,1.471001 -4.049999,2.114002c-1.35,-0.643002 -2.705,-1.337002 -4.049999,-2.114002c-1.374001,-0.792999 -2.662001,-1.612 -3.872002,-2.441998c-0.113998,-1.462002 -0.177999,-2.987003 -0.177999,-4.573002s0.065001,-3.111 0.179001,-4.573c1.209,-0.83 2.497999,-1.648001 3.872,-2.441999c1.344999,-0.777 2.699999,-1.471001 4.049999,-2.114c1.350002,0.643 2.705002,1.337 4.049999,2.114c1.374001,0.792999 2.662003,1.612 3.872002,2.441999c0.112999,1.462 0.176998,2.987001 0.176998,4.573s-0.064999,3.111 -0.178997,4.573002c-1.209,0.829998 -2.497002,1.647999 -3.871002,2.441998zm3.417999,1.442001c-0.181,1.174 -0.396999,2.286999 -0.643997,3.339001c-1.057003,-0.318001 -2.132999,-0.677002 -3.235001,-1.104c0.655998,-0.347 1.309998,-0.704002 1.959999,-1.079002c0.657001,-0.378998 1.293999,-0.765999 1.918999,-1.155998zm-11.056999,2.234001c-1.101999,0.426998 -2.177999,0.785999 -3.234999,1.103996c-0.247,-1.051998 -0.463001,-2.164997 -0.644001,-3.338997c0.625,0.389999 1.263,0.777 1.919001,1.154999c0.65,0.376999 1.303999,0.733002 1.959999,1.080002zm-7.469999,-8.452003c-0.931,-0.747997 -1.790001,-1.495998 -2.580999,-2.238998c0.790998,-0.743 1.65,-1.491001 2.580999,-2.239c-0.025,0.737001 -0.041,1.482 -0.041,2.239s0.016001,1.501999 0.041,2.238998zm3.591,-10.695999c0.181,-1.174 0.397001,-2.286999 0.644001,-3.338999c1.056999,0.317999 2.132999,0.677 3.234999,1.104c-0.656,0.347 -1.309999,0.703999 -1.959999,1.078999c-0.657,0.379002 -1.294001,0.766001 -1.919001,1.156zm11.057001,-2.233999c1.102001,-0.427 2.177998,-0.785999 3.235001,-1.104c0.246998,1.052 0.462997,2.165001 0.643997,3.339001c-0.625,-0.390001 -1.262997,-0.777 -1.918999,-1.155001c-0.650002,-0.377001 -1.304001,-0.733 -1.959999,-1.08zm7.469997,8.452c0.931004,0.747999 1.791,1.495001 2.581001,2.239c-0.791,0.743 -1.649998,1.491001 -2.581001,2.238998c0.025002,-0.737 0.041,-1.481998 0.041,-2.238998s-0.015999,-1.501999 -0.041,-2.239zm-11.058998,-20.261c2.148998,0 4.436001,2.91 6.029999,7.805c-1.952999,0.584999 -3.980999,1.341999 -6.029999,2.254c-2.048,-0.912001 -4.077,-1.669001 -6.030001,-2.254c1.594,-4.895 3.881001,-7.805 6.030001,-7.805zm-19.486,11.25c0.689,-1.193001 2.507,-1.85 5.118999,-1.85c1.395,0 2.958,0.201 4.614,0.548c-0.459,1.950001 -0.809999,4.069 -1.039,6.322001c-1.844999,1.33 -3.51,2.698999 -4.973,4.077c-3.424001,-3.816 -4.793,-7.24 -3.721001,-9.097zm5.118999,24.349998c-2.612,0 -4.429999,-0.655998 -5.118999,-1.849998c-1.072,-1.856998 0.297,-5.280998 3.722,-9.097c1.462999,1.377998 3.129,2.747002 4.973,4.077c0.229,2.253002 0.58,4.373001 1.039,6.321999c-1.657,0.347 -3.219999,0.548 -4.615,0.548zm14.367001,9.400002c-2.149,0 -4.436001,-2.91 -6.030001,-7.805c1.953001,-0.584999 3.981001,-1.341999 6.030001,-2.253998c2.048,0.911999 4.077,1.668999 6.029999,2.253998c-1.593998,4.895 -3.881001,7.805 -6.029999,7.805zm19.486,-11.25c-0.688999,1.193001 -2.507,1.849998 -5.118999,1.849998c-1.395,0 -2.958,-0.201 -4.614002,-0.548c0.459003,-1.949997 0.810001,-4.068996 1.039001,-6.321999c1.845001,-1.329998 3.509998,-2.699001 4.973,-4.077c3.424,3.816002 4.792999,7.240002 3.721001,9.097z"/>
  <circle opacity="0.2" id="svg_7" r="3" fill="#3ba5fc" cy="34" cx="32"/>
  <path id="svg_9" fill="#3ba5fc" d="m32,57.5c-6.327999,0 -11.1,-10.963001 -11.1,-25.5s4.772001,-25.5 11.1,-25.5s11.099998,10.962999 11.099998,25.5s-4.771999,25.5 -11.099998,25.5zm0,-48c-3.830999,0 -8.1,9.24 -8.1,22.5s4.269001,22.5 8.1,22.5s8.099998,-9.240002 8.099998,-22.5s-4.268997,-22.5 -8.099998,-22.5z"/>
  <path id="svg_11" fill="#3ba5fc" d="m17.632999,48.099998c-4.78,0 -6.834999,-1.820999 -7.716999,-3.349998c-3.164001,-5.48 3.943999,-15.094999 16.534,-22.362c7.035999,-4.062 14.480999,-6.487 19.917,-6.487c4.779999,0 6.834999,1.821 7.716999,3.349999c3.164001,5.480001 -3.944,15.095001 -16.534,22.362c-7.035999,4.062 -14.480999,6.487 -19.917,6.487zm28.734001,-29.199999c-4.931999,0 -11.817001,2.274 -18.417,6.085001c-11.483002,6.629999 -17.352001,14.945999 -15.436001,18.264999c0.689,1.193001 2.507,1.849998 5.118999,1.849998c4.932001,0 11.817001,-2.273998 18.417,-6.084999c11.483002,-6.630001 17.352001,-14.945999 15.436001,-18.264999c-0.688999,-1.193001 -2.507,-1.85 -5.118999,-1.85z"/>
  <path id="svg_13" fill="#3ba5fc" d="m17.632999,48.099998c-4.78,0 -6.834999,-1.820999 -7.716999,-3.349998c-3.164001,-5.48 3.943999,-15.094999 16.534,-22.362c7.035999,-4.062 14.480999,-6.487 19.917,-6.487c4.779999,0 6.834999,1.821 7.716999,3.349999c3.164001,5.480001 -3.944,15.095001 -16.534,22.362c-7.035999,4.062 -14.480999,6.487 -19.917,6.487zm28.734001,-29.199999c-4.931999,0 -11.817001,2.274 -18.417,6.085001c-11.483002,6.629999 -17.352001,14.945999 -15.436001,18.264999c0.689,1.193001 2.507,1.849998 5.118999,1.849998c4.932001,0 11.817001,-2.273998 18.417,-6.084999c11.483002,-6.630001 17.352001,-14.945999 15.436001,-18.264999c-0.688999,-1.193001 -2.507,-1.85 -5.118999,-1.85z"/>
  <path id="svg_15" fill="#3ba5fc" d="m46.367001,48.099998c-5.436001,0 -12.881001,-2.424999 -19.917,-6.487c-12.590001,-7.267998 -19.698001,-16.882999 -16.533001,-22.362999c0.882,-1.528 2.937,-3.35 7.717001,-3.35c5.435999,0 12.880999,2.425001 19.916998,6.487c12.589001,7.268002 19.697002,16.883001 16.532001,22.363001c-0.881001,1.528 -2.937,3.349998 -7.716,3.349998zm-28.734001,-29.199999c-2.612,0 -4.429999,0.656 -5.118999,1.85c-1.916,3.318001 3.952999,11.634998 15.436001,18.264999c6.599998,3.811001 13.483997,6.084999 18.417,6.084999c2.612,0 4.43,-0.655998 5.118999,-1.849998c1.916,-3.318001 -3.952999,-11.635 -15.436001,-18.264999c-6.599998,-3.810001 -13.484999,-6.085001 -18.417,-6.085001z"/>
  <circle id="svg_17" r="3" fill="#3ba5fc" cy="32" cx="32"/>
 </g>
</svg>