<svg width="18" height="18" xmlns="http://www.w3.org/2000/svg">
 <title/>
 <desc/>

 <g>
  <title>background</title>
  <rect fill="none" id="canvas_background" height="402" width="582" y="-1" x="-1"/>
 </g>
 <g>
  <title>Layer 1</title>
  <path fill="#4424b8" id="Shape" d="m14,0l-12,0c-1.100006,0 -2,0.899994 -2,2l0,14c0,1.100006 0.899994,2 2,2l14,0c1.100006,0 2,-0.899994 2,-2l0,-12l-4,-4l0,0zm-5,16c-1.699997,0 -3,-1.299988 -3,-3c0,-1.700012 1.300003,-3 3,-3c1.699997,0 3,1.299988 3,3c0,1.700012 -1.300003,3 -3,3l0,0zm3,-10l-10,0l0,-4l10,0l0,4l0,0z"/>
 </g>
</svg>