<svg width="135" height="135" xmlns="http://www.w3.org/2000/svg">

 <g>
  <title>background</title>
  <rect fill="none" id="canvas_background" height="402" width="582" y="-1" x="-1"/>
 </g>
 <g>
  <title>Layer 1</title>
  <circle fill="#1a5f97" id="svg_4" r="61.976997" cy="67.284032" cx="67.5" class="st166"/>
  <path fill="#6f31fd" id="svg_6" d="m67.285034,5.308032l0,123.953001c34.228996,0 61.977005,-27.748001 61.977005,-61.977997c0,-34.227005 -27.748009,-61.975004 -61.977005,-61.975004z" class="st161"/>
  <path fill="#4424b8" id="svg_8" d="m67.5,130.762039c-35.000999,0 -63.477,-28.475998 -63.477,-63.478004c0,-35.000004 28.476001,-63.476003 63.477,-63.476003s63.477005,28.475 63.477005,63.476003c0,35.000999 -28.476006,63.478004 -63.477005,63.478004zm0,-123.954008c-33.347,0 -60.477,27.128999 -60.477,60.476003c0,33.348 27.13,60.477997 60.477,60.477997s60.476997,-27.129997 60.476997,-60.477997c0,-33.346004 -27.129997,-60.476003 -60.476997,-60.476003z" class="st205"/>
  <circle fill="#6338ff" id="svg_11" r="47.977997" cy="67.285032" cx="67.714968" class="st166"/>
  <path fill="#2972aa" id="svg_13" d="m33.576,33.360031l67.850002,67.851006c18.736,-18.736 18.736,-49.114006 0,-67.852005c-18.737,-18.735 -49.114002,-18.735999 -67.850002,0.000999z" class="st161"/>
  <path fill="#4424b8" id="svg_15" d="m67.500999,116.763031c-13.216,0 -25.641998,-5.145996 -34.987,-14.491997c-19.29,-19.292 -19.289,-50.681004 0.001999,-69.972004c9.345001,-9.345999 21.77,-14.491999 34.985001,-14.491999s25.640999,5.146 34.985001,14.490999c19.291,19.292 19.291,50.682003 0,69.973003c-9.344002,9.346001 -21.768997,14.491997 -34.985001,14.491997zm0,-95.955999c-12.413998,0 -24.085999,4.834002 -32.863998,13.612997c-18.121,18.121002 -18.122002,47.607002 -0.002003,65.729004c8.779003,8.778 20.451,13.612999 32.866001,13.612999c12.414001,0 24.085999,-4.834 32.863998,-13.612999c18.121002,-18.122002 18.121002,-47.608013 0,-65.730011c-8.778,-8.776989 -20.449997,-13.61199 -32.863998,-13.61199z" class="st205"/>
  <path fill="#4424b8" id="svg_19" d="m67.5,15.590033c-0.828003,0 -1.5,-0.671 -1.5,-1.5l0,-3.522c0,-0.829 0.671997,-1.5 1.5,-1.5s1.5,0.671 1.5,1.5l0,3.522c0,0.828 -0.671997,1.5 -1.5,1.5z" class="st205"/>
  <path fill="#4424b8" id="svg_21" d="m67.5,125.504036c-0.828003,0 -1.5,-0.671005 -1.5,-1.5l0,-3.522003c0,-0.829002 0.671997,-1.5 1.5,-1.5s1.5,0.670998 1.5,1.5l0,3.522003c0,0.827995 -0.671997,1.5 -1.5,1.5z" class="st205"/>
  <path fill="#4424b8" id="svg_24" d="m105.329964,31.170033c-0.383995,0 -0.767998,-0.146 -1.060997,-0.439001c-0.585999,-0.584999 -0.585999,-1.535999 0,-2.120998l2.489998,-2.490002c0.585999,-0.585999 1.535004,-0.585999 2.121002,0c0.585999,0.585001 0.585999,1.536001 0,2.121l-2.489998,2.49c-0.292,0.292002 -0.676003,0.439001 -1.060005,0.439001z" class="st205"/>
  <path fill="#4424b8" id="svg_26" d="m27.395,108.890038c-0.384001,0 -0.768,-0.146004 -1.061001,-0.439003c-0.586,-0.584999 -0.586,-1.536003 0,-2.121002l2.49,-2.489998c0.586,-0.585999 1.535,-0.585999 2.121,0c0.586,0.584999 0.586,1.536003 0,2.121002l-2.49,2.489998c-0.292999,0.292999 -0.677,0.439003 -1.059999,0.439003z" class="st205"/>
  <path fill="#4424b8" id="svg_29" d="m124.219002,68.785034l-3.523003,0c-0.828003,0 -1.5,-0.670998 -1.5,-1.5s0.671997,-1.5 1.5,-1.5l3.523003,0c0.827995,0 1.5,0.670998 1.5,1.5s-0.672005,1.5 -1.5,1.5z" class="st205"/>
  <path fill="#4424b8" id="svg_31" d="m14.305,68.785034l-3.523001,0c-0.827999,0 -1.5,-0.670998 -1.5,-1.5s0.672001,-1.5 1.5,-1.5l3.523001,0c0.828,0 1.5,0.670998 1.5,1.5s-0.672,1.5 -1.5,1.5z" class="st205"/>
  <path fill="#4424b8" id="svg_34" d="m107.605003,108.890038c-0.384003,0 -0.768005,-0.146004 -1.061005,-0.439003l-2.489998,-2.489998c-0.585999,-0.584999 -0.585999,-1.536003 0,-2.121002c0.585999,-0.585999 1.534996,-0.585999 2.121002,0l2.489998,2.489998c0.585999,0.584999 0.585999,1.536003 0,2.121002c-0.292,0.292999 -0.676003,0.439003 -1.059998,0.439003z" class="st205"/>
  <path fill="#4424b8" id="svg_36" d="m29.885,31.170033c-0.384001,0 -0.768,-0.146 -1.061001,-0.439001l-2.49,-2.49c-0.586,-0.584999 -0.586,-1.535999 0,-2.121c0.586,-0.585999 1.535,-0.585999 2.121,0l2.49,2.490002c0.586,0.584999 0.586,1.535999 0,2.120998c-0.292999,0.292002 -0.676001,0.439001 -1.059999,0.439001z" class="st205"/>
  <path fill="#4424b8" id="svg_40" d="m40.903,22.717031c-0.518002,0 -1.021999,-0.268999 -1.299999,-0.75l-1.762001,-3.050999c-0.414001,-0.717001 -0.168999,-1.635 0.549,-2.049c0.716,-0.414001 1.636002,-0.169001 2.049,0.549l1.762001,3.050999c0.414001,0.717001 0.168999,1.635 -0.549,2.049002c-0.236,0.136 -0.493999,0.200998 -0.749001,0.200998z" class="st205"/>
  <path fill="#4424b8" id="svg_42" d="m95.860001,117.905037c-0.518997,0 -1.022003,-0.270004 -1.301003,-0.750999l-1.759995,-3.051003c-0.413002,-0.718002 -0.167,-1.635002 0.550995,-2.049004c0.713005,-0.413994 1.633003,-0.168999 2.049004,0.550003l1.759995,3.051003c0.413002,0.717995 0.167,1.634995 -0.550995,2.048996c-0.235001,0.136002 -0.493004,0.201004 -0.748001,0.201004z" class="st205"/>
  <path fill="#4424b8" id="svg_45" d="m81.271004,17.403032c-0.128006,0 -0.259003,-0.017 -0.389,-0.051001c-0.800003,-0.213999 -1.275002,-1.036999 -1.062004,-1.837l0.910004,-3.401999c0.213997,-0.8 1.034996,-1.277 1.836998,-1.062c0.799995,0.214 1.275002,1.037001 1.061996,1.837l-0.909996,3.401999c-0.18,0.67 -0.786003,1.113001 -1.447998,1.113001z" class="st205"/>
  <path fill="#4424b8" id="svg_47" d="m52.823002,123.571037c-0.128002,0 -0.259003,-0.017006 -0.389004,-0.051003c-0.799999,-0.213997 -1.274998,-1.037003 -1.061996,-1.836998l0.91,-3.402c0.213997,-0.800003 1.035,-1.276001 1.836998,-1.062004c0.799999,0.214005 1.275002,1.037003 1.062,1.837006l-0.91,3.401993c-0.179001,0.670006 -0.785999,1.113007 -1.447998,1.113007z" class="st205"/>
  <path fill="#4424b8" id="svg_50" d="m113.569,42.18803c-0.517998,0 -1.022003,-0.269001 -1.300003,-0.75c-0.413994,-0.716999 -0.168999,-1.634998 0.549004,-2.049l3.051003,-1.762001c0.715996,-0.415001 1.634995,-0.169998 2.048996,0.549c0.414001,0.717003 0.168999,1.635002 -0.548996,2.049l-3.051003,1.762001c-0.236,0.136002 -0.494003,0.201 -0.749001,0.201z" class="st205"/>
  <path fill="#4424b8" id="svg_52" d="m18.382,97.145035c-0.518999,0 -1.021999,-0.270004 -1.299999,-0.75c-0.414001,-0.718002 -0.169001,-1.635002 0.549,-2.049004l3.050999,-1.760994c0.716002,-0.414001 1.635,-0.167999 2.049002,0.548996s0.168999,1.635002 -0.549002,2.049004l-3.050999,1.760994c-0.236,0.136002 -0.494001,0.201004 -0.749001,0.201004z" class="st205"/>
  <path fill="#4424b8" id="svg_55" d="m122.286003,83.465034c-0.129005,0 -0.260002,-0.016998 -0.389999,-0.052002l-3.402,-0.911995c-0.800003,-0.214005 -1.274002,-1.037003 -1.061005,-1.837006c0.215004,-0.800995 1.043999,-1.275002 1.838005,-1.060997l3.401993,0.912003c0.800003,0.213997 1.274002,1.036995 1.061005,1.836998c-0.179001,0.670998 -0.786003,1.112999 -1.447998,1.112999z" class="st205"/>
  <path fill="#4424b8" id="svg_57" d="m16.118,55.017029c-0.129,0 -0.259,-0.016998 -0.389,-0.051998l-3.402,-0.910999c-0.801,-0.214001 -1.275,-1.037003 -1.061999,-1.837002c0.214999,-0.799999 1.042,-1.273998 1.837,-1.061001l3.401999,0.911003c0.801001,0.213997 1.275,1.036999 1.062,1.836998c-0.179001,0.671001 -0.785999,1.112999 -1.448,1.112999z" class="st205"/>
  <path fill="#4424b8" id="svg_61" d="m21.431,42.18803c-0.254999,0 -0.513,-0.064999 -0.749001,-0.202l-3.050999,-1.762001c-0.718,-0.413998 -0.963001,-1.332001 -0.549,-2.049c0.414,-0.718998 1.333,-0.964001 2.049,-0.549l3.050999,1.762001c0.718,0.413998 0.963001,1.332001 0.549002,2.049c-0.278002,0.481998 -0.783001,0.750999 -1.300001,0.750999z" class="st205"/>
  <path fill="#4424b8" id="svg_63" d="m116.617996,97.145035c-0.254997,0 -0.512993,-0.065002 -0.748993,-0.202003l-3.049004,-1.761993c-0.718002,-0.415001 -0.962997,-1.332001 -0.548996,-2.049004c0.414993,-0.718002 1.331993,-0.962997 2.048996,-0.547997l3.049004,1.761993c0.717995,0.415001 0.962997,1.332001 0.548996,2.049004c-0.278,0.481003 -0.781998,0.75 -1.300003,0.75z" class="st205"/>
  <path fill="#4424b8" id="svg_66" d="m53.730999,17.403032c-0.661999,0 -1.268997,-0.441999 -1.447998,-1.112l-0.912003,-3.401001c-0.213997,-0.799999 0.261002,-1.622999 1.061001,-1.837c0.798,-0.214999 1.623001,0.26 1.838001,1.06l0.911999,3.401c0.214001,0.799999 -0.260998,1.622999 -1.061001,1.837c-0.129997,0.035 -0.260998,0.052 -0.389999,0.052z" class="st205"/>
  <path fill="#4424b8" id="svg_68" d="m82.181,123.571037c-0.662003,0 -1.268997,-0.442001 -1.447998,-1.112l-0.912003,-3.402c-0.213997,-0.800003 0.261002,-1.623001 1.061005,-1.837006c0.798996,-0.214996 1.622993,0.260002 1.837997,1.061005l0.912003,3.402c0.213997,0.799995 -0.261002,1.623001 -1.061005,1.836998c-0.130997,0.033997 -0.261002,0.051003 -0.389999,0.051003z" class="st205"/>
  <path fill="#4424b8" id="svg_71" d="m94.097,22.716032c-0.254997,0 -0.513,-0.065001 -0.749001,-0.202c-0.718002,-0.415001 -0.962997,-1.332001 -0.548996,-2.049l1.761993,-3.050001c0.415001,-0.717999 1.333,-0.962 2.049004,-0.547998c0.718002,0.414999 0.962997,1.331999 0.548996,2.049l-1.761993,3.049999c-0.279007,0.481001 -0.783005,0.75 -1.300003,0.75z" class="st205"/>
  <path fill="#4424b8" id="svg_73" d="m39.139999,117.905037c-0.255001,0 -0.513,-0.065002 -0.749001,-0.202003c-0.717999,-0.415001 -0.962997,-1.332001 -0.549,-2.048996l1.762001,-3.049004c0.415001,-0.718002 1.332001,-0.962997 2.049,-0.547997c0.717999,0.414993 0.963001,1.331993 0.549,2.048996l-1.762001,3.049004c-0.278999,0.480995 -0.782997,0.75 -1.299999,0.75z" class="st205"/>
  <path fill="#4424b8" id="svg_76" d="m118.882004,55.017029c-0.662003,0 -1.269005,-0.441998 -1.448006,-1.112c-0.213997,-0.799999 0.261002,-1.622997 1.062004,-1.836998l3.402,-0.910999c0.797997,-0.214001 1.621994,0.260998 1.836998,1.060997c0.213997,0.800003 -0.261002,1.623001 -1.062004,1.837002l-3.401993,0.910999c-0.130005,0.034 -0.260002,0.050999 -0.389,0.050999z" class="st205"/>
  <path fill="#4424b8" id="svg_78" d="m12.714,83.466034c-0.662,0 -1.268,-0.442001 -1.448,-1.112c-0.214,-0.800003 0.261001,-1.623001 1.061,-1.836998l3.402,-0.913002c0.796999,-0.215004 1.622,0.260002 1.837999,1.059998c0.214001,0.800003 -0.261,1.623001 -1.060999,1.837006l-3.402,0.912994c-0.13,0.036003 -0.261,0.052002 -0.39,0.052002z" class="st205"/>
 </g>
</svg>