<!-- <svg width="64" height="64" xmlns="http://www.w3.org/2000/svg">

 <g>
  <title>background</title>
  <rect fill="none" id="canvas_background" height="402" width="582" y="-1" x="-1"/>
 </g>
 <g>
  <title>Layer 1</title>
  <circle id="svg_2" r="32" fill="#3ba5fc" cy="32" cx="32"/>
  <path opacity="0.2" id="svg_5" fill="#231F20" d="m52.872002,28.063c-0.310001,-0.951 -1.133003,-1.645 -2.121002,-1.789999l-11.327,-1.645l-5.067001,-10.263c-0.444,-0.899 -1.355999,-1.467 -2.356998,-1.467s-1.913,0.568 -2.357,1.467l-5.063999,10.263l-11.329,1.645c-0.991,0.144999 -1.813,0.837999 -2.121,1.789999c-0.309999,0.951 -0.052999,1.995001 0.665,2.694l8.197,7.990002l-1.934,11.282997c-0.167999,0.986 0.237001,1.982002 1.046001,2.57c0.455,0.334 0.996,0.502003 1.542999,0.502003c0.417999,0 0.837999,-0.100002 1.222,-0.302002l10.132,-5.327l10.132,5.327c0.383999,0.202 0.804001,0.302002 1.222,0.302002c0.543999,0 1.088001,-0.168003 1.544998,-0.502003c0.809002,-0.588997 1.214001,-1.584999 1.046001,-2.57l-1.935001,-11.284l8.197002,-7.989998c0.715,-0.696001 0.973,-1.742001 0.665001,-2.693001z"/>
  <path id="svg_8" fill="#1a5f97" d="m52.872002,26.063c-0.310001,-0.951 -1.133003,-1.645 -2.121002,-1.789999l-11.327,-1.645l-5.067001,-10.263c-0.444,-0.899 -1.355999,-1.467 -2.356998,-1.467s-1.913,0.568 -2.357,1.467l-5.063999,10.263l-11.329,1.645c-0.991,0.144999 -1.813,0.837999 -2.121,1.789999c-0.309999,0.951 -0.052999,1.995001 0.665,2.694l8.197,7.990002l-1.934,11.282997c-0.167999,0.986 0.237001,1.982002 1.046001,2.57c0.455,0.334 0.996,0.502003 1.542999,0.502003c0.417999,0 0.837999,-0.100002 1.222,-0.302002l10.132,-5.327l10.132,5.327c0.383999,0.202 0.804001,0.302002 1.222,0.302002c0.543999,0 1.088001,-0.168003 1.544998,-0.502003c0.809002,-0.588997 1.214001,-1.584999 1.046001,-2.57l-1.935001,-11.284l8.197002,-7.989998c0.715,-0.696001 0.973,-1.742001 0.665001,-2.693001z"/>
 </g>
</svg> -->


<svg width="64" height="64" xmlns="http://www.w3.org/2000/svg">

 <g>
  <title>background</title>
  <rect fill="none" id="canvas_background" height="402" width="582" y="-1" x="-1"/>
 </g>
 <g>
  <title>Layer 1</title>
  <circle id="svg_2" r="32" fill="#1a5f97" cy="32" cx="32"/>
  <path opacity="0.2" id="svg_5" fill="#231F20" d="m52.872002,28.063c-0.310001,-0.951 -1.133003,-1.645 -2.121002,-1.789999l-11.327,-1.645l-5.067001,-10.263c-0.444,-0.899 -1.355999,-1.467 -2.356998,-1.467s-1.913,0.568 -2.357,1.467l-5.063999,10.263l-11.329,1.645c-0.991,0.144999 -1.813,0.837999 -2.121,1.789999c-0.309999,0.951 -0.052999,1.995001 0.665,2.694l8.197,7.990002l-1.934,11.282997c-0.167999,0.986 0.237001,1.982002 1.046001,2.57c0.455,0.334 0.996,0.502003 1.542999,0.502003c0.417999,0 0.837999,-0.100002 1.222,-0.302002l10.132,-5.327l10.132,5.327c0.383999,0.202 0.804001,0.302002 1.222,0.302002c0.543999,0 1.088001,-0.168003 1.544998,-0.502003c0.809002,-0.588997 1.214001,-1.584999 1.046001,-2.57l-1.935001,-11.284l8.197002,-7.989998c0.715,-0.696001 0.973,-1.742001 0.665001,-2.693001z"/>
  <path id="svg_8" fill="#161736" d="m52.872002,26.063c-0.310001,-0.951 -1.133003,-1.645 -2.121002,-1.789999l-11.327,-1.645l-5.067001,-10.263c-0.444,-0.899 -1.355999,-1.467 -2.356998,-1.467s-1.913,0.568 -2.357,1.467l-5.063999,10.263l-11.329,1.645c-0.991,0.144999 -1.813,0.837999 -2.121,1.789999c-0.309999,0.951 -0.052999,1.995001 0.665,2.694l8.197,7.990002l-1.934,11.282997c-0.167999,0.986 0.237001,1.982002 1.046001,2.57c0.455,0.334 0.996,0.502003 1.542999,0.502003c0.417999,0 0.837999,-0.100002 1.222,-0.302002l10.132,-5.327l10.132,5.327c0.383999,0.202 0.804001,0.302002 1.222,0.302002c0.543999,0 1.088001,-0.168003 1.544998,-0.502003c0.809002,-0.588997 1.214001,-1.584999 1.046001,-2.57l-1.935001,-11.284l8.197002,-7.989998c0.715,-0.696001 0.973,-1.742001 0.665001,-2.693001z"/>
 </g>
</svg>