<?xml version="1.0" standalone="no"?>
<!DOCTYPE svg PUBLIC "-//W3C//DTD SVG 20010904//EN"
 "http://www.w3.org/TR/2001/REC-SVG-20010904/DTD/svg10.dtd">
<svg version="1.0" xmlns="http://www.w3.org/2000/svg"
 width="261.000000pt" height="261.000000pt" viewBox="0 0 261.000000 261.000000"
 preserveAspectRatio="xMidYMid meet">
<metadata>
Created by potrace 1.11, written by Peter Selinger 2001-2013
</metadata>
<g transform="translate(0.000000,261.000000) scale(0.100000,-0.100000)"
fill="#000000" stroke="none">
<path d="M84 2588 c-17 -12 -42 -38 -55 -57 l-24 -35 -3 -1169 c-2 -1161 -2
-1170 18 -1212 12 -25 38 -55 62 -71 l41 -29 1181 0 1181 0 36 24 c20 14 47
41 60 60 l24 35 3 1155 c1 636 0 1171 -3 1189 -7 37 -55 96 -96 118 -24 12
-198 14 -1211 14 l-1183 0 -31 -22z m478 -948 c48 -14 97 -55 114 -97 29 -69
10 -153 -44 -193 l-31 -23 32 -21 c17 -12 42 -37 55 -56 21 -30 23 -45 20
-106 -3 -57 -9 -79 -31 -112 -89 -135 -331 -115 -398 32 -38 84 -11 196 58
242 l33 22 -26 16 c-80 53 -86 186 -11 254 50 47 148 64 229 42z m579 -24 c71
-47 109 -159 109 -321 0 -218 -66 -336 -196 -351 -71 -9 -128 10 -173 56 -49
50 -71 119 -78 245 -12 216 44 360 155 396 49 16 140 3 183 -25z m540 0 c71
-47 109 -159 109 -321 0 -218 -66 -336 -196 -351 -71 -9 -128 10 -173 56 -49
50 -71 119 -78 245 -12 216 44 360 155 396 49 16 140 3 183 -25z m538 1 c73
-49 111 -158 111 -322 0 -218 -66 -336 -196 -351 -71 -9 -128 10 -173 56 -49
50 -71 119 -78 245 -12 216 44 360 155 396 52 16 137 5 181 -24z"/>
<path d="M429 1521 c-18 -14 -24 -29 -24 -61 0 -51 30 -80 80 -80 44 0 74 27
81 72 5 30 2 41 -19 62 -32 32 -84 35 -118 7z"/>
<path d="M437 1259 c-24 -14 -47 -62 -47 -99 0 -95 98 -144 161 -81 25 25 29
37 29 81 0 44 -4 56 -29 81 -31 31 -79 38 -114 18z"/>
<path d="M983 1515 c-33 -23 -46 -101 -41 -250 5 -172 30 -219 104 -201 48 12
58 47 63 204 3 149 -6 210 -37 245 -19 21 -60 22 -89 2z"/>
<path d="M1523 1515 c-33 -23 -46 -101 -41 -250 5 -172 30 -219 104 -201 48
12 58 47 63 204 3 149 -6 210 -37 245 -19 21 -60 22 -89 2z"/>
<path d="M2063 1515 c-33 -23 -46 -101 -41 -250 5 -172 30 -219 104 -201 48
12 58 47 63 204 3 149 -6 210 -37 245 -19 21 -60 22 -89 2z"/>
</g>
</svg>
