<svg width="348" height="409" xmlns="http://www.w3.org/2000/svg">

 <g>
  <title>background</title>
  <rect fill="none" id="canvas_background" height="411" width="350" y="-1" x="-1"/>
 </g>
 <g>
  <title>Layer 1</title>
  <path id="svg_12" d="m145.872849,160.772278l-3.313995,-6.43399l4.727997,-4.562012l12.726013,25.247009l-5.766022,5.563995l-24.690979,-13.700989l4.556,-4.395996l6.196991,3.651978l5.563995,-5.369995zm-1.759003,8.044006l5.132019,3.01001c1.401978,0.817993 3.109985,2.010986 4.509979,2.885986l0.058014,-0.056c-0.824005,-1.431 -1.869019,-3.207001 -2.636017,-4.694l-2.768005,-5.291992l-4.29599,4.145996z"/>
  <path id="svg_15" d="m119.963852,146.730286c-0.018005,0.447998 0.040985,0.888 0.131989,1.324005c0.183014,0.875 0.537018,1.674988 1.071014,2.390991c0.316986,0.425995 0.673004,0.820007 1.096008,1.147003c0.885986,0.684021 1.877991,1.089996 3.004974,1.136017c0.59201,0.023987 1.170013,-0.063019 1.738007,-0.232025c0.584015,-0.173981 1.132019,-0.431 1.649994,-0.747986c0.624023,-0.381012 1.202026,-0.824005 1.732025,-1.328003c0.29599,-0.281006 0.552002,-0.596985 0.802002,-0.919006c0.313995,-0.404999 0.587982,-0.834991 0.826996,-1.287994c0.289978,-0.54599 0.513977,-1.117004 0.648987,-1.721008c0.147003,-0.653992 0.179016,-1.311981 0.070007,-1.974976c-0.109009,-0.663025 -0.35199,-1.275024 -0.703003,-1.846008c-0.169006,-0.274017 -0.355011,-0.537018 -0.571014,-0.777008c-0.050995,-0.056 -0.096985,-0.117004 -0.141998,-0.177002c-0.165985,-0.221008 -0.359985,-0.414001 -0.570984,-0.591003c-0.782013,-0.655975 -1.687012,-1.036987 -2.686005,-1.210999c-0.299011,-0.052002 -0.600006,-0.083984 -0.903015,-0.093994c-0.036987,-0.001007 -0.073975,0.009003 -0.109985,0.014008c0.024994,-0.009003 0.024994,-0.015015 0.002014,-0.018005c0.001984,0.006989 0.004974,0.015015 0.006989,0.022003c0.024994,-0.041016 0.053009,-0.078003 0.10199,-0.093018c0.045013,-0.013977 0.091003,-0.02597 0.136017,-0.038971c0.484985,-0.146027 0.923004,-0.381012 1.328003,-0.685028c0.380981,-0.28598 0.710999,-0.619995 1.019989,-0.980988c0.479004,-0.559998 0.848999,-1.179993 1.101013,-1.871002c0.268982,-0.737 0.390991,-1.498993 0.35498,-2.283997c-0.037994,-0.82901 -0.269989,-1.600006 -0.694,-2.312988c-0.149994,-0.252014 -0.306,-0.5 -0.510986,-0.713013c-0.059021,-0.061005 -0.108002,-0.130005 -0.132996,-0.213989c-0.5,-0.518005 -1,-1.036011 -1.5,-1.554016c-0.060028,-0.006989 -0.105011,-0.041992 -0.147003,-0.079987c-0.490021,-0.447021 -1.063995,-0.753021 -1.674011,-0.997009c-0.576996,-0.230995 -1.175995,-0.357002 -1.798004,-0.380013c-0.631989,-0.02298 -1.247986,0.067017 -1.846985,0.264008c-0.699005,0.230019 -1.330017,0.587013 -1.914001,1.034004c-0.369995,0.283997 -0.707001,0.60199 -1.029022,0.936005c-0.35498,0.368988 -0.675995,0.765991 -0.946991,1.203003c-0.317993,0.513 -0.533997,1.063995 -0.658997,1.652985c-0.101013,0.473999 -0.143005,0.955017 -0.161011,1.438995c-0.003998,0.094025 -0.009979,0.189026 -0.016998,0.28302c-0.002991,0.042999 -0.043976,0.061005 -0.082001,0.040009c-0.182983,-0.103027 -0.345978,-0.234009 -0.501984,-0.371002c-0.25,-0.219025 -0.473999,-0.460999 -0.675995,-0.72702c-0.51001,-0.671997 -0.859009,-1.424988 -1.119019,-2.221985c-0.326996,-1.006012 -0.501984,-2.040009 -0.569,-3.093994c-0.003998,-0.06601 -0.009979,-0.132027 -0.020996,-0.197029c-0.001984,-0.009979 -0.029999,-0.022003 -0.044983,-0.020996c-0.016998,0.001007 -0.035004,0.014008 -0.049011,0.026001c-0.062988,0.057007 -0.125,0.115997 -0.187012,0.175026c-0.711975,0.681 -1.423004,1.362976 -2.134979,2.043976c-0.472015,0.451996 -0.946014,0.903015 -1.417999,1.354004c-0.65802,0.628021 -1.315002,1.257019 -1.972015,1.88501c-0.067993,0.065002 -0.134003,0.132996 -0.199005,0.197998c0.011017,0.02301 0.016022,0.049988 0.027008,0.053009c0.063995,0.014984 0.128998,0.027985 0.194,0.035004c0.453003,0.044983 0.903015,0.110992 1.347992,0.202972c0.744019,0.154022 1.468018,0.373016 2.157013,0.697021c0.429993,0.201996 0.837982,0.440979 1.214996,0.72998c0.431,0.331024 0.809998,0.71402 1.089996,1.184998c0.063019,0.105011 0.11499,0.21701 0.169006,0.328003c0.015991,0.03302 0.019012,0.072021 0.027985,0.109009c0.005005,0.024994 -0.020996,0.06601 -0.040985,0.063995c-0.411987,-0.042999 -0.812012,0.041016 -1.209015,0.128998c-0.369995,0.082001 -0.734985,0.184021 -1.102997,0.272003c-0.401001,0.096008 -0.764984,0.27301 -1.115997,0.481995c-0.539978,0.321014 -1.035004,0.700012 -1.47998,1.144012c-0.891998,0.889008 -1.518005,1.933014 -1.806,3.164001c-0.368011,1.566986 -0.132019,3.04599 0.682983,4.43399c0.255005,0.434998 0.558014,0.834015 0.912018,1.192993c0.172974,0.175018 0.34198,0.355011 0.517975,0.527008c0.373016,0.365021 0.770996,0.700012 1.202026,0.996002c0.320984,0.220001 0.66098,0.407013 1.02298,0.552002c0.480011,0.19101 0.977997,0.294006 1.494019,0.317993c0.862,0.040009 1.700989,-0.072998 2.513,-0.368988c0.703979,-0.256989 1.321991,-0.64801 1.858978,-1.171997c0.489014,-0.477997 0.856995,-1.032013 1.07901,-1.681c0.024994,-0.072021 0.046997,-0.14502 0.119995,-0.184998c-0.02301,-0.007996 -0.026001,-0.005005 -0.01001,0.007996c0,-0.01001 0.001007,-0.015991 0.002014,-0.02301z"/>
  <path id="svg_28" d="m187.335831,215.776306l-0.518005,-7.218994l6.140991,-2.337006l1.779022,28.21701l-7.489014,2.850006l-17.319,-22.303009l5.916992,-2.252014l4.263,5.794006l7.226013,-2.75zm-4.778992,6.705994l3.536011,4.785004c0.967987,1.303986 2.069,3.070984 3.013,4.425995l0.074982,-0.028992c-0.194977,-1.640015 -0.457977,-3.683014 -0.578979,-5.35202l-0.465027,-5.953979l-5.579987,2.123993z"/>
  <path id="svg_31" fill="#D41920" d="m178.540848,203.011292c-0.063995,0.016998 -0.108002,-0.019989 -0.153992,-0.045013c-0.263,-0.144989 -0.526001,-0.290985 -0.787994,-0.436981c-5.093018,-2.833008 -10.186005,-5.665009 -15.278015,-8.498016c-0.768982,-0.427979 -1.537994,-0.855011 -2.307007,-1.28299c-0.065979,-0.037018 -0.130981,-0.072998 -0.195984,-0.111023c-0.118011,-0.067993 -0.126007,-0.085999 -0.08902,-0.202972c0.019012,-0.061005 0.040009,-0.122009 0.061005,-0.183014c2.263,-6.666992 4.525024,-13.333008 6.789001,-19.998993c0.031006,-0.091003 0.067993,-0.179993 0.106018,-0.268005c0.005981,-0.014008 0.039001,-0.028992 0.052002,-0.024994c0.049988,0.016998 0.098999,0.039001 0.145996,0.065002c0.523987,0.294983 1.046997,0.589996 1.569977,0.885986c3.392029,1.916016 6.784027,3.832001 10.176025,5.748016c2.279999,1.287994 4.559998,2.575989 6.838989,3.86499c0.065002,0.036987 0.127014,0.07901 0.187988,0.122986c0.014008,0.01001 0.026001,0.039001 0.024017,0.056c-0.007996,0.053009 -0.02002,0.105011 -0.037994,0.154999c-0.123016,0.355011 -0.248016,0.709015 -0.373016,1.063019c-1.924988,5.477997 -3.850983,10.954987 -5.776001,16.433014c-0.281006,0.799988 -0.562988,1.599976 -0.845001,2.398987c-0.032013,0.088013 -0.049988,0.184021 -0.106995,0.259003z"/>
  <path id="svg_44" d="m206.010849,281.172302l2.350006,-6.845001l6.56601,0.253998l-9.411011,26.661011l-8.006989,-0.309998l-7.20401,-27.303009l6.325989,0.244995l1.653992,7l7.726013,0.298004zm-7.022003,4.299011l1.380005,5.786987c0.380005,1.578003 0.700989,3.636017 1.040009,5.252014l0.079987,0.002991c0.463013,-1.584991 1.02002,-3.567993 1.563019,-5.152008l1.902985,-5.660004l-5.966003,-0.22998z"/>
  <path id="svg_45" d="m137.450851,178.138306c-0.075989,0.205994 -0.166992,0.390991 -0.213989,0.585999c-0.235016,0.971008 -0.320007,1.959991 -0.34201,2.955994c-0.046997,2.097992 0.343994,4.127014 0.964996,6.119995c0.532013,1.707001 1.239014,3.34201 2.067017,4.924011c1.141998,2.181 2.47699,4.239014 3.994995,6.177002c0.161987,0.207001 0.316986,0.419006 0.477997,0.627014c0.040985,0.053986 0.052002,0.109985 0.001984,0.15799c-0.036987,0.036011 -0.088989,0.070007 -0.138,0.078003c-0.085999,0.014008 -0.174988,0.011993 -0.261993,0.009003c-1.22699,-0.033997 -2.454987,-0.065002 -3.682007,-0.106018c-2.950989,-0.099976 -5.901978,-0.204987 -8.852997,-0.307983c-3.828003,-0.134003 -7.656006,-0.269012 -11.483002,-0.403992c-0.437988,-0.015015 -0.875977,-0.034027 -1.313995,-0.051025c-0.071991,-0.002991 -0.118988,-0.03598 -0.117004,-0.10199c0.001007,-0.053986 0.006012,-0.122009 0.037994,-0.15799c0.367004,-0.416016 0.745026,-0.824005 1.111023,-1.242004c1.235992,-1.40799 2.371979,-2.893005 3.380981,-4.473999c1.152008,-1.805023 2.114014,-3.701019 2.804016,-5.735016c0.501007,-1.475983 0.828003,-2.987 0.938995,-4.536987c0.101013,-1.40802 -0.007996,-2.805023 -0.446991,-4.158997c-0.053009,-0.163025 -0.14502,-0.315002 -0.233002,-0.46402c-0.018005,-0.029999 -0.115021,-0.048004 -0.149017,-0.027008c-0.125,0.073029 -0.244995,0.157013 -0.35498,0.251007c-2.32901,2.001007 -5.053009,3.110016 -8.059021,3.59201c-1.653992,0.264984 -3.315002,0.290009 -4.983002,0.187012c-0.963989,-0.060028 -1.923981,-0.147003 -2.872986,-0.326019c-0.429016,-0.080994 -0.856995,-0.187988 -1.270996,-0.326996c-4.183014,-1.402008 -7.545013,-3.910004 -10.071014,-7.528992c-1.095001,-1.569 -1.954987,-3.256012 -2.492004,-5.098022c-0.368988,-1.266998 -0.576996,-2.560974 -0.677979,-3.877991c-0.141022,-1.845001 -0.083008,-3.684998 0.128998,-5.515991c0.264008,-2.274017 0.846985,-4.476013 1.695007,-6.605011c1.056,-2.649994 2.47998,-5.09198 4.164978,-7.388c1.178009,-1.60498 2.480011,-3.105988 3.835022,-4.562988c2.730988,-2.937012 5.640991,-5.686005 8.661987,-8.321014c2.115997,-1.845001 4.244995,-3.673004 6.36499,-5.512001c0.309021,-0.268005 0.609009,-0.546997 0.904022,-0.830994c2.992981,-2.880005 5.896973,-5.846008 8.665985,-8.942017c1.520996,-1.699982 2.993011,-3.440979 4.355988,-5.271973c0.085999,-0.116028 0.186005,-0.223999 0.292999,-0.322021c0.031006,-0.027985 0.134003,-0.031006 0.157013,-0.003998c0.11499,0.131012 0.222015,0.27002 0.31601,0.416016c0.839996,1.302979 1.720978,2.576996 2.634979,3.828979c2.242004,3.074005 4.64801,6.014008 7.176025,8.855011c2.449982,2.752991 5.03598,5.376015 7.638,7.984016c1.754974,1.759003 3.509979,3.518982 5.237,5.306c1.645996,1.703003 3.242981,3.451996 4.720978,5.304993c1.940002,2.431 3.641022,5.011993 4.951019,7.841003c1.307983,2.826996 2.240997,5.772003 2.730988,8.850006c0.253998,1.59198 0.343018,3.195984 0.210999,4.807983c-0.083984,1.022003 -0.26001,2.031006 -0.488007,3.027008c-0.52298,2.290985 -1.317993,4.481995 -2.483978,6.531006c-1.544006,2.712006 -3.583008,4.96698 -6.170013,6.723999c-1.916992,1.302002 -4.020996,2.122986 -6.294983,2.531006c-1.440002,0.257996 -2.89502,0.390991 -4.354004,0.473999c-0.115997,0.006989 -0.234009,0.005981 -0.350006,-0.006012c-4.283997,-0.437988 -8.093994,-1.966003 -11.279999,-4.920013c-0.321014,-0.297974 -0.615021,-0.625 -0.929993,-0.929993c-0.054016,-0.046997 -0.152008,-0.053009 -0.256012,-0.088989z"/>
  <path id="svg_47" d="m205.657852,241.984314c-0.019989,-0.070007 -0.045013,-0.134003 -0.056,-0.199982c-0.053009,-0.328003 -0.056,-0.659027 -0.037994,-0.990021c0.037994,-0.697998 0.220001,-1.360992 0.477997,-2.005981c0.220001,-0.553009 0.497009,-1.077026 0.812988,-1.581024c0.434998,-0.694977 0.931,-1.342987 1.485016,-1.946991c0.05899,-0.065002 0.115997,-0.130981 0.174988,-0.195984c0.015015,-0.016998 0.019989,-0.035004 0.005005,-0.053009c-0.010986,-0.013 -0.028015,-0.026001 -0.044006,-0.029999c-0.027985,-0.007019 -0.057983,-0.007996 -0.087006,-0.01001c-0.40799,-0.019989 -0.815979,-0.041992 -1.224976,-0.05899c-0.982025,-0.042999 -1.96402,-0.084015 -2.946014,-0.125c-1.273987,-0.054016 -2.548004,-0.108002 -3.821014,-0.161011c-0.145996,-0.005981 -0.291992,-0.010986 -0.436981,-0.016998c-0.024017,-0.001007 -0.040009,0.009003 -0.041016,0.031006c-0.000977,0.018005 -0.000977,0.040985 0.009003,0.053986c0.111023,0.14801 0.226013,0.292999 0.337006,0.44101c0.373993,0.498993 0.713013,1.020996 1.006989,1.571991c0.336029,0.628998 0.606018,1.28302 0.78302,1.975006c0.127991,0.503021 0.197998,1.013 0.195007,1.529999c-0.003021,0.470001 -0.075012,0.931 -0.255005,1.369019c-0.022003,0.052979 -0.056,0.100983 -0.08902,0.14798c-0.006989,0.01001 -0.039001,0.013 -0.049988,0.005005c-0.039001,-0.027008 -0.076996,-0.057983 -0.110992,-0.09198c-0.721008,-0.72403 -1.597015,-1.162018 -2.582001,-1.399017c-0.541992,-0.131012 -1.093018,-0.182007 -1.649017,-0.190002c-0.321991,-0.005005 -0.641998,-0.001007 -0.961975,0.033997c-0.144012,0.016022 -0.289001,0.040009 -0.430023,0.076019c-1.423981,0.358002 -2.60498,1.104004 -3.53598,2.23999c-0.404022,0.493011 -0.733002,1.029999 -0.958008,1.627991c-0.154999,0.411011 -0.256989,0.835022 -0.325012,1.269012c-0.093994,0.609009 -0.121979,1.221008 -0.098999,1.833984c0.029022,0.761017 0.166016,1.507019 0.393005,2.235016c0.282013,0.906982 0.692017,1.753998 1.192017,2.55899c0.349976,0.563019 0.742981,1.095001 1.155975,1.613007c0.831024,1.044983 1.726013,2.032013 2.661011,2.984009c0.654999,0.666992 1.313995,1.327972 1.971008,1.992981c0.095978,0.097015 0.187988,0.197021 0.278992,0.299011c0.919006,1.03299 1.807007,2.09201 2.645996,3.190002c0.460999,0.602997 0.904999,1.218994 1.309998,1.862c0.026001,0.040985 0.056,0.07901 0.08902,0.113983c0.008972,0.01001 0.043976,0.014008 0.051971,0.005005c0.041016,-0.039978 0.081024,-0.083984 0.116028,-0.130005c0.311981,-0.41098 0.636993,-0.810974 0.972992,-1.203003c0.822998,-0.961975 1.696991,-1.875977 2.609009,-2.753998c0.883972,-0.850983 1.809998,-1.654999 2.73999,-2.452972c0.627991,-0.539001 1.255005,-1.078003 1.873993,-1.626007c0.589996,-0.52301 1.165009,-1.062012 1.703003,-1.639008c0.705994,-0.756989 1.337006,-1.570007 1.845001,-2.475006c0.506989,-0.904999 0.891998,-1.858002 1.134003,-2.867004c0.125,-0.522003 0.195984,-1.052002 0.194,-1.589996c-0.001007,-0.341003 -0.033997,-0.681 -0.084015,-1.016998c-0.11499,-0.773987 -0.321991,-1.520996 -0.656982,-2.230988c-0.442993,-0.940002 -1.061005,-1.740021 -1.875,-2.390015c-0.602997,-0.481018 -1.279999,-0.808014 -2.024017,-1.001984c-0.470978,-0.123016 -0.950989,-0.20401 -1.432983,-0.269012c-0.037994,-0.005005 -0.078003,-0.007996 -0.115997,-0.006989c-1.433014,0.035004 -2.737,0.444 -3.869995,1.342987c-0.114014,0.091003 -0.220001,0.192017 -0.333008,0.285004c-0.02301,0.01297 -0.05603,0.011993 -0.091003,0.020996z"/>
  <path id="svg_50" fill="#4424b8" d="m225.064835,361.377289c-6.725006,15.838989 -25.187012,23.295013 -41.026001,16.569l-148.078018,-62.877991c-15.839005,-6.725006 -23.294998,-25.187012 -16.569,-41.026001l103.861038,-244.594025c6.725006,-15.838989 25.187012,-23.294998 41.026001,-16.569l148.078018,62.878014c15.838989,6.724976 23.294983,25.187012 16.56897,41.026001l-103.861008,244.594002z"/>
  <path id="svg_52" fill="#2489b7" d="m152.069839,26.318024c1.890991,0 3.809998,0.371002 5.657013,1.154999l148.078018,62.878014c7.371948,3.130005 10.822998,11.674988 7.692993,19.048004l-103.860031,244.596016c-2.345978,5.524994 -7.734985,8.847992 -13.389984,8.847992c-1.891022,0 -3.809998,-0.371002 -5.657013,-1.154999l-148.07901,-62.877991c-7.371994,-3.130005 -10.822998,-11.675018 -7.692993,-19.048004l103.861023,-244.595032c2.345978,-5.524994 7.734985,-8.847992 13.389984,-8.848999m0.002014,-3.35199l-0.001007,0c-7.199982,0.000992 -13.666992,4.274994 -16.475006,10.889999l-103.863022,244.596024c-1.863998,4.389984 -1.904999,9.247986 -0.115005,13.679993s5.193008,7.899017 9.583008,9.763l148.078033,62.877991c2.221985,0.944 4.565979,1.422028 6.96698,1.422028c7.199005,0 13.666992,-4.275024 16.476013,-10.890015l103.862015,-244.596016c3.852966,-9.073975 -0.39502,-19.589996 -9.468018,-23.442993l-148.078018,-62.878014c-2.221985,-0.943008 -4.565979,-1.421997 -6.965973,-1.421997l0,0z"/>
  <ellipse transform="rotate(23.7877, 176.302, 189.817)" ry="90.299086" rx="43.940262" id="svg_60" cy="189.816835" cx="176.302075" stroke-opacity="null" stroke-width="null" stroke="null" fill="#487cd6"/>
 </g>
</svg>