<svg width="29.999999999999996" height="29.999999999999996" xmlns="http://www.w3.org/2000/svg">

 <g>
  <title>background</title>
  <rect fill="none" id="canvas_background" height="402" width="582" y="-1" x="-1"/>
 </g>
 <g>
  <title>Layer 1</title>
  <path fill="#4424b8" id="svg_1" d="m15,5c-6.075,0 -11,4.925 -11,11c0,6.075001 4.925,11 11,11s11,-4.924999 11,-11c0,-6.075 -4.924999,-11 -11,-11zm1,12l-6.005,0c-0.55,0 -0.995,-0.445 -0.995,-0.995001l0,-0.010999c0,-0.549001 0.445,-0.994 0.995,-0.994l4.005,0l0,-6.005c0,-0.55 0.445,-0.995 0.995,-0.995l0.011,0c0.549001,0 0.994,0.445 0.994,0.995l0,8.005z"/>
  <path fill="#4424b8" id="svg_4" d="m26.701,10.701c1.788,-2.071 1.721001,-5.191 -0.245001,-7.156c-1.966,-1.966 -5.084999,-2.032 -7.156,-0.245l7.401001,7.401z"/>
  <path fill="#4424b8" id="svg_5" d="m10.689,3.288c-2.072001,-1.788 -5.191,-1.721 -7.157,0.244c-1.965,1.966 -2.032,5.085 -0.244,7.157l7.401,-7.401z"/>
 </g>
</svg>