<svg width="512" height="512" xmlns="http://www.w3.org/2000/svg">

 <g>
  <title>background</title>
  <rect fill="none" id="canvas_background" height="402" width="582" y="-1" x="-1"/>
 </g>
 <g>
  <title>Layer 1</title>
  <path id="svg_5" fill="#4424b8" d="m355.375519,281.171997l-115.76001,111.709991c-11.290009,10.890015 -28.830002,11.559998 -40.889999,2.200012c-1.169998,-0.890015 -2.290009,-1.890015 -3.350006,-2.98999l-184.520002,-191.220032c-11.950001,-12.389984 -11.6,-32.290009 0.79,-44.23999l115.760001,-111.710011c12.389999,-11.950001 32.289993,-11.59 44.23999,0.789997l17.490005,18.12001l167.029999,173.099991c11.950012,12.380005 11.600006,32.290009 -0.789978,44.240021z"/>
  <path fill="#4424b8" id="svg_6" opacity="0.15" d="m355.375519,281.171997l-115.76001,111.709991c-11.290009,10.890015 -28.830002,11.559998 -40.889999,2.200012c-1.169998,-0.890015 -2.290009,-1.890015 -3.350006,-2.98999l-184.520002,-191.220032c-11.950001,-12.389984 -11.6,-32.290009 0.79,-44.23999l115.760001,-111.710011c12.389999,-11.950001 32.289993,-11.59 44.23999,0.789997l17.490005,18.12001l167.029999,173.099991c11.950012,12.380005 11.600006,32.290009 -0.789978,44.240021z"/>
  <path fill="#2489b7" id="svg_8" d="m149.130493,52.916985c3.807007,0 7.609009,1.483002 10.455002,4.432007l184.521011,191.223c5.561005,5.763 5.397003,14.977997 -0.365997,20.539001l-115.767014,111.709991c-2.813995,2.716003 -6.451004,4.06601 -10.084,4.06601c-3.807007,0 -7.608994,-1.483002 -10.455002,-4.432007l-184.520996,-191.223999c-5.560997,-5.763 -5.396999,-14.977997 0.366001,-20.539001l115.766994,-111.709c2.815002,-2.715 6.451996,-4.066002 10.084,-4.066002m0,-3.351997c-4.658005,0 -9.065994,1.778 -12.412003,5.006001l-115.765991,111.709011c-3.431999,3.311005 -5.368999,7.766998 -5.453998,12.54599c-0.085003,4.778992 1.691997,9.300995 5.002997,12.733002l184.520992,191.223022c3.395996,3.518982 7.964996,5.457001 12.867004,5.457001c4.658005,0 9.065994,-1.778015 12.412003,-5.006012l115.767014,-111.709015c7.093994,-6.844971 7.29599,-18.184998 0.450989,-25.278992l-184.521011,-191.223007c-3.395996,-3.519001 -7.965988,-5.457001 -12.867996,-5.457001l0,0z"/>
  <path id="svg_12" d="m324.806519,253.151978l-3.313995,-6.43399l4.727997,-4.562012l12.726013,25.247009l-5.766022,5.563995l-24.690979,-13.700989l4.556,-4.395996l6.196991,3.651978l5.563995,-5.369995zm-1.759003,8.044006l5.132019,3.01001c1.401978,0.817993 3.109985,2.010986 4.509979,2.885986l0.058014,-0.056c-0.824005,-1.431 -1.869019,-3.207001 -2.636017,-4.694l-2.768005,-5.291992l-4.29599,4.145996z"/>
  <path id="svg_13" d="m163.678497,222.256989c-1.423004,0.007019 -2.813004,-0.230988 -4.186996,-0.569977c-2.755005,-0.680023 -5.255005,-1.89502 -7.468002,-3.669006c-1.31601,-1.054993 -2.526001,-2.230011 -3.514999,-3.609009c-2.070999,-2.888 -3.24501,-6.082001 -3.263,-9.664001c-0.009003,-1.882996 0.332001,-3.707001 0.932999,-5.488007c0.619003,-1.833984 1.496002,-3.541992 2.561005,-5.151001c1.279999,-1.935974 2.75,-3.720978 4.408997,-5.346985c0.927002,-0.90799 1.957001,-1.684998 3.007996,-2.440002c1.322006,-0.949005 2.718002,-1.769989 4.180008,-2.480011c1.764999,-0.856995 3.603989,-1.502991 5.535995,-1.86499c2.091003,-0.391998 4.182999,-0.42099 6.274994,0c2.093002,0.42099 4.007004,1.261993 5.778,2.438995c0.852005,0.567017 1.664001,1.187012 2.402008,1.899017c0.172989,0.166992 0.358994,0.319977 0.54599,0.470978c0.682999,0.550018 1.272003,1.189026 1.810013,1.880005c1.991989,2.554993 3.100998,5.471008 3.539993,8.660004c0.132004,0.955017 0.197006,1.914001 0.197006,2.877991c0,0.117004 -0.037003,0.233002 -0.056,0.348022c0.029999,-0.078003 0.049988,-0.07901 0.057999,-0.005005c-0.02301,-0.007996 -0.046005,-0.016998 -0.069,-0.024994c0.131989,-0.075012 0.25499,-0.161011 0.307999,-0.312012c0.048996,-0.141998 0.091995,-0.286011 0.139999,-0.428009c0.51799,-1.52298 1.313004,-2.886993 2.32399,-4.136993c0.951004,-1.174988 2.048004,-2.186005 3.228012,-3.125c1.830002,-1.455994 3.841995,-2.55899 6.062988,-3.281006c2.371002,-0.769989 4.800003,-1.071991 7.28801,-0.867004c2.625992,0.216003 5.048004,1.039001 7.261993,2.463013c0.783005,0.502991 1.553009,1.027008 2.205002,1.70401c0.188004,0.194977 0.402008,0.358978 0.662994,0.447998c1.588013,1.644989 3.175003,3.290985 4.763,4.936005c0.014008,0.190979 0.121002,0.336975 0.239014,0.474976c1.362991,1.605011 2.268997,3.462006 2.974991,5.425018c0.667007,1.855988 0.999008,3.773987 1.001999,5.748993c0.001999,2.007996 -0.35199,3.951996 -1.04599,5.829987c-0.809006,2.192017 -2.012009,4.154022 -3.498001,5.957001c-0.942001,1.143005 -1.991013,2.174011 -3.088013,3.15802c-1.209991,1.085999 -2.505997,2.057983 -3.923996,2.869995c-1.664001,0.951996 -3.438004,1.574005 -5.319992,1.904999c-1.516006,0.265991 -3.047012,0.346008 -4.583008,0.348999c-0.300003,0.001007 -0.600998,0.010986 -0.901001,0.022003c-0.136002,0.005005 -0.199997,0.132996 -0.136993,0.253998c0.304993,0.59201 0.703003,1.123993 1.119995,1.63501c0.666,0.816986 1.410995,1.557983 2.229996,2.227997c2.075012,1.695984 4.423004,2.889008 6.924011,3.802002c3.153992,1.151978 6.416992,1.824982 9.753998,2.154999c0.209,0.020996 0.416992,0.048004 0.623001,0.087006c0.030991,0.005981 0.067001,0.097992 0.061996,0.144989c-0.005997,0.053986 -0.046997,0.110992 -0.087997,0.152985c-0.188995,0.193024 -0.382004,0.383026 -0.576004,0.572021c-2.242996,2.181 -4.485992,4.360992 -6.727997,6.544006c-1.487,1.447998 -2.971008,2.898987 -4.457001,4.347992c-2.068008,2.015991 -4.136002,4.031006 -6.205994,6.044983c-0.215012,0.209015 -0.437012,0.411011 -0.650009,0.610016c-0.070999,-0.037018 -0.158005,-0.056 -0.164001,-0.091003c-0.041,-0.205017 -0.076004,-0.411987 -0.089005,-0.619995c-0.092987,-1.442017 -0.25,-2.877014 -0.490997,-4.302002c-0.403,-2.380005 -1.016998,-4.700012 -1.968994,-6.925018c-0.593994,-1.386993 -1.304001,-2.708984 -2.179001,-3.936981c-1.003006,-1.406006 -2.173996,-2.649994 -3.636993,-3.593018c-0.327011,-0.210999 -0.67601,-0.389984 -1.021011,-0.571991c-0.102997,-0.053986 -0.22699,-0.070007 -0.343002,-0.100006c-0.077988,-0.019989 -0.212997,0.058014 -0.207993,0.122009c0.089996,1.312988 -0.222,2.571014 -0.546005,3.821991c-0.300995,1.164001 -0.666992,2.309998 -0.987991,3.468994c-0.348999,1.261017 -0.95401,2.397003 -1.656006,3.488007c-1.078995,1.677002 -2.339005,3.20401 -3.796997,4.56601c-2.921997,2.730011 -6.307007,4.596985 -10.246002,5.373993c-5.014999,0.989014 -9.682999,0.074005 -13.992996,-2.669006c-1.350006,-0.859985 -2.583008,-1.863983 -3.684006,-3.028992c-0.537003,-0.567993 -1.08699,-1.126007 -1.612991,-1.70401c-1.116013,-1.224976 -2.13501,-2.526978 -3.02301,-3.926971c-0.662003,-1.044006 -1.218002,-2.143005 -1.634995,-3.309021c-0.550995,-1.544006 -0.824005,-3.138 -0.839996,-4.776001c-0.028,-2.738983 0.422989,-5.389008 1.453995,-7.93399c0.893997,-2.207001 2.205994,-4.123016 3.931,-5.766998c1.572998,-1.498993 3.371994,-2.602997 5.455994,-3.233002c0.23201,-0.070007 0.465012,-0.132996 0.599014,-0.360016c0.021988,0.074005 0.013992,0.085022 -0.026001,0.031006c0.021988,0 0.041992,-0.002014 0.061996,-0.005005z"/>
  <path id="svg_15" d="m298.897522,239.109985c-0.018005,0.447998 0.040985,0.888 0.131989,1.324005c0.183014,0.875 0.537018,1.674988 1.071014,2.390991c0.316986,0.425995 0.673004,0.820007 1.096008,1.147003c0.885986,0.684021 1.877991,1.089996 3.004974,1.136017c0.59201,0.023987 1.170013,-0.063019 1.738007,-0.232025c0.584015,-0.173981 1.132019,-0.431 1.649994,-0.747986c0.624023,-0.381012 1.202026,-0.824005 1.732025,-1.328003c0.29599,-0.281006 0.552002,-0.596985 0.802002,-0.919006c0.313995,-0.404999 0.587982,-0.834991 0.826996,-1.287994c0.289978,-0.54599 0.513977,-1.117004 0.648987,-1.721008c0.147003,-0.653992 0.179016,-1.311981 0.070007,-1.974976c-0.109009,-0.663025 -0.35199,-1.275024 -0.703003,-1.846008c-0.169006,-0.274017 -0.355011,-0.537018 -0.571014,-0.777008c-0.050995,-0.056 -0.096985,-0.117004 -0.141998,-0.177002c-0.165985,-0.221008 -0.359985,-0.414001 -0.570984,-0.591003c-0.782013,-0.655975 -1.687012,-1.036987 -2.686005,-1.210999c-0.299011,-0.052002 -0.600006,-0.083984 -0.903015,-0.093994c-0.036987,-0.001007 -0.073975,0.009003 -0.109985,0.014008c0.024994,-0.009003 0.024994,-0.015015 0.002014,-0.018005c0.001984,0.006989 0.004974,0.015015 0.006989,0.022003c0.024994,-0.041016 0.053009,-0.078003 0.10199,-0.093018c0.045013,-0.013977 0.091003,-0.02597 0.136017,-0.038971c0.484985,-0.146027 0.923004,-0.381012 1.328003,-0.685028c0.380981,-0.28598 0.710999,-0.619995 1.019989,-0.980988c0.479004,-0.559998 0.848999,-1.179993 1.101013,-1.871002c0.268982,-0.737 0.390991,-1.498993 0.35498,-2.283997c-0.037994,-0.82901 -0.269989,-1.600006 -0.694,-2.312988c-0.149994,-0.252014 -0.306,-0.5 -0.510986,-0.713013c-0.059021,-0.061005 -0.108002,-0.130005 -0.132996,-0.213989c-0.5,-0.518005 -1,-1.036011 -1.5,-1.554016c-0.060028,-0.006989 -0.105011,-0.041992 -0.147003,-0.079987c-0.490021,-0.447021 -1.063995,-0.753021 -1.674011,-0.997009c-0.576996,-0.230988 -1.175995,-0.356995 -1.798004,-0.380005c-0.631989,-0.02298 -1.247986,0.067017 -1.846985,0.264008c-0.699005,0.230011 -1.330017,0.587006 -1.914001,1.033997c-0.369995,0.283997 -0.707001,0.60199 -1.029022,0.936005c-0.35498,0.368988 -0.675995,0.765991 -0.946991,1.203003c-0.317993,0.513 -0.533997,1.063995 -0.658997,1.652985c-0.101013,0.473999 -0.143005,0.955017 -0.161011,1.438995c-0.003998,0.094025 -0.009979,0.189026 -0.016998,0.28302c-0.002991,0.042999 -0.043976,0.061005 -0.082001,0.040009c-0.182983,-0.103027 -0.345978,-0.234009 -0.501984,-0.371002c-0.25,-0.219025 -0.473999,-0.460999 -0.675995,-0.72702c-0.51001,-0.671997 -0.859009,-1.424988 -1.119019,-2.221985c-0.326996,-1.006012 -0.501984,-2.040009 -0.569,-3.093994c-0.003998,-0.06601 -0.009979,-0.132019 -0.020996,-0.197021c-0.001984,-0.009979 -0.029999,-0.022003 -0.044983,-0.020996c-0.016998,0.001007 -0.035004,0.014008 -0.049011,0.026001c-0.062988,0.057007 -0.125,0.115997 -0.187012,0.175018c-0.711975,0.681 -1.423004,1.362976 -2.134979,2.043976c-0.472015,0.451996 -0.946014,0.903015 -1.417999,1.354004c-0.65802,0.628021 -1.315002,1.257019 -1.972015,1.88501c-0.067993,0.065002 -0.134003,0.132996 -0.199005,0.197998c0.011017,0.02301 0.016022,0.049988 0.027008,0.053009c0.063995,0.014984 0.128998,0.027985 0.194,0.035004c0.453003,0.044983 0.903015,0.110992 1.347992,0.202972c0.744019,0.154022 1.468018,0.373016 2.157013,0.697021c0.429993,0.201996 0.837982,0.440979 1.214996,0.72998c0.431,0.331024 0.809998,0.71402 1.089996,1.184998c0.063019,0.105011 0.11499,0.21701 0.169006,0.328003c0.015991,0.03302 0.019012,0.072021 0.027985,0.109009c0.005005,0.024994 -0.020996,0.06601 -0.040985,0.063995c-0.411987,-0.042999 -0.812012,0.041016 -1.209015,0.128998c-0.369995,0.082001 -0.734985,0.184021 -1.102997,0.272003c-0.401001,0.096008 -0.764984,0.27301 -1.115997,0.481995c-0.539978,0.321014 -1.035004,0.700012 -1.47998,1.144012c-0.891998,0.889008 -1.518005,1.933014 -1.806,3.164001c-0.368011,1.566986 -0.132019,3.04599 0.682983,4.43399c0.255005,0.434998 0.558014,0.834015 0.912018,1.192993c0.172974,0.175018 0.34198,0.355011 0.517975,0.527008c0.373016,0.365021 0.770996,0.700012 1.202026,0.996002c0.320984,0.220001 0.66098,0.407013 1.02298,0.552002c0.480011,0.19101 0.977997,0.294006 1.494019,0.317993c0.862,0.040009 1.700989,-0.072998 2.513,-0.368988c0.703979,-0.256989 1.321991,-0.64801 1.858978,-1.171997c0.489014,-0.477997 0.856995,-1.032013 1.07901,-1.681c0.024994,-0.072021 0.046997,-0.14502 0.119995,-0.184998c-0.02301,-0.007996 -0.026001,-0.005005 -0.01001,0.007996c0,-0.01001 0.001007,-0.015991 0.002014,-0.02301z"/>
  <path opacity="0.1" id="svg_18" fill="#FCF0C0" d="m355.375519,281.171997l-115.76001,111.709991c-11.290009,10.890015 -28.830002,11.559998 -40.889999,2.200012c-2.470001,-2.580017 -4.520004,-5.630005 -6.020004,-9.080017l-105.68,-243.820007c-6.840004,-15.789986 0.479996,-34.30999 16.269997,-41.149986l85.839996,-37.200005l167.029999,173.099991c11.950012,12.380005 11.600006,32.290009 -0.789978,44.240021z"/>
  <path opacity="0.1" id="svg_19" d="m355.375519,281.171997l-115.76001,111.709991c-11.290009,10.890015 -28.830002,11.559998 -40.889999,2.200012c-2.470001,-2.580017 -4.520004,-5.630005 -6.020004,-9.080017l-105.68,-243.820007c-6.840004,-15.789986 0.479996,-34.30999 16.269997,-41.149986l85.839996,-37.200005l167.029999,173.099991c11.950012,12.380005 11.600006,32.290009 -0.789978,44.240021z"/>
  <path id="svg_21" fill="#4424b8" d="m383.365509,345.941986l-150.350021,57.220001c-9.850006,3.75 -20.490005,2.140015 -28.660004,-3.380005c-0.009995,0 -0.020004,-0.009979 -0.029999,-0.019989c-5.149994,-3.480011 -9.309998,-8.51001 -11.679993,-14.720001l-94.519989,-248.350037c-6.120003,-16.089989 2.029999,-34.249992 18.120003,-40.369987l150.350014,-57.220001c16.079987,-6.119999 34.25,2.029999 40.369995,18.110001l8.589996,22.580002l85.929993,225.780022c6.119995,16.080017 -2.029999,34.25 -18.119995,40.369995z"/>
  <path fill="#4424b8" id="svg_22" opacity="0.1" d="m383.365509,345.941986l-150.350021,57.220001c-9.850006,3.75 -20.490005,2.140015 -28.660004,-3.380005c-0.009995,0 -0.020004,-0.009979 -0.029999,-0.019989c-5.149994,-3.480011 -9.309998,-8.51001 -11.679993,-14.720001l-94.519989,-248.350037c-6.120003,-16.089989 2.029999,-34.249992 18.120003,-40.369987l150.350014,-57.220001c16.079987,-6.119999 34.25,2.029999 40.369995,18.110001l8.589996,22.580002l85.929993,225.780022c6.119995,16.080017 -2.029999,34.25 -18.119995,40.369995z"/>
  <path id="svg_24" fill="#2489b7" d="m277.708496,53.814987c5.858002,0 11.388,3.568001 13.59201,9.360001l94.515991,248.356995c2.848999,7.485016 -0.924011,15.894012 -8.408997,18.742004l-150.355011,57.220001c-1.694,0.64502 -3.437012,0.950012 -5.150009,0.950012c-5.858002,0 -11.388,-3.567993 -13.591995,-9.360016l-94.515991,-248.356995c-2.848999,-7.485008 0.923996,-15.894005 8.408997,-18.741997l150.355011,-57.220005c1.694,-0.645 3.436005,-0.950001 5.149994,-0.950001m0.001007,-3.351997l-0.001007,0c-2.169006,0 -4.303009,0.393997 -6.34201,1.169998l-150.35498,57.220001c-4.457001,1.695999 -7.989006,5.031998 -9.945999,9.393005s-2.100006,9.216995 -0.404007,13.673988l94.515991,248.357025c2.622009,6.889984 9.344009,11.519989 16.725006,11.519989c2.168991,0 4.302994,-0.393005 6.341995,-1.170013l150.354996,-57.219971c4.457001,-1.696014 7.989014,-5.032013 9.946014,-9.393005s2.100006,-9.21701 0.403992,-13.674011l-94.515991,-248.358009c-2.621979,-6.889999 -9.342987,-11.518997 -16.723999,-11.518997l0,0z"/>
  <path id="svg_28" d="m366.269501,308.156006l-0.518005,-7.218994l6.140991,-2.337006l1.779022,28.21701l-7.489014,2.850006l-17.319,-22.303009l5.916992,-2.252014l4.263,5.794006l7.226013,-2.75zm-4.778992,6.705994l3.536011,4.785004c0.967987,1.303986 2.069,3.070984 3.013,4.425995l0.074982,-0.028992c-0.194977,-1.640015 -0.457977,-3.683014 -0.578979,-5.35202l-0.465027,-5.953979l-5.579987,2.123993z"/>
  <path id="svg_29" fill="#D41920" d="m265.272522,261.869995c-0.167999,0.044006 -0.283997,-0.053009 -0.403015,-0.118011c-0.690979,-0.378998 -1.378998,-0.763 -2.067993,-1.147003c-13.359009,-7.429993 -26.718002,-14.860992 -40.077011,-22.290985c-2.016998,-1.122009 -4.035004,-2.244019 -6.052002,-3.365997c-0.171997,-0.096008 -0.345001,-0.19101 -0.514999,-0.290009c-0.30899,-0.178986 -0.330002,-0.22699 -0.231995,-0.53299c0.050995,-0.161011 0.106003,-0.321014 0.160004,-0.481018c5.934998,-17.487 11.871002,-34.973999 17.807999,-52.460999c0.080994,-0.238983 0.177994,-0.471985 0.278992,-0.703003c0.016006,-0.036987 0.100998,-0.076996 0.137009,-0.065002c0.131989,0.045013 0.261002,0.103027 0.381989,0.172028c1.374008,0.77298 2.747009,1.547974 4.119003,2.322998c8.89801,5.026001 17.795029,10.050995 26.692032,15.076996c5.980988,3.377991 11.960999,6.756989 17.940979,10.136993c0.170013,0.096008 0.334015,0.207001 0.492004,0.321991c0.037994,0.027008 0.069,0.101013 0.062012,0.14801c-0.022003,0.138 -0.053009,0.276001 -0.098999,0.40799c-0.324005,0.931 -0.652008,1.860016 -0.979004,2.789001c-5.050018,14.368011 -10.101013,28.735992 -15.151001,43.104004c-0.738007,2.097992 -1.476013,4.196014 -2.21701,6.292999c-0.082001,0.233002 -0.131012,0.483002 -0.278992,0.682007z"/>
  <path id="svg_31" fill="#D41920" d="m357.474518,295.390991c-0.063995,0.016998 -0.108002,-0.019989 -0.153992,-0.045013c-0.263,-0.144989 -0.526001,-0.290985 -0.787994,-0.436981c-5.093018,-2.833008 -10.186005,-5.665009 -15.278015,-8.498016c-0.768982,-0.427979 -1.537994,-0.855011 -2.307007,-1.28299c-0.065979,-0.037018 -0.130981,-0.072998 -0.195984,-0.111023c-0.118011,-0.067993 -0.126007,-0.085999 -0.08902,-0.202972c0.019012,-0.061005 0.040009,-0.122009 0.061005,-0.183014c2.263,-6.666992 4.525024,-13.333008 6.789001,-19.998993c0.031006,-0.091003 0.067993,-0.179993 0.106018,-0.268005c0.005981,-0.014008 0.039001,-0.028992 0.052002,-0.024994c0.049988,0.016998 0.098999,0.039001 0.145996,0.065002c0.523987,0.294983 1.046997,0.589996 1.569977,0.885986c3.392029,1.916016 6.784027,3.832001 10.176025,5.748016c2.279999,1.287994 4.559998,2.575989 6.838989,3.86499c0.065002,0.036987 0.127014,0.07901 0.187988,0.122986c0.014008,0.01001 0.026001,0.039001 0.024017,0.056c-0.007996,0.053009 -0.02002,0.105011 -0.037994,0.154999c-0.123016,0.355011 -0.248016,0.709015 -0.373016,1.063019c-1.924988,5.477997 -3.850983,10.954987 -5.776001,16.433014c-0.281006,0.799988 -0.562988,1.599976 -0.845001,2.398987c-0.032013,0.088013 -0.049988,0.184021 -0.106995,0.259003z"/>
  <path opacity="0.1" id="svg_34" fill="#4424b8" d="m383.365509,345.941986l-150.350021,57.220001c-9.850006,3.75 -20.490005,2.140015 -28.660004,-3.380005c-0.009995,0 -0.020004,-0.009979 -0.029999,-0.019989c-5.839996,-5.660004 -9.5,-13.559998 -9.550003,-22.279999l-1.449997,-265.730034c-0.100006,-17.209991 13.899994,-31.359993 31.110001,-31.459991l91.120026,-0.5l85.929993,225.780022c6.119995,16.080017 -2.029999,34.25 -18.119995,40.369995z"/>
  <path fill="#b4abd8" opacity="0.1" id="svg_35" d="m383.365509,345.941986l-150.350021,57.220001c-9.850006,3.75 -20.490005,2.140015 -28.660004,-3.380005c-0.009995,0 -0.020004,-0.009979 -0.029999,-0.019989c-5.839996,-5.660004 -9.5,-13.559998 -9.550003,-22.279999l-1.449997,-265.730034c-0.100006,-17.209991 13.899994,-31.359993 31.110001,-31.459991l91.120026,-0.5l85.929993,225.780022c6.119995,16.080017 -2.029999,34.25 -18.119995,40.369995z"/>
  <path id="svg_37" fill="#4424b8" d="m428.625519,119.421989l-0.639984,16.579994l-9.630005,248.960022c-0.660004,17.190002 -15.27002,30.720001 -32.470001,30.049988l-160.750031,-6.220001c-8.399994,-0.320007 -15.919998,-3.970001 -21.339996,-9.619995c-5.679993,-5.920013 -9.059998,-14.049988 -8.720001,-22.850006l10.270004,-265.529991c0.669998,-17.200012 15.279999,-30.720001 32.470001,-30.059998l160.759995,6.219994c17.190002,0.659996 30.720001,15.279991 30.050018,32.469994z"/>
  <path fill="#4424b8" id="svg_38" opacity="0.05" d="m428.625519,119.421989l-0.639984,16.579994l-9.630005,248.960022c-0.660004,17.190002 -15.27002,30.720001 -32.470001,30.049988l-160.750031,-6.220001c-8.399994,-0.320007 -15.919998,-3.970001 -21.339996,-9.619995c-5.679993,-5.920013 -9.059998,-14.049988 -8.720001,-22.850006l10.270004,-265.529991c0.669998,-17.200012 15.279999,-30.720001 32.470001,-30.059998l160.759995,6.219994c17.190002,0.659996 30.720001,15.279991 30.050018,32.469994z"/>
  <path fill="#2489b7" id="svg_40" d="m236.601501,97.471992c0.189011,0 0.378006,0.003998 0.568008,0.011002l160.75502,6.216995c8.002991,0.309998 14.263,7.072998 13.953003,15.076004l-10.268036,265.535011c-0.302002,7.813019 -6.756012,13.964996 -14.507996,13.964996c-0.188995,0 -0.377991,-0.003998 -0.567993,-0.010986l-160.755035,-6.21701c-8.002991,-0.30899 -14.263,-7.072998 -13.953995,-15.075989l10.268997,-265.535027c0.303024,-7.813004 6.756027,-13.964005 14.508026,-13.964996m0,-3.352005l0,0c-9.640991,0.001007 -17.485001,7.550003 -17.856995,17.186996l-10.269012,265.535027c-0.184006,4.765991 1.501999,9.321991 4.749008,12.829987s7.658997,5.541016 12.424988,5.726013l160.75502,6.21701c0.234009,0.009003 0.466003,0.013 0.697998,0.013c9.640991,0 17.485016,-7.549011 17.856995,-17.187012l10.269012,-265.535011c0.380981,-9.850998 -7.322998,-18.173996 -17.173981,-18.555008l-160.755035,-6.216995c-0.234009,-0.009003 -0.465012,-0.014008 -0.697998,-0.014008l0,0z"/>
  <path id="svg_44" d="m384.944519,373.552002l2.350006,-6.845001l6.56601,0.253998l-9.411011,26.661011l-8.006989,-0.309998l-7.20401,-27.303009l6.325989,0.244995l1.653992,7l7.726013,0.298004zm-7.022003,4.299011l1.380005,5.786987c0.380005,1.578003 0.700989,3.636017 1.040009,5.252014l0.079987,0.002991c0.463013,-1.584991 1.02002,-3.567993 1.563019,-5.152008l1.902985,-5.660004l-5.966003,-0.22998z"/>
  <path id="svg_45" d="m316.384521,270.518005c-0.075989,0.205994 -0.166992,0.390991 -0.213989,0.585999c-0.235016,0.971008 -0.320007,1.959991 -0.34201,2.955994c-0.046997,2.097992 0.343994,4.127014 0.964996,6.119995c0.532013,1.707001 1.239014,3.34201 2.067017,4.924011c1.141998,2.181 2.47699,4.239014 3.994995,6.177002c0.161987,0.207001 0.316986,0.419006 0.477997,0.627014c0.040985,0.053986 0.052002,0.109985 0.001984,0.15799c-0.036987,0.036011 -0.088989,0.070007 -0.138,0.078003c-0.085999,0.014008 -0.174988,0.011993 -0.261993,0.009003c-1.22699,-0.033997 -2.454987,-0.065002 -3.682007,-0.106018c-2.950989,-0.099976 -5.901978,-0.204987 -8.852997,-0.307983c-3.828003,-0.134003 -7.656006,-0.269012 -11.483002,-0.403992c-0.437988,-0.015015 -0.875977,-0.034027 -1.313995,-0.051025c-0.071991,-0.002991 -0.118988,-0.03598 -0.117004,-0.10199c0.001007,-0.053986 0.006012,-0.122009 0.037994,-0.15799c0.367004,-0.416016 0.745026,-0.824005 1.111023,-1.242004c1.235992,-1.40799 2.371979,-2.893005 3.380981,-4.473999c1.152008,-1.805023 2.114014,-3.701019 2.804016,-5.735016c0.501007,-1.475983 0.828003,-2.987 0.938995,-4.536987c0.101013,-1.40802 -0.007996,-2.805023 -0.446991,-4.158997c-0.053009,-0.163025 -0.14502,-0.315002 -0.233002,-0.46402c-0.018005,-0.029999 -0.115021,-0.048004 -0.149017,-0.027008c-0.125,0.073029 -0.244995,0.157013 -0.35498,0.251007c-2.32901,2.001007 -5.053009,3.110016 -8.059021,3.59201c-1.653992,0.264984 -3.315002,0.290009 -4.983002,0.187012c-0.963989,-0.060028 -1.923981,-0.147003 -2.872986,-0.326019c-0.429016,-0.080994 -0.856995,-0.187988 -1.270996,-0.326996c-4.183014,-1.402008 -7.545013,-3.910004 -10.071014,-7.528992c-1.095001,-1.569 -1.954987,-3.256012 -2.492004,-5.098022c-0.368988,-1.266998 -0.576996,-2.560974 -0.677979,-3.877991c-0.141022,-1.845001 -0.083008,-3.684998 0.128998,-5.515991c0.264008,-2.274017 0.846985,-4.476013 1.695007,-6.605011c1.056,-2.649994 2.47998,-5.09198 4.164978,-7.388c1.178009,-1.60498 2.480011,-3.105988 3.835022,-4.562988c2.730988,-2.937012 5.640991,-5.686005 8.661987,-8.321014c2.115997,-1.845001 4.244995,-3.673004 6.36499,-5.511993c0.309021,-0.268005 0.609009,-0.546997 0.904022,-0.830994c2.992981,-2.880005 5.896973,-5.846008 8.665985,-8.942017c1.520996,-1.699982 2.993011,-3.440979 4.355988,-5.271973c0.085999,-0.116028 0.186005,-0.223999 0.292999,-0.322021c0.031006,-0.027985 0.134003,-0.031006 0.157013,-0.003998c0.11499,0.131012 0.222015,0.27002 0.31601,0.416016c0.839996,1.302979 1.720978,2.576996 2.634979,3.828979c2.242004,3.074005 4.64801,6.014008 7.176025,8.855011c2.449982,2.752991 5.03598,5.376007 7.638,7.984009c1.754974,1.759003 3.509979,3.518982 5.237,5.306c1.645996,1.703003 3.242981,3.451996 4.720978,5.304993c1.940002,2.431 3.641022,5.011993 4.951019,7.841003c1.307983,2.826996 2.240997,5.772003 2.730988,8.850006c0.253998,1.59198 0.343018,3.195984 0.210999,4.807983c-0.083984,1.022003 -0.26001,2.031006 -0.488007,3.027008c-0.52298,2.290985 -1.317993,4.481995 -2.483978,6.531006c-1.544006,2.712006 -3.583008,4.96698 -6.170013,6.723999c-1.916992,1.302002 -4.020996,2.122986 -6.294983,2.531006c-1.440002,0.257996 -2.89502,0.390991 -4.354004,0.473999c-0.115997,0.006989 -0.234009,0.005981 -0.350006,-0.006012c-4.283997,-0.437988 -8.093994,-1.966003 -11.279999,-4.920013c-0.321014,-0.297974 -0.615021,-0.625 -0.929993,-0.929993c-0.054016,-0.046997 -0.152008,-0.053009 -0.256012,-0.088989z"/>
  <path id="svg_47" d="m384.591522,334.364014c-0.019989,-0.070007 -0.045013,-0.134003 -0.056,-0.199982c-0.053009,-0.328003 -0.056,-0.659027 -0.037994,-0.990021c0.037994,-0.697998 0.220001,-1.360992 0.477997,-2.005981c0.220001,-0.553009 0.497009,-1.077026 0.812988,-1.581024c0.434998,-0.694977 0.931,-1.342987 1.485016,-1.946991c0.05899,-0.065002 0.115997,-0.130981 0.174988,-0.195984c0.015015,-0.016998 0.019989,-0.035004 0.005005,-0.053009c-0.010986,-0.013 -0.028015,-0.026001 -0.044006,-0.029999c-0.027985,-0.007019 -0.057983,-0.007996 -0.087006,-0.01001c-0.40799,-0.019989 -0.815979,-0.041992 -1.224976,-0.05899c-0.982025,-0.042999 -1.96402,-0.084015 -2.946014,-0.125c-1.273987,-0.054016 -2.548004,-0.108002 -3.821014,-0.161011c-0.145996,-0.005981 -0.291992,-0.010986 -0.436981,-0.016998c-0.024017,-0.001007 -0.040009,0.009003 -0.041016,0.031006c-0.000977,0.018005 -0.000977,0.040985 0.009003,0.053986c0.111023,0.14801 0.226013,0.292999 0.337006,0.44101c0.373993,0.498993 0.713013,1.020996 1.006989,1.571991c0.336029,0.628998 0.606018,1.28302 0.78302,1.975006c0.127991,0.503021 0.197998,1.013 0.195007,1.529999c-0.003021,0.470001 -0.075012,0.931 -0.255005,1.369019c-0.022003,0.052979 -0.056,0.100983 -0.08902,0.14798c-0.006989,0.01001 -0.039001,0.013 -0.049988,0.005005c-0.039001,-0.027008 -0.076996,-0.057983 -0.110992,-0.09198c-0.721008,-0.72403 -1.597015,-1.162018 -2.582001,-1.399017c-0.541992,-0.131012 -1.093018,-0.182007 -1.649017,-0.190002c-0.321991,-0.005005 -0.641998,-0.001007 -0.961975,0.033997c-0.144012,0.016022 -0.289001,0.040009 -0.430023,0.076019c-1.423981,0.358002 -2.60498,1.104004 -3.53598,2.23999c-0.404022,0.493011 -0.733002,1.029999 -0.958008,1.627991c-0.154999,0.411011 -0.256989,0.835022 -0.325012,1.269012c-0.093994,0.609009 -0.121979,1.221008 -0.098999,1.833984c0.029022,0.761017 0.166016,1.507019 0.393005,2.235016c0.282013,0.906982 0.692017,1.753998 1.192017,2.55899c0.349976,0.563019 0.742981,1.095001 1.155975,1.613007c0.831024,1.044983 1.726013,2.032013 2.661011,2.984009c0.654999,0.666992 1.313995,1.327972 1.971008,1.992981c0.095978,0.097015 0.187988,0.197021 0.278992,0.299011c0.919006,1.03299 1.807007,2.09201 2.645996,3.190002c0.460999,0.602997 0.904999,1.218994 1.309998,1.862c0.026001,0.040985 0.056,0.07901 0.08902,0.113983c0.008972,0.01001 0.043976,0.014008 0.051971,0.005005c0.041016,-0.039978 0.081024,-0.083984 0.116028,-0.130005c0.311981,-0.41098 0.636993,-0.810974 0.972992,-1.203003c0.822998,-0.961975 1.696991,-1.875977 2.609009,-2.753998c0.883972,-0.850983 1.809998,-1.654999 2.73999,-2.452972c0.627991,-0.539001 1.255005,-1.078003 1.873993,-1.626007c0.589996,-0.52301 1.165009,-1.062012 1.703003,-1.639008c0.705994,-0.756989 1.337006,-1.570007 1.845001,-2.475006c0.506989,-0.904999 0.891998,-1.858002 1.134003,-2.867004c0.125,-0.522003 0.195984,-1.052002 0.194,-1.589996c-0.001007,-0.341003 -0.033997,-0.681 -0.084015,-1.016998c-0.11499,-0.773987 -0.321991,-1.520996 -0.656982,-2.230988c-0.442993,-0.940002 -1.061005,-1.740021 -1.875,-2.390015c-0.602997,-0.481018 -1.279999,-0.808014 -2.024017,-1.001984c-0.470978,-0.123016 -0.950989,-0.20401 -1.432983,-0.269012c-0.037994,-0.005005 -0.078003,-0.007996 -0.115997,-0.006989c-1.433014,0.035004 -2.737,0.444 -3.869995,1.342987c-0.114014,0.091003 -0.220001,0.192017 -0.333008,0.285004c-0.02301,0.01297 -0.05603,0.011993 -0.091003,0.020996z"/>
  <path id="svg_49" opacity="0.1" d="m427.985504,136.001984l-9.630005,248.960022c-0.660004,17.190002 -15.269989,30.720001 -32.470001,30.049988l-160.750015,-6.219971c-8.399994,-0.320007 -15.919998,-3.970001 -21.339996,-9.620026c-7.639999,-8.399994 -10.470001,-20.709991 -6.259995,-32.029999l92.720001,-249.040001c6,-16.119995 24.110016,-24.410004 40.230011,-18.399994l97.5,36.29998z"/>
  <path id="svg_50" fill="#4424b8" d="m403.998505,453.756989c-6.725006,15.838989 -25.187012,23.295013 -41.026001,16.569l-148.078018,-62.877991c-15.839005,-6.725006 -23.294998,-25.187012 -16.569,-41.026001l103.861038,-244.594017c6.725006,-15.838989 25.187012,-23.294998 41.026001,-16.569l148.078003,62.878014c15.838989,6.724976 23.294983,25.187012 16.569,41.026001l-103.861023,244.593994z"/>
  <path id="svg_52" fill="#2489b7" d="m331.00351,118.697731c1.890991,0 3.809998,0.371002 5.657013,1.154999l148.078003,62.878014c7.371979,3.130005 10.822998,11.674988 7.692993,19.048004l-103.860016,244.596008c-2.345978,5.524994 -7.734985,8.847992 -13.389984,8.847992c-1.891022,0 -3.809998,-0.371002 -5.657013,-1.154999l-148.07901,-62.877991c-7.371994,-3.130005 -10.822998,-11.675018 -7.692993,-19.048004l103.861023,-244.595024c2.345978,-5.524994 7.734985,-8.847992 13.389984,-8.848999m0.002014,-3.35199l-0.001007,0c-7.199982,0.000992 -13.666992,4.274994 -16.475006,10.889999l-103.863022,244.596016c-1.863998,4.389984 -1.904999,9.247986 -0.115005,13.679993s5.193008,7.899017 9.583008,9.763l148.078033,62.877991c2.221985,0.944 4.565979,1.422028 6.96698,1.422028c7.199005,0 13.666992,-4.275024 16.476013,-10.890015l103.862,-244.596008c3.852997,-9.073975 -0.394989,-19.589996 -9.467987,-23.442993l-148.078033,-62.878014c-2.221985,-0.943008 -4.565979,-1.421997 -6.965973,-1.421997l0,0z"/>
  <ellipse transform="rotate(23.7877, 357.733, 283.029)" ry="90.299086" rx="43.940262" id="svg_60" cy="283.028795" cx="357.732495" stroke-opacity="null" stroke-width="null" stroke="null" fill="#487cd6"/>
 </g>
</svg>