<svg width="1792" height="1792" xmlns="http://www.w3.org/2000/svg">

 <g>
  <title>background</title>
  <rect fill="none" id="canvas_background" height="402" width="582" y="-1" x="-1"/>
 </g>
 <g>
  <title>Layer 1</title>
  <path fill="#4424b8" id="svg_1" d="m880,128q-46,0 -79,33t-33,79l0,656l-32,0l0,-528q0,-46 -33,-79t-79,-33t-79,33t-33,79l0,784l-154,-205q-38,-51 -102,-51q-53,0 -90.5,37.5t-37.5,90.5q0,43 26,77l384,512q38,51 102,51l688,0q34,0 61,-22t34,-56l76,-405q5,-32 5,-59l0,-498q0,-46 -33,-79t-79,-33t-79,33t-33,79l0,272l-32,0l0,-528q0,-46 -33,-79t-79,-33t-79,33t-33,79l0,528l-32,0l0,-656q0,-46 -33,-79t-79,-33zm0,-128q68,0 125.5,35.5t88.5,96.5q19,-4 42,-4q99,0 169.5,70.5t70.5,169.5l0,17q105,-6 180.5,64t75.5,175l0,498q0,40 -8,83l-76,404q-14,79 -76.5,131t-143.5,52l-688,0q-60,0 -114.5,-27.5t-90.5,-74.5l-384,-512q-51,-68 -51,-154q0,-106 75,-181t181,-75q78,0 128,34l0,-434q0,-99 70.5,-169.5t169.5,-70.5q23,0 42,4q31,-61 88.5,-96.5t125.5,-35.5z"/>
 </g>
</svg>