<svg width="24.628" height="23.411" xmlns="http://www.w3.org/2000/svg">

 <g>
  <title>background</title>
  <rect fill="none" id="canvas_background" height="402" width="582" y="-1" x="-1"/>
 </g>
 <g>
  <title>Layer 1</title>
  <path fill="#4424b8" id="svg_1" d="m17.746,0c-2.334001,0 -4.443,1.223 -5.424001,3.128c-0.981999,-1.905 -3.117,-3.128 -5.451,-3.128c-3.647,0 -8.538,2.94 -6.311,10.962c2.545,7.839001 11.761,12.451 11.761,12.448999c0,0.002001 9.203,-4.606998 11.748,-12.448999c2.226999,-8.022 -2.677,-10.962 -6.323,-10.962z"/>
  <path fill="#1a5f97" id="svg_2" d="m16.858576,2.187554c-1.963828,0 -3.738339,0.991715 -4.563753,2.536455c-0.826254,-1.54474 -2.622643,-2.536455 -4.586471,-2.536455c-3.068587,0 -7.183875,2.384009 -5.310076,8.888943c2.141363,6.356545 9.895708,10.096354 9.895708,10.094733c0,0.001621 7.743406,-3.735756 9.884769,-10.094733c1.873798,-6.504935 -2.252428,-8.888943 -5.320177,-8.888943z"/>
 </g>
</svg>