<svg width="54" height="59.843999999999994" xmlns="http://www.w3.org/2000/svg">

 <g>
  <title>background</title>
  <rect fill="none" id="canvas_background" height="402" width="582" y="-1" x="-1"/>
 </g>
 <g>
  <title>Layer 1</title>
  <path fill-rule="evenodd" fill="#4424b8" id="music" d="m42,51.843994c-6.630005,0 -12,-3.58197 -12,-8s5.369995,-8 12,-8a16.563,16.563 0 0 1 6,1.109985l-0.050049,-29.552002l-23.97998,9.575989l0.030029,34.866028c0,4.41803 -5.369995,8 -12,8s-12,-3.58197 -12,-8s5.369995,-8 12,-8a16.563,16.563 0 0 1 6,1.109985l-0.02002,-30a2.985,2.985 0 0 1 1.880005,-2.778015l29.97998,-11.969971a3,3 0 0 1 4.109985,2.778015l0.050049,40.859985c0,4.41803 -5.369995,8 -12,8z" class="cls-1"/>
 </g>
</svg>