<svg width="38" height="38" xmlns="http://www.w3.org/2000/svg">

 <g>
  <title>background</title>
  <rect fill="none" id="canvas_background" height="40" width="40" y="-1" x="-1"/>
 </g>
 <g>
  <title>Layer 1</title>
  <path id="svg_7" fill="#8241f2" d="m34.500118,37.000118c-0.639999,0 -1.279999,-0.243996 -1.768002,-0.731995l-12,-12.000002c-0.976997,-0.977001 -0.976997,-2.559002 0,-3.535c0.976002,-0.977001 2.560001,-0.977001 3.535,0l12,11.999998c0.977001,0.976997 0.977001,2.558998 0,3.535004c-0.487,0.487999 -1.126999,0.731995 -1.766998,0.731995z"/>
  <path d="m4.319119,14.886119c0,-5.838121 4.728878,-10.566999 10.566999,-10.566999c5.83812,0 10.566998,4.728878 10.566998,10.566999c0,5.838122 -4.728878,10.567 -10.566998,10.567c-5.838121,0 -10.566999,-4.728878 -10.566999,-10.567z"/>
  <path d="m4.319119,14.886119c0,-5.838121 4.728878,-10.566999 10.566999,-10.566999c5.83812,0 10.566998,4.728878 10.566998,10.566999c0,5.838122 -4.728878,10.567 -10.566998,10.567c-5.838121,0 -10.566999,-4.728878 -10.566999,-10.567z"/>
  <path d="m4.319119,14.886119c0,-5.838121 4.728878,-10.566999 10.566999,-10.566999c5.83812,0 10.566998,4.728878 10.566998,10.566999c0,5.838122 -4.728878,10.567 -10.566998,10.567c-5.838121,0 -10.566999,-4.728878 -10.566999,-10.567z"/>
  <path d="m4.319119,14.886119c0,-5.838121 4.728878,-10.566999 10.566999,-10.566999c5.83812,0 10.566998,4.728878 10.566998,10.566999c0,5.838122 -4.728878,10.567 -10.566998,10.567c-5.838121,0 -10.566999,-4.728878 -10.566999,-10.567z"/>
  <path d="m4.319119,14.886119c0,-5.838121 4.728878,-10.566999 10.566999,-10.566999c5.83812,0 10.566998,4.728878 10.566998,10.566999c0,5.838122 -4.728878,10.567 -10.566998,10.567c-5.838121,0 -10.566999,-4.728878 -10.566999,-10.567z"/>
  <path fill="#3ba5fc" d="m4.319119,14.886119c0,-5.838121 4.728878,-10.566999 10.566999,-10.566999c5.83812,0 10.566998,4.728878 10.566998,10.566999c0,5.838122 -4.728878,10.567 -10.566998,10.567c-5.838121,0 -10.566999,-4.728878 -10.566999,-10.567z"/>
  <path id="svg_14" fill="#8241f2" d="m14.886119,4.31912c2.704,0 5.408998,1.032 7.472001,3.094999c4.126999,4.127 4.126999,10.817002 0,14.944003c-2.063004,2.063 -4.768002,3.094997 -7.472001,3.094997s-5.409,-1.031998 -7.472,-3.094997c-4.126999,-4.127001 -4.126999,-10.817002 0,-14.944003c2.063,-2.063 4.768,-3.094999 7.472,-3.094999m0,-4c-3.890999,0 -7.549,1.514999 -10.299999,4.267c-5.68,5.68 -5.68,14.921 0,20.601c2.750999,2.750999 6.409,4.266998 10.299999,4.266998s7.549001,-1.514999 10.3,-4.266998c5.68,-5.68 5.68,-14.921 0,-20.601c-2.750999,-2.752001 -6.409,-4.267 -10.3,-4.267l0,0z"/>
 </g>
</svg>