<svg width="512" height="512" xmlns="http://www.w3.org/2000/svg">

 <g>
  <title>background</title>
  <rect fill="none" id="canvas_background" height="402" width="582" y="-1" x="-1"/>
 </g>
 <g>
  <title>Layer 1</title>
  <path fill="#4424b8" id="svg_1" d="m409.43399,82.959999c30.040009,25.700005 60.079987,51.420006 89.971008,77.290001c-29.490021,26.511002 -60.149994,51.850998 -90.101013,77.899994c0.070007,-17.429993 -0.109985,-34.850998 0.061005,-52.270996c-19,0.029999 -38,-0.108994 -56.98999,0.061005c-9.130005,0.020004 -17.720001,4.580002 -23.869995,11.160004c-54.550018,56.778992 -109.210022,113.459991 -163.740021,170.259979c-6.059998,6.290009 -14.51001,10.400024 -23.339996,10.320007c-34.688995,0.220001 -69.389999,-0.169983 -104.069008,0.229004c-12.890989,-0.380005 -23.95,-12.059998 -23.94,-24.889984c-0.64,-13.910004 11.62,-25.900024 25.28,-26.311005c27.549999,-0.26001 55.130009,0.149994 82.680012,-0.188995c10.050003,-0.061005 18.899994,-5.920013 25.240005,-13.320007c53.719986,-55.938995 107.5,-111.830017 161.25,-167.75c6.039978,-6.590012 14.720001,-10.650009 23.679993,-10.850006c25.938995,-0.110001 51.889984,0.100006 77.820007,-0.100998c-0.053009,-17.178001 -0.191986,-34.357002 0.067993,-51.538002z"/>
  <path fill="#4424b8" id="svg_2" d="m32.764,134.479996c37.5,-0.310989 75.130997,0.029999 112.689995,-0.080002c9.680008,-0.429993 19.540009,3.200012 26.12001,10.430008c15.608994,16.061005 31.049988,32.311005 46.569992,48.459991c6.359009,6.5 9.850006,15.960007 7.639999,24.979996c-2.410004,11.040009 -12.979996,19.819 -24.360001,19.710007c-7.728989,0.349991 -14.849991,-3.590012 -20.539993,-8.480011c-10.639999,-11.339996 -20.839996,-23.119995 -31.649002,-34.309998c-6.190002,-6.300003 -15.089996,-9.410004 -23.830002,-9.289993c-27.989998,-0.12001 -55.979996,0.080002 -83.971001,-0.089996c-11.139997,-0.340012 -23.019999,-5.601013 -27.129998,-16.660004c-6.33,-14.079987 3.349999,-31.959991 18.46,-34.669998z"/>
  <path fill="#4424b8" id="svg_3" d="m261.553986,278.170013c9.670013,-7.729004 24.830017,-6.609009 33.360016,2.320007c11.688995,11.97998 23.129974,24.209991 34.829987,36.179993c6.080017,6.410004 14.839996,10.070007 23.670013,9.980011c18.660004,-0.070007 37.319,0.079987 55.98999,-0.090027c-0.190002,-17.109985 -0.070007,-34.220978 -0.040009,-51.329987c30.27002,25.639984 60.309998,51.549988 90.300018,77.519989c-29.950012,25.950012 -60.061005,51.710022 -90.221008,77.410004c-0.380005,-17.5 0.040009,-35.009979 -0.188995,-52.509979c-25.970001,-0.240021 -51.940002,-0.021027 -77.910004,-0.110016c-8.950012,-0.079987 -17.570007,-4.350006 -23.559998,-10.910004c-16.730011,-17.269989 -33.730011,-34.269989 -50.290009,-51.688995c-9.589981,-10.470001 -7.459991,-28.581024 4.059998,-36.770996z"/>
 </g>
</svg>