<svg width="512" height="512" xmlns="http://www.w3.org/2000/svg">

 <g>
  <title>background</title>
  <rect fill="none" id="canvas_background" height="402" width="582" y="-1" x="-1"/>
 </g>
 <g>
  <title>Layer 1</title>
  <path fill="#4424b8" id="svg_2" d="m413.700012,133.399994c-2.399994,-9.000008 -4,-14.000008 -4,-14.000008c-2.600006,-9.299995 -9.200012,-9.299995 -19,-10.899994l-53.100006,-6.700005c-6.600006,-1.099998 -6.600006,-1.099998 -9.199982,-6.799995c-8.700012,-19.600006 -11.400024,-31.000004 -20.900024,-31.000004l-102.999985,0c-9.5,0 -12.100006,11.399998 -20.799988,31.100002c-2.600006,5.599998 -2.600006,5.599998 -9.200012,6.799995l-53.200005,6.700005c-9.699997,1.599998 -16.699997,2.5 -19.299988,11.799995c0,0 -1.200005,4.100006 -3.700005,13.000008c-3.199997,11.899994 -4.5,10.600006 6.5,10.600006l302.399994,0c11,0.100006 9.799988,1.300003 6.5,-10.600006z"/>
  <path fill="#4424b8" id="svg_3" d="m379.399994,176l-246.799988,0c-16.599998,0 -17.399994,2.199997 -16.399994,14.699997l18.699997,242.600021c1.600006,12.299988 2.800003,14.799988 17.5,14.799988l207.199997,0c14.699982,0 15.899994,-2.5 17.5,-14.799988l18.699982,-242.600021c1,-12.599991 0.200012,-14.699997 -16.399994,-14.699997z"/>
 </g>
</svg>